<svg width="37" height="37" viewBox="0 0 37 37" fill="none" xmlns="http://www.w3.org/2000/svg">
<circle cx="18.7881" cy="18.5" r="18" fill="#FFF1EA"/>
<path d="M15.9756 19.3625C16.5318 19.3625 17.0756 19.2107 17.5381 18.9264C18.0006 18.6421 18.3611 18.238 18.574 17.7652C18.7869 17.2924 18.8426 16.7721 18.734 16.2702C18.6255 15.7683 18.3577 15.3072 17.9643 14.9454C17.571 14.5835 17.0698 14.3371 16.5243 14.2372C15.9787 14.1374 15.4132 14.1886 14.8993 14.3845C14.3854 14.5803 13.9461 14.912 13.6371 15.3375C13.328 15.763 13.1631 16.2632 13.1631 16.775C13.1631 17.4612 13.4594 18.1194 13.9868 18.6046C14.5143 19.0899 15.2297 19.3625 15.9756 19.3625ZM15.9756 15.9125C16.161 15.9125 16.3423 15.9631 16.4964 16.0579C16.6506 16.1526 16.7708 16.2873 16.8417 16.4449C16.9127 16.6025 16.9312 16.776 16.8951 16.9433C16.8589 17.1106 16.7696 17.2643 16.6385 17.3849C16.5074 17.5055 16.3403 17.5876 16.1585 17.6209C15.9766 17.6542 15.7881 17.6371 15.6168 17.5718C15.4455 17.5066 15.2991 17.396 15.1961 17.2542C15.0931 17.1123 15.0381 16.9456 15.0381 16.775C15.0381 16.5463 15.1369 16.3269 15.3127 16.1651C15.4885 16.0034 15.7269 15.9125 15.9756 15.9125Z" fill="#FF7E3D"/>
<path d="M9.41309 25.4H28.1631V11.6H9.41309V25.4ZM14.1006 23.675C14.1006 23.2175 14.2981 22.7787 14.6498 22.4552C15.0014 22.1317 15.4783 21.95 15.9756 21.95C16.4729 21.95 16.9498 22.1317 17.3014 22.4552C17.653 22.7787 17.8506 23.2175 17.8506 23.675H14.1006ZM11.2881 13.325H26.2881V23.675H19.7256C19.7256 22.76 19.3305 21.8825 18.6272 21.2355C17.924 20.5885 16.9701 20.225 15.9756 20.225C14.981 20.225 14.0272 20.5885 13.3239 21.2355C12.6207 21.8825 12.2256 22.76 12.2256 23.675H11.2881V13.325Z" fill="#FF7E3D"/>
<path d="M25.3506 15.9125H20.6631V17.6375H25.3506V15.9125Z" fill="#FF7E3D"/>
<path d="M25.3506 19.3625H20.6631V21.0875H25.3506V19.3625Z" fill="#FF7E3D"/>
</svg>
