<svg width="317" height="288" viewBox="0 0 317 288" fill="none" xmlns="http://www.w3.org/2000/svg">
<g opacity="0.7">
<mask id="mask0_246_104" style="mask-type:alpha" maskUnits="userSpaceOnUse" x="15" y="74" width="203" height="133">
<rect x="218" y="207" width="202.261" height="132.423" rx="5" transform="rotate(-180 218 207)" fill="white"/>
</mask>
<g mask="url(#mask0_246_104)">
<path d="M204.611 91.701C200.887 91.3178 195.811 97.5186 199.451 100.526C201.471 102.194 205.885 101.495 205.843 98.3918C205.834 98.3057 205.798 98.2247 205.739 98.1612C205.68 98.0976 205.603 98.0548 205.517 98.0394C202.592 97.3565 199.683 98.6044 200.163 102.005C200.422 103.471 201.171 104.806 202.287 105.792C203.402 106.778 204.819 107.356 206.306 107.433C206.482 107.434 206.419 107.13 206.308 107.098C203.757 106.552 201.355 104.954 200.864 102.224C200.753 101.74 200.745 101.239 200.842 100.752C200.939 100.266 201.139 99.8055 201.427 99.4018C201.77 98.9932 202.222 98.6907 202.731 98.5299C203.17 98.3962 204.743 98.1557 205.124 98.5403C205.807 99.2533 203.935 100.45 203.376 100.639C202.824 100.834 202.235 100.906 201.652 100.848C201.069 100.79 200.506 100.605 200.003 100.305C198.46 99.2134 198.852 97.1728 199.608 95.732C200.629 93.7819 202.407 92.202 204.689 92.1321C204.897 92.133 204.787 91.7416 204.627 91.725L204.611 91.701Z" fill="#A3FFF9"/>
<path d="M205.316 214.277C206.501 211.641 206.385 208.904 209.803 208.05C211.305 207.673 214.856 207.337 215.975 208.675C216.179 208.997 216.26 209.382 216.204 209.759C216.148 210.137 215.959 210.482 215.671 210.732C214.782 211.526 214.124 210.565 213.896 209.719C213.722 208.937 213.794 208.121 214.103 207.382C214.412 206.643 214.942 206.018 215.622 205.594C217.058 204.656 218.794 204.291 220.487 204.57C222.179 204.849 223.706 205.752 224.766 207.101C224.893 207.261 225.029 207.102 224.974 206.927C222.383 200.892 209.824 205.026 213.788 210.819C215.001 212.572 217.162 211.041 216.763 209.189C216.325 207.136 212.83 207.225 211.282 207.322C209.714 207.316 208.199 207.892 207.031 208.939C205.661 210.273 205.468 212.395 205.173 214.196C205.173 214.276 205.244 214.396 205.3 214.277L205.316 214.277Z" fill="#A3FFF9"/>
<path d="M209.291 179.008C209.291 179.008 209.059 182.868 211.913 185.026L214.925 184.122C214.925 184.122 212.919 183.156 211.939 179.019L209.291 179.008Z" fill="#4EFF8B"/>
<path d="M172.759 91.0044C172.759 91.0044 168.927 91.4665 166.601 88.7439L167.317 85.6914C167.317 85.6914 168.409 87.6268 172.587 88.363L172.759 91.0044Z" fill="#A3FFF9"/>
<path d="M218.439 142.676C218.439 142.676 214.608 143.13 212.282 140.408L212.997 137.355C212.997 137.355 214.09 139.298 218.275 140.027L218.439 142.676Z" fill="#A3FFF9"/>
<path d="M135.672 88.4182C139.407 88.0674 144.422 94.304 140.756 97.2798C138.73 98.9384 134.313 98.1933 134.383 95.0902C134.394 95.0056 134.432 94.9267 134.491 94.8653C134.55 94.8038 134.627 94.7629 134.711 94.7485C137.65 94.0911 140.541 95.3562 140.031 98.7606C139.761 100.223 139.002 101.55 137.879 102.525C136.756 103.5 135.335 104.065 133.849 104.127C133.665 104.126 133.731 103.823 133.85 103.8C136.406 103.268 138.822 101.691 139.328 98.9649C139.446 98.484 139.458 97.9834 139.366 97.4971C139.273 97.0109 139.076 96.5502 138.79 96.1464C138.447 95.7207 137.984 95.4074 137.462 95.2471C137.031 95.1096 135.453 94.8555 135.108 95.2369C134.411 95.9519 136.281 97.1567 136.838 97.3506C137.387 97.5535 137.974 97.6315 138.557 97.5788C139.139 97.5261 139.703 97.3441 140.206 97.0461C141.759 95.9758 141.384 93.9318 140.641 92.4766C139.644 90.5257 137.872 88.9224 135.591 88.8407C135.391 88.8398 135.497 88.4494 135.656 88.4341L135.672 88.4182Z" fill="#A3FFF9"/>
<path d="M129.122 219.164C127.96 216.518 128.092 213.782 124.689 212.89C123.191 212.501 119.643 212.134 118.504 213.47C118.3 213.79 118.216 214.172 118.269 214.548C118.321 214.924 118.506 215.269 118.79 215.521C119.68 216.323 120.386 215.368 120.582 214.532C120.764 213.75 120.699 212.932 120.396 212.189C120.094 211.446 119.568 210.815 118.892 210.384C117.459 209.423 115.717 209.038 114.013 209.304C112.309 209.57 110.767 210.468 109.695 211.82C109.575 211.971 109.44 211.819 109.497 211.643C112.14 205.632 124.663 209.874 120.649 215.633C119.42 217.375 117.265 215.818 117.68 213.977C118.144 211.928 121.677 212.047 123.177 212.149C124.747 212.16 126.258 212.749 127.422 213.803C128.78 215.158 128.954 217.28 129.234 219.077C129.233 219.164 129.161 219.276 129.106 219.164L129.122 219.164Z" fill="#A3FFF9"/>
<path d="M31.6673 84.0023C29.2213 83.2736 25.8538 83.4585 23.7884 85.101C22.1873 86.3705 21.2897 89.1349 23.6231 90.0944C24.539 90.4654 27.5625 90.4785 27.9269 89.2355C28.186 88.367 27.2549 87.8444 26.5054 87.7295C24.313 87.3769 22.2447 89.6816 22.2836 91.748C22.35 94.8517 25.9594 95.8965 28.5122 95.9315C28.6797 95.9322 28.6385 96.2512 28.5108 96.2586C24.1611 96.6626 19.3281 92.6128 23.2068 88.5928C24.2566 87.5123 25.8874 86.7455 27.3846 87.3504C28.2288 87.6971 28.8956 88.4658 28.4688 89.3815C27.7843 90.8544 25.0548 91.0979 23.7321 90.7172C23.3814 90.6222 23.0539 90.4564 22.7699 90.2299C22.4858 90.0034 22.2513 89.721 22.0807 89.4002C21.9101 89.0794 21.8071 88.7271 21.7781 88.365C21.7491 88.0028 21.7947 87.6386 21.912 87.2947C22.9981 83.3743 28.4905 82.5365 31.7481 83.7712C31.8439 83.7717 31.8028 84.0348 31.6913 84.0024L31.6673 84.0023Z" fill="#A3FFF9"/>
<path d="M18.2489 196.161C13.277 196.539 14.1296 205.98 18.1369 207.274C18.3831 207.363 18.6447 207.403 18.9063 207.39C19.1679 207.378 19.4245 207.314 19.661 207.201C19.9563 206.986 20.1939 206.701 20.3526 206.372C20.5113 206.043 20.5862 205.679 20.5707 205.314C20.0989 203.717 17.3777 205.731 17.0638 206.36C16.5438 207.188 16.2985 208.16 16.363 209.136C16.4276 210.111 16.7986 211.042 17.4232 211.795C19.4559 214.013 23.3647 214.102 25.9232 212.837C26.0511 212.765 26.074 213.013 25.986 213.076C23.226 214.827 18.6159 214.552 16.5857 211.751C14.9999 209.51 16.1185 203.588 19.6743 204.13C22.991 204.631 20.677 208.402 18.1662 207.889C15.6553 207.375 14.7603 204.036 14.53 201.969C14.2381 199.367 15.0271 195.86 18.2499 195.93C18.3536 195.931 18.3447 196.154 18.2489 196.161V196.161Z" fill="#A3FFF9"/>
<path d="M81.0121 116.782C84.4604 116.358 91.8592 119.294 89.9081 124.001C88.8681 126.509 84.2659 128.101 82.7706 125.214C82.7386 125.136 82.7383 125.048 82.7699 124.969C82.8015 124.89 82.8625 124.827 82.94 124.792C90.1376 120.755 97.6496 132.539 90.0122 136.79C89.7723 136.924 89.7821 136.518 89.9181 136.414C90.5786 135.967 91.1431 135.393 91.5785 134.724C92.014 134.056 92.3116 133.308 92.454 132.523C92.5963 131.738 92.5805 130.933 92.4076 130.154C92.2346 129.375 91.9078 128.639 91.4465 127.988C90.6757 126.746 89.5754 125.741 88.2679 125.087C87.2887 124.62 84.8264 123.955 83.9048 124.908C83.488 125.353 83.4984 124.795 83.7116 125.314C83.9149 125.623 84.2274 125.844 84.5865 125.932C85.3687 126.184 86.2138 126.16 86.9801 125.863C88.5781 125.311 89.837 123.849 89.3899 122.084C88.5676 118.546 84.0735 117.274 80.9225 117.204C80.7071 117.204 80.8445 116.797 81.0122 116.774L81.0121 116.782Z" fill="#A3FFF9"/>
<path d="M67.1347 91.9345C67.1347 91.9345 67.3334 95.7967 64.4521 97.9303L61.4564 96.9918C61.4564 96.9918 63.463 96.0432 64.4782 91.915L67.1347 91.9345Z" fill="#4EFF8B"/>
<path d="M128.716 187.761C128.716 187.761 128.914 191.623 126.033 193.757L123.037 192.834C123.037 192.834 125.044 191.878 126.059 187.75L128.716 187.761Z" fill="#4EFF8B"/>
<path d="M72.0192 159.592C72.0192 159.592 73.7513 163.046 77.3076 163.485L79.4556 161.196C79.4556 161.196 77.237 161.362 74.3225 158.278L72.0192 159.592Z" fill="#A3FFF9"/>
<path d="M106.926 114.637C106.926 114.637 108.658 118.091 112.214 118.529L114.362 116.241C114.362 116.241 112.144 116.407 109.229 113.322L106.926 114.637Z" fill="#4EFF8B"/>
<path d="M32.6064 117.609C32.6064 117.609 36.4417 118.105 38.7909 115.394L38.0942 112.336C38.0942 112.336 36.9928 114.27 32.8014 114.961L32.6064 117.609Z" fill="#A3FFF9"/>
<path d="M98.2656 88.0167C98.2656 88.0167 102.101 88.512 104.45 85.8097L103.761 82.7511C103.761 82.7511 102.652 84.677 98.4606 85.3768L98.2656 88.0167Z" fill="#A3FFF9"/>
<path d="M106.749 138.969C106.749 138.969 110.576 139.456 112.925 136.754L112.236 133.695C112.236 133.695 111.127 135.629 106.936 136.321L106.749 138.969Z" fill="#A3FFF9"/>
<path d="M58.8239 131.884C58.8239 131.884 60.5561 135.338 64.1123 135.776L66.2683 133.488C66.2683 133.488 63.6418 133.883 60.6954 130.799L58.8239 131.884Z" fill="#4EFF8B"/>
<path d="M54.9728 136.957C54.9728 136.957 55.6424 140.765 58.9391 142.2L61.6584 140.616C59.743 139.742 58.1544 138.282 57.1211 136.448L54.9728 136.957Z" fill="#56C1D9"/>
<path d="M181.012 117.647C181.012 117.647 179.25 121.085 175.69 121.493L173.554 119.194C173.554 119.194 176.177 119.604 179.15 116.545L181.012 117.647Z" fill="#4EFF8B"/>
<path d="M163.829 113.439C163.829 113.439 163.127 117.242 159.818 118.656L157.112 117.048C159.037 116.19 160.639 114.741 161.686 112.912L163.829 113.439Z" fill="#56C1D9"/>
</g>
</g>
<g opacity="0.3" filter="url(#filter0_f_246_104)">
<circle cx="144.615" cy="143.68" r="63.6796" fill="#A6D8FF"/>
</g>
<path d="M213 110C213 93.4315 226.431 80 243 80H316.052V180C316.052 196.569 302.62 210 286.052 210H213V110Z" fill="url(#paint0_linear_246_104)"/>
<defs>
<filter id="filter0_f_246_104" x="0.935059" y="0" width="287.359" height="287.359" filterUnits="userSpaceOnUse" color-interpolation-filters="sRGB">
<feFlood flood-opacity="0" result="BackgroundImageFix"/>
<feBlend mode="normal" in="SourceGraphic" in2="BackgroundImageFix" result="shape"/>
<feGaussianBlur stdDeviation="40" result="effect1_foregroundBlur_246_104"/>
</filter>
<linearGradient id="paint0_linear_246_104" x1="283.421" y1="57.7143" x2="338.862" y2="183.754" gradientUnits="userSpaceOnUse">
<stop stop-color="#3E85BC"/>
<stop offset="0.409375" stop-color="#3380BB"/>
<stop offset="1" stop-color="#2169A0"/>
</linearGradient>
</defs>
</svg>
