<svg width="37" height="37" viewBox="0 0 37 37" fill="none" xmlns="http://www.w3.org/2000/svg">
<circle cx="18.7881" cy="18.5" r="18" fill="#F1FFEE"/>
<path fill-rule="evenodd" clip-rule="evenodd" d="M20.2503 13.4771V8.99376C20.2503 8.59011 20.5779 8.26251 20.9815 8.26251C21.3852 8.26251 21.7128 8.59011 21.7128 8.99376V14.8438C21.7128 15.1136 21.5643 15.3615 21.3267 15.4887C21.089 15.616 20.8002 15.6021 20.5757 15.4522L18.7878 14.2602L16.9999 15.4522C16.7754 15.6021 16.4865 15.616 16.2489 15.4887C16.0112 15.3615 15.8628 15.1136 15.8628 14.8438V8.99376C15.8628 8.59011 16.1904 8.26251 16.594 8.26251C16.9977 8.26251 17.3253 8.59011 17.3253 8.99376V13.4771L18.3819 12.7729C18.6276 12.6091 18.9479 12.6091 19.1936 12.7729L20.2503 13.4771Z" fill="#5CA849"/>
<path fill-rule="evenodd" clip-rule="evenodd" d="M26.1006 10.4563C26.1006 9.24531 25.1178 8.26251 23.9068 8.26251H13.6693C12.4584 8.26251 11.4756 9.24531 11.4756 10.4563V26.5438C11.4756 27.7547 12.4584 28.7375 13.6693 28.7375H23.9068C25.1178 28.7375 26.1006 27.7547 26.1006 26.5438V10.4563ZM24.6381 10.4563V26.5438C24.6381 26.9474 24.3105 27.275 23.9068 27.275H13.6693C13.2657 27.275 12.9381 26.9474 12.9381 26.5438V10.4563C12.9381 10.0526 13.2657 9.72501 13.6693 9.72501H23.9068C24.3105 9.72501 24.6381 10.0526 24.6381 10.4563Z" fill="#5CA849"/>
<path fill-rule="evenodd" clip-rule="evenodd" d="M10.7439 15.575H13.6689C14.0726 15.575 14.4002 15.2474 14.4002 14.8437C14.4002 14.4401 14.0726 14.1125 13.6689 14.1125H10.7439C10.3403 14.1125 10.0127 14.4401 10.0127 14.8437C10.0127 15.2474 10.3403 15.575 10.7439 15.575ZM10.7439 19.2312H13.6689C14.0726 19.2312 14.4002 18.9036 14.4002 18.5C14.4002 18.0963 14.0726 17.7687 13.6689 17.7687H10.7439C10.3403 17.7687 10.0127 18.0963 10.0127 18.5C10.0127 18.9036 10.3403 19.2312 10.7439 19.2312ZM10.7439 22.8875H13.6689C14.0726 22.8875 14.4002 22.5599 14.4002 22.1562C14.4002 21.7526 14.0726 21.425 13.6689 21.425H10.7439C10.3403 21.425 10.0127 21.7526 10.0127 22.1562C10.0127 22.5599 10.3403 22.8875 10.7439 22.8875ZM16.5939 25.8125H22.4439C22.8476 25.8125 23.1752 25.4849 23.1752 25.0812C23.1752 24.6776 22.8476 24.35 22.4439 24.35H16.5939C16.1903 24.35 15.8627 24.6776 15.8627 25.0812C15.8627 25.4849 16.1903 25.8125 16.5939 25.8125ZM16.5939 22.8875H22.4439C22.8476 22.8875 23.1752 22.5599 23.1752 22.1562C23.1752 21.7526 22.8476 21.425 22.4439 21.425H16.5939C16.1903 21.425 15.8627 21.7526 15.8627 22.1562C15.8627 22.5599 16.1903 22.8875 16.5939 22.8875Z" fill="#5CA849"/>
</svg>
