<svg width="1070" height="79" viewBox="0 0 1070 79" fill="none" xmlns="http://www.w3.org/2000/svg">
<g style="mix-blend-mode:luminosity">
<path d="M1057.18 69.2753L1050.68 59.7473" stroke="url(#paint0_linear_163_3125)" stroke-miterlimit="10"/>
<path d="M1059.64 67.6011L1049.43 52.6374" stroke="url(#paint1_linear_163_3125)" stroke-miterlimit="10"/>
<path d="M1066.11 71.7825L1055.61 56.4092" stroke="url(#paint2_linear_163_3125)" stroke-miterlimit="10"/>
<g opacity="0.5">
<path opacity="0.5" d="M1007.17 51.7219L1016.08 65.76" stroke="url(#paint3_linear_163_3125)" stroke-miterlimit="10"/>
<path opacity="0.5" d="M1010.8 49.4356L1024.81 71.4822" stroke="url(#paint4_linear_163_3125)" stroke-miterlimit="10"/>
<path opacity="0.5" d="M1008.95 38.5248L1023.34 61.1794" stroke="url(#paint5_linear_163_3125)" stroke-miterlimit="10"/>
</g>
<path d="M952.882 23.1124C952.882 22.4064 953.458 21.8332 954.167 21.8332C954.877 21.8332 955.453 22.4064 955.453 23.1124C955.453 23.8185 954.877 24.3916 954.167 24.3916C953.458 24.3833 952.882 23.8185 952.882 23.1124Z" fill="white"/>
<path d="M966.719 40.4979C965.185 40.4979 963.94 41.7363 963.94 43.2639C963.94 44.7916 965.185 46.03 966.719 46.03C968.254 46.03 969.499 44.7916 969.499 43.2639C969.499 41.7363 968.254 40.4979 966.719 40.4979Z" fill="white"/>
<path d="M945.113 60.5997L955.27 53.5143L943.051 47.2262L945.113 60.5997Z" fill="#FF7E3D"/>
</g>
<mask id="mask0_163_3125" style="mask-type:alpha" maskUnits="userSpaceOnUse" x="0" y="-1" width="663" height="80">
<rect x="0.915039" y="-1" width="662" height="80" fill="white"/>
</mask>
<g mask="url(#mask0_163_3125)">
<path d="M451.33 -51.9951L451.327 -51.9881L451.325 -51.9811C449.998 -48.2963 446.701 -46.2256 442.713 -44.6738C439.559 -43.4614 435.914 -42.783 431.973 -42.2348C430.578 -42.0408 429.136 -41.8622 427.671 -41.6806C425.055 -41.3565 422.364 -41.023 419.732 -40.5765C415.833 -39.9798 412.462 -38.8649 409.57 -37.4647L409.557 -37.4586L409.545 -37.4521C406.091 -35.6744 403.622 -33.1974 401.46 -30.4772C400.382 -29.1203 399.369 -27.6877 398.353 -26.248L398.298 -26.1695C397.295 -24.7487 396.286 -23.3186 395.18 -21.9011C387.713 -12.4095 374.24 -11.5639 361.609 -17.333C357.196 -19.4995 352.963 -21.7685 349.56 -24.5151L349.56 -24.5151L349.551 -24.5225C344.77 -28.2841 339.281 -33.0894 335.383 -38.1992C331.46 -43.3415 329.308 -48.58 330.746 -53.2898C330.993 -54.0322 331.762 -54.8078 333.096 -55.6446C334.41 -56.4685 336.084 -57.2383 337.868 -58.0329C338.056 -58.1166 338.245 -58.2006 338.435 -58.2849C340.015 -58.9863 341.647 -59.7112 343.038 -60.483C344.57 -61.3329 346.003 -62.3404 346.728 -63.6016L346.728 -63.6016L346.734 -63.6117C348.079 -66.0174 349.295 -68.4162 350.472 -70.7387C351.094 -71.9664 351.706 -73.1728 352.32 -74.3476C354.109 -77.7715 355.947 -80.9829 358.229 -83.9126C362.136 -88.8647 363.619 -94.8645 364.972 -100.661C365.021 -100.87 365.069 -101.08 365.118 -101.289C366.434 -106.941 367.697 -112.365 370.844 -116.886L370.847 -116.891C371.392 -117.684 372.368 -118.359 373.753 -118.963C375.129 -119.564 376.793 -120.045 378.587 -120.51C379.115 -120.647 379.657 -120.783 380.204 -120.92C381.478 -121.24 382.778 -121.566 383.987 -121.924C385.713 -122.436 387.385 -123.048 388.699 -123.89C389.619 -124.46 390.477 -125.199 390.947 -126.228L390.963 -126.263L390.976 -126.299C393.764 -134.043 401.399 -138.703 410.593 -140.517C413.325 -141.02 416.223 -141.213 419.886 -140.408L420.613 -140.249L420.634 -140.277C425.428 -138.963 429.9 -135.937 433.238 -132.445C436.684 -128.839 438.767 -124.902 438.882 -122.059L438.882 -122.046L438.883 -122.034C439.07 -119.363 438.256 -117.124 437.185 -114.832C436.966 -114.363 436.733 -113.886 436.496 -113.401C435.595 -111.559 434.633 -109.592 434.132 -107.419L434.13 -107.407L434.127 -107.395C433.869 -106.117 433.66 -104.572 433.725 -103.054C433.862 -99.1672 435.073 -95.2111 436.667 -91.3825C437.952 -88.2966 439.507 -85.2461 440.979 -82.3576C441.333 -81.6643 441.681 -80.9804 442.02 -80.3076L442.023 -80.3013C442.757 -78.8745 443.598 -77.3568 444.477 -75.7733C446.178 -72.7052 448.016 -69.3898 449.471 -66.0095C451.678 -60.8812 452.828 -55.9542 451.33 -51.9951Z" stroke="white" stroke-opacity="0.1" stroke-width="2" stroke-miterlimit="10"/>
<path d="M453.278 -81.3004L453.278 -81.3006C452.541 -82.7265 451.753 -84.1952 450.948 -85.6953C449.223 -88.9084 447.422 -92.2656 445.878 -95.6559C443.609 -100.638 441.837 -105.81 441.609 -110.944C441.434 -112.914 441.69 -114.826 441.932 -116.633L441.938 -116.674L441.941 -116.7L441.946 -116.725C442.514 -119.646 443.79 -122.252 444.999 -124.72C445.286 -125.307 445.57 -125.887 445.839 -126.461C447.26 -129.489 448.363 -132.49 448.019 -136.135L448.019 -136.144C447.702 -139.919 444.788 -145.091 440.174 -149.848C435.584 -154.581 429.456 -158.75 422.942 -160.613L422.832 -160.645C422.783 -160.65 422.689 -160.66 422.592 -160.679C422.515 -160.694 422.413 -160.72 422.302 -160.765C417.505 -162.025 413.462 -161.734 409.97 -161.09C398.014 -158.886 388.078 -153.193 384.477 -143.178C384.242 -142.422 383.699 -141.843 383.141 -141.396C382.594 -140.957 381.94 -140.573 381.371 -140.239L381.335 -140.218L381.292 -140.193L381.247 -140.172C379.455 -139.319 377.164 -138.78 374.778 -138.361C373.248 -138.092 371.61 -137.862 369.992 -137.635C369.093 -137.509 368.201 -137.384 367.336 -137.253C364.871 -136.88 362.588 -136.459 360.735 -135.84C358.867 -135.215 357.617 -134.448 356.989 -133.491C353.386 -127.818 352.391 -120.847 351.358 -113.61C351.283 -113.082 351.207 -112.553 351.13 -112.022C350.017 -104.333 348.641 -96.4404 343.477 -90.2631C340.179 -86.2605 337.707 -81.8986 335.357 -77.2697C334.597 -75.771 333.846 -74.2377 333.083 -72.68C331.505 -69.4569 329.875 -66.1296 328.002 -62.7896L327.999 -62.7835C327.087 -61.1845 325.126 -59.9447 322.976 -58.9043C321.015 -57.9551 318.691 -57.0791 316.417 -56.2224C316.151 -56.1219 315.885 -56.0216 315.62 -55.9215C313.063 -54.9548 310.632 -54.004 308.733 -52.9558C306.794 -51.8859 305.665 -50.8497 305.341 -49.8086L305.34 -49.8064C303.354 -43.4753 306.738 -36.3669 312.458 -29.4468C318.136 -22.5773 325.897 -16.153 332.103 -11.2633L453.278 -81.3004ZM453.278 -81.3004C454.233 -79.4536 455.356 -77.4591 456.538 -75.3591C458.778 -71.3797 461.232 -67.0212 463.164 -62.5702C466.117 -55.7685 467.656 -49.1437 465.415 -43.8667C463.404 -39.2286 458.388 -36.5678 452.925 -34.8529C448.69 -33.5486 443.978 -32.8806 439.049 -32.3297C437.865 -32.1974 436.668 -32.0718 435.463 -31.9454C431.69 -31.5496 427.842 -31.146 424.119 -30.5062C419.044 -29.8124 414.887 -28.5582 411.249 -26.7741L411.246 -26.7728C403.915 -23.1536 399.687 -17.0838 395.153 -10.5743C394.471 -9.59509 393.782 -8.60592 393.074 -7.61364L393.073 -7.61226C388.241 -0.810862 381.204 2.55343 373.315 3.30187C365.387 4.05395 356.582 2.15995 348.373 -1.62813L348.373 -1.62817M453.278 -81.3004L348.373 -1.62817M348.373 -1.62817L348.363 -1.63252M348.373 -1.62817L348.363 -1.63252M348.363 -1.63252C342.386 -4.31695 336.832 -7.54315 332.104 -11.2629L348.363 -1.63252Z" stroke="white" stroke-opacity="0.1" stroke-width="2" stroke-miterlimit="10"/>
<path d="M479.443 -35.956L479.444 -35.9596C482.509 -42.5092 480.545 -50.8552 476.774 -59.3504C474.28 -64.9659 471.09 -70.4641 468.225 -75.4021C466.761 -77.9247 465.383 -80.3011 464.225 -82.4723C463.377 -84.0389 462.479 -85.6517 461.562 -87.3007C459.288 -91.388 456.89 -95.6971 454.816 -100.074C451.903 -106.221 449.578 -112.6 449.078 -118.873C448.793 -121.305 448.939 -123.679 449.346 -126.077C449.93 -129.88 451.548 -133.212 453.092 -136.392C453.387 -137 453.679 -137.602 453.961 -138.2C455.737 -141.973 457.167 -145.719 456.739 -150.302L456.738 -150.309C456.338 -155.021 452.667 -161.426 446.877 -167.313C441.112 -173.174 433.392 -178.369 425.13 -180.75L425.004 -180.786L424.993 -180.792C424.99 -180.793 424.986 -180.793 424.982 -180.794C424.967 -180.796 424.951 -180.799 424.936 -180.802C424.782 -180.829 424.558 -180.878 424.307 -180.999C418.219 -182.61 413.249 -182.264 408.991 -181.479L408.982 -181.477L408.973 -181.476C394.37 -179.019 382.007 -172.152 377.498 -159.689L377.493 -159.677L377.488 -159.664C376.818 -157.968 375.241 -157.117 373.543 -156.328L373.515 -156.315L373.486 -156.303C371.258 -155.41 368.351 -154.924 365.292 -154.585C363.39 -154.374 361.355 -154.214 359.337 -154.055C358.115 -153.959 356.899 -153.863 355.722 -153.757C352.551 -153.47 349.612 -153.105 347.262 -152.458C344.879 -151.801 343.353 -150.922 342.67 -149.773L342.669 -149.77C338.52 -142.84 337.795 -134.253 337.046 -125.397C336.977 -124.582 336.908 -123.766 336.836 -122.948C335.995 -113.372 334.753 -103.634 328.26 -96.2899C323.816 -91.1882 320.684 -85.6397 317.787 -79.8224C316.912 -78.0653 316.055 -76.2771 315.189 -74.4694C313.205 -70.3254 311.171 -66.0784 308.75 -61.8665M479.443 -35.956L307.821 -62.27M479.443 -35.956C476.683 -29.9917 470.036 -26.8899 463.112 -25.0206C457.803 -23.6315 452.03 -22.9762 446.031 -22.4227C444.964 -22.3242 443.889 -22.2289 442.809 -22.1332C437.851 -21.6937 432.781 -21.2443 427.824 -20.4299L479.443 -35.956ZM308.75 -61.8665C308.75 -61.8658 308.749 -61.865 308.749 -61.8643L307.821 -62.27M308.75 -61.8665C308.75 -61.8673 308.751 -61.8681 308.751 -61.8689L307.821 -62.27M308.75 -61.8665C307.658 -59.9456 305.188 -58.4772 302.417 -57.2453C299.854 -56.1061 296.793 -55.0699 293.782 -54.051C293.474 -53.9466 293.166 -53.8423 292.859 -53.7381C289.52 -52.605 286.313 -51.4819 283.802 -50.2214C281.24 -48.9356 279.697 -47.6485 279.258 -46.3082M307.821 -62.27C306.085 -59.2122 299.796 -57.0834 293.445 -54.9335C286.482 -52.5766 279.445 -50.1943 278.25 -46.5348M279.258 -46.3082C279.258 -46.3093 279.258 -46.3104 279.259 -46.3115L278.25 -46.5348M279.258 -46.3082C279.257 -46.3071 279.257 -46.3061 279.257 -46.3051L278.25 -46.5348M279.258 -46.3082L278.25 -46.5348M359.326 -155.001C351.646 -154.397 343.885 -153.786 341.749 -150.19L425.489 -181.653C425.425 -181.691 425.342 -181.704 425.246 -181.721C425.109 -181.743 424.944 -181.771 424.761 -181.877C418.418 -183.577 413.231 -183.219 408.825 -182.407C394.001 -179.912 381.182 -172.885 376.501 -159.946C375.991 -158.656 374.803 -157.959 373.096 -157.166C369.743 -155.821 364.553 -155.413 359.326 -155.001ZM334.533 14.3179C334.531 14.3174 334.53 14.3169 334.529 14.3163L334.015 15.1622L334.536 14.3195C334.535 14.319 334.534 14.3185 334.533 14.3179Z" stroke="white" stroke-opacity="0.1" stroke-width="2" stroke-miterlimit="10"/>
<path d="M475.222 -83.4203L475.225 -83.4161C476.56 -80.9949 478.143 -78.3389 479.826 -75.5132C483.38 -69.5477 487.384 -62.8252 490.474 -55.9558C495.034 -45.8172 497.395 -35.7603 493.523 -27.8109C490.056 -20.8768 481.915 -17.2484 473.283 -15.182C466.901 -13.7111 460.108 -13.047 453.112 -12.5037C451.805 -12.4022 450.49 -12.3049 449.17 -12.2071C443.452 -11.7839 437.634 -11.3533 431.91 -10.5426C424.865 -9.60691 419.046 -7.92947 414.056 -5.53659L414.046 -5.53146C402.667 0.0666607 396.23 9.50359 388.787 20.4174C388.654 20.6118 388.522 20.8067 388.388 21.002L388.388 21.0026C381.094 31.7108 370.373 36.738 358.441 37.7136C346.463 38.693 333.248 35.5831 321.15 29.9361C312.232 25.7469 303.764 21.0242 296.539 15.2635L296.534 15.2598C296.305 15.0789 296.073 14.8966 295.839 14.7127C286.793 7.5943 274.853 -1.80126 265.825 -11.8861C261.195 -17.0567 257.367 -22.3715 255.084 -27.6155C252.805 -32.8532 252.092 -37.9615 253.591 -42.7715C254.152 -44.4176 256.119 -45.9543 259.299 -47.4521C262.424 -48.9236 266.407 -50.2178 270.526 -51.5172C270.876 -51.6275 271.227 -51.7378 271.578 -51.8482C275.325 -53.0273 279.122 -54.2219 282.284 -55.5494C284.018 -56.2772 285.599 -57.0603 286.9 -57.9257C288.197 -58.7879 289.273 -59.7696 289.919 -60.9106L289.921 -60.9148C292.655 -65.8053 294.955 -70.7214 297.2 -75.5192C298.332 -77.9383 299.449 -80.3274 300.602 -82.6679C304.059 -89.6903 307.868 -96.3749 313.413 -102.513L313.417 -102.518C321.012 -111.036 322.097 -122.568 322.674 -134.002C322.727 -135.06 322.776 -136.118 322.825 -137.173C323.042 -141.874 323.257 -146.535 323.859 -151.023C324.595 -156.51 325.902 -161.658 328.446 -166.182L328.446 -166.182L328.45 -166.189C329.198 -167.545 331.009 -168.543 333.89 -169.234C336.726 -169.913 340.304 -170.224 344.163 -170.421C345.767 -170.503 347.436 -170.565 349.109 -170.627C351.391 -170.712 353.68 -170.798 355.818 -170.933C359.534 -171.169 363.038 -171.564 365.701 -172.432C368.134 -173.139 369.884 -174.264 370.664 -176.082L370.675 -176.107L370.684 -176.133C376.003 -190.888 391.043 -198.973 408.144 -201.772C413.357 -202.617 419.275 -203.014 426.675 -201.038C426.769 -200.998 426.853 -200.973 426.906 -200.958C426.996 -200.932 427.09 -200.91 427.155 -200.895L427.165 -200.893C427.228 -200.878 427.268 -200.868 427.298 -200.86L427.35 -200.831L427.476 -200.794C437.402 -197.943 446.687 -191.691 453.636 -184.671C460.61 -177.625 465.082 -169.96 465.615 -164.374C466.154 -158.737 464.405 -154.185 462.266 -149.66C461.931 -148.951 461.585 -148.241 461.236 -147.525C459.377 -143.711 457.449 -139.755 456.803 -135.22C456.343 -132.424 456.313 -129.599 456.544 -126.841L456.544 -126.838C457.208 -119.271 460.131 -111.648 463.743 -104.324C466.089 -99.5673 468.756 -94.8794 471.304 -90.4032C472.667 -88.0077 473.996 -85.6728 475.222 -83.4203Z" stroke="white" stroke-opacity="0.1" stroke-width="2" stroke-miterlimit="10"/>
<path d="M474.751 -178.49L474.75 -178.497C474.132 -185.02 468.863 -193.942 460.704 -202.147C452.571 -210.326 441.72 -217.636 430.177 -221.027L430.054 -221.063L429.946 -221.126C429.942 -221.128 429.94 -221.13 429.929 -221.134C429.913 -221.14 429.878 -221.149 429.794 -221.169L429.777 -221.173C429.652 -221.202 429.44 -221.251 429.203 -221.366C420.517 -223.693 413.669 -223.245 407.518 -222.346C387.666 -219.157 370.313 -210.042 364.18 -192.999C363.443 -190.832 361.024 -189.629 358.442 -188.909C355.315 -188.019 351.191 -187.676 346.793 -187.52C344.254 -187.43 341.548 -187.401 338.848 -187.372C336.888 -187.351 334.931 -187.33 333.044 -187.285C328.496 -187.178 324.268 -186.935 320.923 -186.257C317.519 -185.567 315.381 -184.494 314.52 -182.99C311.674 -177.761 310.32 -171.77 309.646 -165.372C309.106 -160.245 309.006 -154.914 308.906 -149.542C308.881 -148.199 308.856 -146.854 308.824 -145.508C308.507 -132.169 307.524 -118.776 298.617 -109.108L298.615 -109.105C291.969 -101.931 287.496 -94.0539 283.478 -85.8226C282.196 -83.198 280.957 -80.5274 279.706 -77.832C277.053 -72.1158 274.348 -66.2875 271.079 -60.5466M474.751 -178.49L313.586 -183.385C308.306 -173.692 308.081 -161.587 307.856 -149.498C307.581 -134.732 307.306 -119.989 297.821 -109.693C288.904 -100.067 283.872 -89.2242 278.718 -78.118C276.074 -72.4211 273.398 -66.6549 270.149 -60.948C267.782 -56.7539 258.58 -54.0106 249.266 -51.2337C239.019 -48.1789 228.637 -45.0837 227.07 -39.9719C219.863 -17.153 254.895 10.3814 276.243 27.1602C276.988 27.7457 277.716 28.3181 278.425 28.8768C287.037 35.6587 297.145 41.3276 307.353 46.2609M474.751 -178.49C475.423 -171.984 473.408 -166.697 470.936 -161.422C470.553 -160.604 470.157 -159.785 469.759 -158.96C467.605 -154.498 465.373 -149.873 464.622 -144.553M474.751 -178.49L436.191 0.145466M271.079 -60.5466C271.079 -60.5463 271.079 -60.546 271.079 -60.5457L270.15 -60.9476L271.08 -60.5489C271.08 -60.5481 271.08 -60.5474 271.079 -60.5466ZM271.079 -60.5466C270.346 -59.2482 269.098 -58.1339 267.578 -57.1555C266.051 -56.173 264.185 -55.2867 262.131 -54.4641C258.426 -52.98 253.973 -51.6528 249.561 -50.3377C249.093 -50.1979 248.624 -50.0583 248.157 -49.9187C243.257 -48.4532 238.511 -46.9835 234.806 -45.287C231.034 -43.5597 228.692 -41.7498 228.082 -39.7578L228.079 -39.7505L228.079 -39.7505C226.3 -34.1171 227.197 -28.1193 229.966 -21.9709C232.735 -15.8206 237.348 -9.58475 242.885 -3.52635C253.222 7.78172 266.651 18.3375 276.962 26.442C277.704 27.0247 278.429 27.5948 279.136 28.1516M279.136 28.1516C279.136 28.1516 279.136 28.1515 279.136 28.1515L278.425 28.8767L279.136 28.1516ZM279.136 28.1516C287.668 34.8708 297.703 40.5023 307.875 45.4189M307.875 45.4189C307.873 45.418 307.871 45.4171 307.869 45.4162L307.353 46.2609M307.875 45.4189C307.877 45.4198 307.879 45.4208 307.881 45.4217L307.353 46.2609M307.875 45.4189C321.876 51.9709 337.262 55.6951 351.263 54.6253C365.215 53.5593 377.808 47.7384 386.41 35.1187M307.353 46.2609C335.576 59.4706 369.686 61.4314 387.3 35.585M387.3 35.585L386.409 35.1205C386.409 35.1199 386.41 35.1193 386.41 35.1187M387.3 35.585C396.029 22.6164 403.27 11.955 416.147 5.75434M387.3 35.585L386.412 35.1158C386.411 35.1167 386.411 35.1177 386.41 35.1187M386.41 35.1187C395.106 22.1985 402.492 11.2757 415.685 4.9233M416.147 5.75434L415.683 4.92435C415.684 4.92401 415.684 4.92364 415.685 4.9233M416.147 5.75434C421.732 3.0505 428.309 1.12039 436.191 0.145466M416.147 5.75434L415.685 4.9233M415.685 4.9233C421.398 2.15787 428.1 0.19657 436.089 -0.792114M436.191 0.145466L436.085 -0.79154C436.086 -0.791727 436.088 -0.791927 436.089 -0.792114M436.191 0.145466L436.094 -0.792702C436.092 -0.792506 436.091 -0.79231 436.089 -0.792114M436.089 -0.792114C442.708 -1.66317 449.469 -2.04334 456.135 -2.41817C457.51 -2.49553 458.882 -2.57267 460.248 -2.65385C468.258 -3.13001 476.075 -3.74553 483.439 -5.3392C493.548 -7.56035 503.48 -11.5361 507.702 -19.7966C512.41 -29.0303 509.654 -40.7975 504.315 -52.6044C500.663 -60.6815 495.9 -68.5857 491.715 -75.5304C489.794 -78.7178 487.995 -81.7032 486.481 -84.4103M486.481 -84.4103C486.481 -84.4111 486.48 -84.4119 486.48 -84.4127L487.422 -84.8687L486.482 -84.4089C486.482 -84.4093 486.482 -84.4098 486.481 -84.4103ZM486.481 -84.4103C485.257 -86.5745 483.961 -88.8017 482.636 -91.0798C479.378 -96.6802 475.942 -102.588 472.942 -108.621C468.718 -117.119 465.309 -125.962 464.427 -134.739M464.427 -134.739C464.427 -134.738 464.427 -134.737 464.427 -134.735L465.472 -134.867L464.427 -134.74C464.427 -134.739 464.427 -134.739 464.427 -134.739ZM464.427 -134.739C464.087 -137.963 464.113 -141.389 464.622 -144.553M464.622 -144.553C464.622 -144.551 464.622 -144.548 464.621 -144.545L465.663 -144.467L464.624 -144.562C464.623 -144.559 464.623 -144.556 464.622 -144.553Z" stroke="white" stroke-opacity="0.1" stroke-width="2" stroke-miterlimit="10"/>
<path d="M521.622 -11.7351L521.617 -11.7249C516.839 -2.41396 505.162 2.13158 493.598 4.50288C485.164 6.17593 476.293 6.77674 467.233 7.26636C466.139 7.32549 465.043 7.38299 463.943 7.44062C455.968 7.85877 447.877 8.28293 439.942 9.37569C430.933 10.554 423.454 12.6551 417.009 15.7964C402.213 22.8028 393.9 34.9734 383.972 49.5535L383.966 49.5613C374.212 64.1823 359.761 70.8538 343.76 72.0441C327.709 73.2383 310.084 68.9094 294.179 61.4501L294.176 61.4485C282.244 55.9057 270.806 49.4596 261.074 41.6498L261.072 41.6479C259.641 40.5072 258.139 39.318 256.581 38.0844C245.173 29.0542 230.762 17.6461 219.454 5.46389C213.03 -1.45627 207.648 -8.58597 204.391 -15.6277C201.135 -22.6678 200.034 -29.5522 202.053 -36.0333L202.055 -36.0378C202.39 -37.1322 203.222 -38.1916 204.563 -39.2339C205.905 -40.2771 207.7 -41.2583 209.847 -42.1978C214.147 -44.0793 219.665 -45.7109 225.347 -47.343C225.797 -47.4723 226.248 -47.6017 226.7 -47.7311C231.91 -49.2241 237.173 -50.7325 241.534 -52.4321C243.907 -53.357 246.054 -54.3539 247.804 -55.459C249.546 -56.5596 250.962 -57.81 251.782 -59.2635C255.552 -65.8925 258.629 -72.6148 261.645 -79.2048C263.051 -82.2761 264.443 -85.3186 265.886 -88.3096C270.447 -97.7601 275.558 -106.797 283.307 -115.008L283.311 -115.013C293.442 -125.872 294.298 -141.081 294.363 -156.298C294.37 -157.865 294.368 -159.433 294.366 -160.998C294.358 -167.093 294.351 -173.15 294.852 -178.975C295.481 -186.288 296.907 -193.142 300.086 -199.116C301.043 -200.882 303.503 -202.078 307.413 -202.79C311.255 -203.489 316.129 -203.656 321.371 -203.659C323.493 -203.66 325.686 -203.634 327.884 -203.608C331.054 -203.571 334.234 -203.533 337.225 -203.577C342.288 -203.65 347.025 -203.953 350.609 -204.922C353.7 -205.621 356.149 -206.97 357.093 -209.36L357.098 -209.372L357.103 -209.385C364.147 -228.87 384.085 -239.066 406.436 -242.596C413.394 -243.643 421.46 -244.19 431.233 -241.427L431.325 -241.401L431.422 -241.391C431.504 -241.383 431.586 -241.361 431.78 -241.301L431.803 -241.294C431.954 -241.247 432.182 -241.177 432.451 -241.138C445.628 -237.266 458.037 -228.948 467.345 -219.649C476.7 -210.302 482.766 -200.125 483.469 -192.663L483.47 -192.656L483.471 -192.649C484.304 -185.159 481.997 -179.104 479.174 -173.093C478.737 -172.162 478.286 -171.229 477.832 -170.291C475.373 -165.209 472.835 -159.964 472.025 -153.919C471.525 -150.179 471.445 -146.387 471.895 -142.684C472.995 -132.694 476.958 -122.639 481.826 -112.977C485.169 -106.341 488.966 -99.8399 492.577 -93.6592C494.217 -90.8522 495.818 -88.1112 497.32 -85.4536C499.111 -82.2612 501.263 -78.7296 503.564 -74.9546C508.328 -67.1359 513.729 -58.2728 517.879 -49.2149C524.041 -35.7661 527.218 -22.3228 521.622 -11.7351Z" stroke="white" stroke-opacity="0.1" stroke-width="2" stroke-miterlimit="10"/>
<mask id="path-17-inside-1_163_3125" fill="white">
<path d="M503.763 15.1831C516.979 12.7463 530.643 7.59631 536.584 -3.42338C549.743 -28.0899 521.553 -65.459 509.202 -87.0955C498.27 -106.124 482.849 -128.749 480.25 -150.869C479.805 -155.091 479.672 -159.132 480.214 -163.178C482.228 -178.854 494.866 -189.554 493.133 -206.811C491.243 -224.159 465.138 -253.184 434.92 -262.2C434.505 -262.243 434.192 -262.425 433.777 -262.468C422.492 -265.648 413.311 -265.031 405.327 -263.918C380.132 -260.109 357.277 -248.601 349.135 -226.175C348.424 -224.011 345.993 -222.846 342.678 -221.995C327.085 -218.163 289.924 -225.66 284.909 -215.887C270.783 -188.412 289.674 -145.143 267.526 -121.928C249.601 -103.198 244.055 -80.6531 231.807 -59.0245C225.505 -47.8185 178.973 -45.0975 175.168 -33.0367C165.63 -2.70076 215.872 34.1892 242.597 55.4474C253.715 64.2783 266.638 71.5806 280.124 77.8225C315.95 94.6523 360.086 97.8735 382.626 64.1836C393.563 47.9381 402.913 34.7353 418.945 26.9963C425.875 23.6858 434.11 21.3304 444.118 20.2025C464.08 17.7174 484.743 18.8098 503.763 15.1831Z"/>
</mask>
<path d="M503.763 15.1831L503.431 13.328L503.417 13.3307L503.763 15.1831ZM536.584 -3.42338L538.465 -2.65782L538.469 -2.66516L536.584 -3.42338ZM509.202 -87.0955L511.078 -88.0209L511.076 -88.025L509.202 -87.0955ZM480.25 -150.869L478.159 -150.606L478.16 -150.596L478.161 -150.586L480.25 -150.869ZM480.214 -163.178L482.299 -163.034L482.3 -163.043L480.214 -163.178ZM493.133 -206.811L495.225 -207.065L495.224 -207.073L495.224 -207.08L493.133 -206.811ZM434.92 -262.2L435.66 -264.001L435.461 -264.06L435.251 -264.082L434.92 -262.2ZM433.777 -262.468L433.07 -260.657L433.253 -260.606L433.446 -260.586L433.777 -262.468ZM405.327 -263.918L405.097 -265.789L405.083 -265.787L405.07 -265.785L405.327 -263.918ZM349.135 -226.175L347.141 -226.691L347.132 -226.664L347.123 -226.638L349.135 -226.175ZM342.678 -221.995L343.145 -220.169L343.157 -220.172L343.168 -220.175L342.678 -221.995ZM284.909 -215.887L286.808 -215.155L286.808 -215.156L284.909 -215.887ZM267.526 -121.928L269.09 -120.728L269.092 -120.73L267.526 -121.928ZM231.807 -59.0245L229.945 -59.8251L229.942 -59.8202L231.807 -59.0245ZM175.168 -33.0367L173.149 -33.4789L173.148 -33.4771L175.168 -33.0367ZM242.597 55.4474L241.168 56.892L241.169 56.8929L242.597 55.4474ZM280.124 77.8225L281.159 76.1342L281.148 76.1293L280.124 77.8225ZM382.626 64.1836L380.843 63.2544L380.84 63.2592L382.626 64.1836ZM418.945 26.9963L418.027 25.3311L418.019 25.3352L418.945 26.9963ZM444.118 20.2025L444.286 22.0818L444.3 22.0803L444.313 22.0786L444.118 20.2025ZM504.095 17.0382C517.438 14.5779 532.041 9.25851 538.465 -2.65783L534.702 -4.18894C529.245 5.93411 516.52 10.9146 503.431 13.3281L504.095 17.0382ZM538.469 -2.66516C545.486 -15.8176 541.367 -32.0227 534.406 -47.1859C527.423 -62.395 517.143 -77.397 511.078 -88.0209L507.325 -86.1701C513.612 -75.1574 523.603 -60.6567 530.513 -45.6055C537.444 -30.5084 540.841 -15.6957 534.698 -4.18161L538.469 -2.66516ZM511.076 -88.025C505.557 -97.631 499.038 -107.925 493.514 -118.681C488.004 -129.411 483.604 -140.386 482.34 -151.151L478.161 -150.586C479.495 -139.232 484.105 -127.835 489.688 -116.965C495.257 -106.121 501.914 -95.5886 507.327 -86.166L511.076 -88.025ZM482.342 -151.131C481.904 -155.282 481.782 -159.175 482.299 -163.034L478.128 -163.322C477.562 -159.089 477.706 -154.901 478.159 -150.606L482.342 -151.131ZM482.3 -163.043C483.262 -170.529 486.742 -176.786 490.007 -183.729C493.238 -190.599 496.14 -197.954 495.225 -207.065L491.041 -206.557C491.859 -198.411 489.308 -191.788 486.15 -185.074C483.027 -178.434 479.18 -171.503 478.127 -163.312L482.3 -163.043ZM495.224 -207.08C494.216 -216.326 486.887 -228.271 476.238 -238.932C465.537 -249.646 451.181 -259.37 435.66 -264.001L434.181 -260.399C448.877 -256.014 462.683 -246.718 473.061 -236.328C483.491 -225.886 490.16 -214.644 491.042 -206.543L495.224 -207.08ZM435.251 -264.082C435.296 -264.077 435.312 -264.066 435.107 -264.129C434.948 -264.178 434.567 -264.302 434.108 -264.349L433.446 -260.586C433.402 -260.59 433.385 -260.602 433.591 -260.539C433.749 -260.49 434.13 -260.366 434.59 -260.318L435.251 -264.082ZM434.484 -264.278C422.784 -267.575 413.247 -266.926 405.097 -265.789L405.557 -262.046C413.374 -263.136 422.201 -263.721 433.07 -260.657L434.484 -264.278ZM405.07 -265.785C379.471 -261.916 355.645 -250.114 347.141 -226.691L351.129 -225.659C358.909 -247.088 380.793 -258.303 405.583 -262.05L405.07 -265.785ZM347.123 -226.638C346.779 -225.592 345.51 -224.668 342.188 -223.815L343.168 -220.175C346.476 -221.024 350.069 -222.431 351.147 -225.712L347.123 -226.638ZM342.211 -223.821C338.617 -222.938 333.623 -222.681 327.877 -222.693C322.107 -222.704 316.015 -222.974 309.954 -223.063C304.016 -223.15 298.229 -223.057 293.57 -222.288C289.08 -221.547 284.766 -220.041 283.009 -216.618L286.808 -215.156C287.56 -216.62 289.772 -217.841 294.146 -218.563C298.353 -219.257 303.771 -219.362 309.699 -219.275C315.504 -219.19 321.94 -218.916 327.68 -218.905C333.444 -218.893 338.943 -219.137 343.145 -220.169L342.211 -223.821ZM283.01 -216.62C279.314 -209.43 277.82 -201.298 277.251 -192.911C276.684 -184.539 277.032 -175.714 277.125 -167.207C277.315 -149.934 276.412 -134.081 265.96 -123.126L269.092 -120.73C280.789 -132.99 281.514 -150.379 281.327 -167.413C281.231 -176.06 280.889 -184.655 281.445 -192.848C281.999 -201.027 283.441 -208.606 286.808 -215.155L283.01 -216.62ZM265.962 -123.128C256.782 -113.537 250.808 -103.003 245.617 -92.2534C240.383 -81.4147 236.033 -70.5756 229.945 -59.8251L233.67 -58.2239C239.829 -69.1021 244.376 -80.3499 249.458 -90.8734C254.583 -101.486 260.345 -111.59 269.09 -120.728L265.962 -123.128ZM229.942 -59.8202C229.388 -58.8351 228.304 -57.7998 226.581 -56.7292C224.872 -55.6671 222.675 -54.6557 220.091 -53.6727C214.909 -51.7013 208.511 -49.9666 202.014 -48.159C195.596 -46.3728 189.072 -44.5129 183.91 -42.316C181.324 -41.2153 178.98 -39.9897 177.126 -38.5833C175.271 -37.1763 173.785 -35.4958 173.149 -33.4789L177.186 -32.5945C177.501 -33.5928 178.302 -34.6356 179.745 -35.7297C181.188 -36.8244 183.153 -37.8776 185.563 -38.9032C190.393 -40.9587 196.61 -42.7409 203.088 -44.5433C209.488 -46.3243 216.142 -48.1248 221.576 -50.1921C224.3 -51.2286 226.802 -52.3624 228.859 -53.6412C230.903 -54.9113 232.651 -56.4124 233.672 -58.2288L229.942 -59.8202ZM173.148 -33.4771C170.589 -25.3363 172.085 -16.8898 175.982 -8.59841C179.877 -0.309775 186.236 7.96544 193.655 15.8702C208.482 31.6671 227.868 46.3123 241.168 56.892L244.026 54.0027C230.601 43.3242 211.504 28.8954 196.912 13.3488C189.623 5.58179 183.539 -2.3821 179.861 -10.2066C176.185 -18.0284 174.977 -25.5691 177.187 -32.5962L173.148 -33.4771ZM241.169 56.8929C252.446 65.8499 265.518 73.2299 279.1 79.5157L281.148 76.1293C267.757 69.9312 254.984 62.7068 244.025 54.0019L241.169 56.8929ZM279.089 79.5108C297.214 88.0252 317.59 93.1745 336.429 91.8361C355.373 90.4903 372.728 82.5708 384.412 65.108L380.84 63.2592C369.983 79.4862 354.001 86.8011 336.286 88.0597C318.465 89.3258 298.86 84.4497 281.159 76.1343L279.089 79.5108ZM384.408 65.1128C395.39 48.8018 404.457 36.098 419.871 28.6574L418.019 25.3352C401.368 33.3725 391.736 47.0745 380.843 63.2544L384.408 65.1128ZM419.863 28.6615C426.527 25.4778 434.502 23.1845 444.286 22.0818L443.949 18.3231C433.718 19.4763 425.223 21.8937 418.027 25.3312L419.863 28.6615ZM444.313 22.0786C454.183 20.8499 464.224 20.5056 474.314 20.0122C484.355 19.5212 494.422 18.8827 504.109 17.0356L503.417 13.3307C494.085 15.1102 484.31 15.7388 474.274 16.2296C464.287 16.7179 454.015 17.0699 443.922 18.3264L444.313 22.0786Z" fill="white" fill-opacity="0.1" mask="url(#path-17-inside-1_163_3125)"/>
<path d="M513.742 24.1012L513.744 24.1007C528.354 21.5259 543.298 15.893 549.556 4.26862L549.559 4.2636C556.811 -9.01764 552.836 -25.8928 545.107 -42.6538C539.792 -54.1801 532.806 -65.4515 526.722 -75.2691C523.971 -79.7082 521.404 -83.8501 519.259 -87.584L519.258 -87.5846C517.268 -91.0571 515.13 -94.6505 512.936 -98.3387C508.499 -105.796 503.831 -113.642 499.683 -121.661C493.474 -133.662 488.363 -146.166 486.829 -158.587L486.829 -158.592C486.268 -163.339 486.288 -167.948 486.728 -172.506L486.729 -172.518L486.731 -172.53C487.669 -180.086 490.834 -186.627 493.921 -193.007C494.457 -194.114 494.99 -195.216 495.509 -196.318C499.036 -203.807 501.966 -211.382 500.963 -220.753C499.964 -230.079 492.333 -242.753 480.671 -254.379C469.055 -265.96 453.593 -276.347 437.136 -281.229C436.835 -281.276 436.555 -281.376 436.384 -281.438L436.349 -281.45C436.093 -281.541 436.004 -281.567 435.956 -281.571L435.86 -281.581L435.769 -281.607C423.387 -285.089 413.291 -284.523 404.627 -283.281C376.885 -279.114 352.093 -266.586 343.422 -242.503C342.421 -239.676 339.26 -238.11 335.449 -237.284C330.935 -236.267 324.954 -236.081 318.532 -236.181C314.821 -236.239 310.888 -236.395 306.965 -236.551C304.113 -236.664 301.267 -236.777 298.514 -236.852C291.911 -237.031 285.772 -236.995 280.964 -236.267C276.065 -235.526 272.996 -234.132 271.883 -231.961C268.103 -224.507 266.579 -215.928 266.066 -206.785C265.666 -199.633 265.886 -192.198 266.107 -184.731C266.169 -182.644 266.231 -180.556 266.279 -178.47C266.501 -168.948 266.44 -159.504 264.766 -150.821C263.091 -142.129 259.787 -134.137 253.469 -127.561L253.467 -127.559C243.457 -117.199 237.002 -105.826 231.332 -93.9771C229.494 -90.1366 227.733 -86.2339 225.958 -82.2987C222.277 -74.1393 218.534 -65.8403 213.906 -57.6664M513.742 24.1012L212.974 -58.0651M513.742 24.1012C503.253 25.9758 492.352 26.5919 481.333 27.084C480.12 27.1382 478.905 27.1909 477.689 27.2436C467.888 27.6687 458.023 28.0966 448.399 29.3361M513.742 24.1012L448.399 29.3361M213.906 -57.6664C213.905 -57.6658 213.905 -57.6653 213.905 -57.6648L212.974 -58.0651M213.906 -57.6664C213.906 -57.6668 213.906 -57.6672 213.906 -57.6676L212.974 -58.0651M213.906 -57.6664C212.916 -55.9051 211.169 -54.3876 208.987 -53.0482C206.797 -51.7041 204.094 -50.494 201.09 -49.3721C195.568 -47.3096 188.885 -45.4937 182.247 -43.6899C181.672 -43.5336 181.098 -43.3775 180.524 -43.2213C173.291 -41.251 166.236 -39.2714 160.734 -36.9594C157.985 -35.8045 155.674 -34.5869 153.94 -33.278C152.206 -31.9696 151.109 -30.6171 150.669 -29.1953L150.667 -29.1895C148.093 -21.0592 149.558 -12.4177 153.771 -3.59403C157.986 5.23081 164.916 14.1643 173.14 22.8241C187.078 37.5008 204.61 51.27 218.645 62.2932C221.179 64.2828 223.598 66.1829 225.862 67.9828M212.974 -58.0651C209.627 -52.1076 195.851 -48.3637 181.974 -44.5924C166.956 -40.511 151.82 -36.3976 149.658 -29.4115C139.816 1.66916 187.352 39.0006 217.948 63.0292C220.478 65.0163 222.893 66.9124 225.149 68.7064M225.862 67.9828C225.861 67.9823 225.861 67.9818 225.86 67.9813L225.149 68.7064M225.862 67.9828C225.862 67.9832 225.863 67.9836 225.863 67.984L225.149 68.7064M225.862 67.9828C238.207 77.7077 252.465 85.789 267.315 92.8272M225.149 68.7064C237.571 78.4926 251.902 86.6116 266.795 93.6702C306.579 112.401 355.442 116.185 380.704 78.5258M380.704 78.5258L379.81 78.0645C379.81 78.0639 379.811 78.0632 379.811 78.0626M380.704 78.5258C392.718 60.5272 403.149 46.1685 420.786 37.775M380.704 78.5258L379.811 78.0626M267.315 92.8272C267.314 92.827 267.314 92.8267 267.313 92.8265L266.796 93.6678L267.316 92.8276C267.315 92.8275 267.315 92.8273 267.315 92.8272ZM267.315 92.8272C287.103 102.143 309.071 107.702 329.161 106.3C349.197 104.902 367.386 96.5856 379.811 78.0626M379.811 78.0626C391.809 60.0882 402.38 45.4852 420.324 36.9439M420.786 37.775L420.324 36.9439M420.786 37.775L420.328 36.9417C420.327 36.9424 420.325 36.9432 420.324 36.9439M420.786 37.775L448.399 29.3361M420.324 36.9439C428.116 33.1943 437.257 30.6672 448.399 29.3361" stroke="white" stroke-opacity="0.1" stroke-width="2" stroke-miterlimit="10"/>
<path d="M523.891 33.946L523.898 33.9447C540.1 31.3144 556.555 25.164 563.736 12.284C571.829 -2.28532 567.417 -20.8973 558.883 -39.3662C553.078 -51.9299 545.473 -64.2216 538.844 -74.9357C535.739 -79.9529 532.849 -84.6241 530.458 -88.8154C528.29 -92.5527 525.96 -96.4233 523.567 -100.4C518.627 -108.608 513.415 -117.268 508.791 -126.135C501.92 -139.313 496.279 -153.065 494.658 -166.729C493.992 -171.921 493.9 -177.003 494.655 -182.014C495.659 -190.312 499.115 -197.498 502.495 -204.527C503.072 -205.726 503.646 -206.921 504.206 -208.116C508.065 -216.354 511.289 -224.702 510.201 -235.015C509.117 -245.28 500.687 -259.21 487.842 -271.995C475.031 -284.745 457.983 -296.2 439.892 -301.614C439.556 -301.695 439.294 -301.789 439.081 -301.865C438.859 -301.944 438.69 -302.004 438.47 -302.055L438.447 -302.061L438.423 -302.067C424.74 -305.908 413.709 -305.289 404.273 -303.904C374.035 -299.397 346.657 -285.791 337.071 -259.267L337.066 -259.254L337.061 -259.241C335.84 -256.151 332.428 -254.548 328.109 -253.63M523.891 33.946L327.909 -254.551M523.891 33.946C512.338 35.898 500.412 36.4646 488.352 36.9241C487.323 36.9632 486.293 37.0017 485.263 37.0401C474.237 37.4514 463.12 37.8661 452.203 39.2743M523.891 33.946L194.915 -56.7953M328.109 -253.63C328.109 -253.63 328.108 -253.63 328.107 -253.629L327.909 -254.551M328.109 -253.63C328.11 -253.63 328.11 -253.63 328.11 -253.63L327.909 -254.551M328.109 -253.63C323.166 -252.564 316.573 -252.424 309.471 -252.602C305.379 -252.705 301.042 -252.917 296.714 -253.129C293.546 -253.284 290.382 -253.439 287.321 -253.55C280.014 -253.817 273.214 -253.841 267.902 -253.089C265.247 -252.712 263.027 -252.15 261.323 -251.363C259.63 -250.581 258.503 -249.605 257.912 -248.409L257.91 -248.404C253.798 -240.204 252.213 -230.756 251.759 -220.693C251.405 -212.854 251.738 -204.705 252.072 -196.526C252.167 -194.199 252.262 -191.869 252.342 -189.543C252.699 -179.075 252.737 -168.705 250.966 -159.191C249.193 -149.667 245.595 -140.936 238.627 -133.79L237.852 -134.397M327.909 -254.551C320.354 -252.922 308.632 -253.496 296.847 -254.073C278.727 -254.961 260.458 -255.855 256.956 -248.761C249.492 -233.878 250.259 -215.119 251.023 -196.427C251.977 -173.09 252.926 -149.857 237.852 -134.397M237.852 -134.397L238.627 -133.79C227.511 -122.39 220.392 -109.821 214.146 -96.7448C212.174 -92.6164 210.284 -88.4262 208.381 -84.2057C204.278 -75.105 200.111 -65.8634 194.915 -56.7953M237.852 -134.397C223.051 -119.219 215.296 -102.018 207.387 -84.4762C203.293 -75.3964 199.158 -66.2253 193.984 -57.1965C190.313 -50.6549 175.032 -46.5898 159.636 -42.4942C143.015 -38.0725 126.26 -33.6153 123.837 -25.9679M194.915 -56.7953L253.154 109.336C236.907 101.69 221.067 92.8932 207.287 81.9225C204.684 79.8545 201.886 77.661 198.946 75.3564C165.321 49.0002 113.153 8.10917 123.837 -25.9679M194.915 -56.7953C193.84 -54.8825 191.93 -53.2328 189.529 -51.7749C187.119 -50.3112 184.138 -48.9947 180.818 -47.7746C174.698 -45.5252 167.28 -43.5521 159.905 -41.5902C159.287 -41.4259 158.67 -41.2618 158.054 -41.0975C150.04 -38.961 142.209 -36.8117 136.094 -34.2906C133.039 -33.0311 130.462 -31.6987 128.523 -30.2606C126.585 -28.8231 125.347 -27.3281 124.846 -25.7472M194.915 -56.7953C194.915 -56.7967 194.916 -56.798 194.917 -56.7994L193.984 -57.1963L194.913 -56.7918C194.913 -56.793 194.914 -56.7942 194.915 -56.7953ZM123.837 -25.9679L124.846 -25.7457C124.846 -25.7462 124.846 -25.7467 124.846 -25.7472M123.837 -25.9679L124.846 -25.7483C124.846 -25.748 124.846 -25.7476 124.846 -25.7472M124.846 -25.7472C122.031 -16.7669 123.696 -7.22903 128.39 2.49654C133.085 12.2234 140.775 22.0634 149.878 31.5927C165.158 47.589 184.296 62.5905 199.64 74.6181C202.585 76.9263 205.39 79.1248 208.001 81.1999L208.001 81.2005C221.699 92.1059 237.463 100.865 253.672 108.493L253.672 108.493C275.362 118.714 299.567 124.878 321.695 123.369C343.767 121.864 363.788 112.731 377.314 92.2767L377.315 92.2758C390.391 72.5467 401.89 56.6898 421.604 47.5839M421.604 47.5839C421.602 47.5845 421.601 47.5851 421.6 47.5856L422.055 48.42L421.61 47.581C421.608 47.582 421.606 47.5829 421.604 47.5839ZM421.604 47.5839C430.011 43.6047 440.027 40.7966 452.203 39.2743M452.203 39.2743C452.203 39.2744 452.202 39.2745 452.201 39.2746L452.304 40.2095L452.206 39.274C452.205 39.2741 452.204 39.2742 452.203 39.2743Z" stroke="white" stroke-opacity="0.1" stroke-width="2" stroke-miterlimit="10"/>
<path d="M534.042 43.7905L534.038 43.7912C521.42 45.8207 508.441 46.3722 495.325 46.7875C493.983 46.83 492.64 46.871 491.296 46.9121C479.521 47.272 467.659 47.6346 455.97 48.9813L455.965 48.982C442.854 50.5563 432.055 53.5076 422.918 57.8632C401.557 67.9898 389.238 84.9478 374.926 106.342L374.924 106.346C360.037 128.786 338.114 138.747 314.006 140.359C289.843 141.975 263.466 135.196 239.875 124.069L239.872 124.068C222.163 115.766 205.09 106.051 190.083 94.1859C187.13 91.843 183.947 89.3545 180.599 86.7374C163.872 73.66 143.04 57.3736 126.367 40.0189C116.366 29.6086 107.905 18.8567 102.734 8.2311C97.5649 -2.39268 95.7204 -12.8139 98.8126 -22.6198C99.3762 -24.3609 100.754 -26.0002 102.892 -27.5688C105.032 -29.1382 107.869 -30.5882 111.224 -31.9556C117.94 -34.6925 126.532 -37.0198 135.316 -39.3282C136.021 -39.5133 136.726 -39.6983 137.432 -39.8833C145.491 -41.9958 153.584 -44.1174 160.269 -46.5352C163.908 -47.8513 167.173 -49.2699 169.813 -50.8457C172.444 -52.4167 174.532 -54.1899 175.712 -56.242L175.716 -56.2486C181.204 -65.9727 185.629 -75.8679 189.989 -85.6162C192.136 -90.4181 194.268 -95.1844 196.502 -99.877C203.297 -114.143 211.094 -127.854 223.317 -140.294L223.318 -140.295C230.869 -147.999 234.737 -157.455 236.607 -167.798C238.474 -178.13 238.357 -189.413 237.882 -200.816C237.774 -203.413 237.648 -206.015 237.521 -208.616C237.091 -217.464 236.662 -226.283 236.967 -234.769C237.362 -245.74 238.984 -256.046 243.364 -264.981C244.009 -266.287 245.248 -267.341 247.106 -268.176C248.976 -269.016 251.411 -269.603 254.318 -269.982C260.135 -270.741 267.582 -270.639 275.582 -270.268C278.951 -270.112 282.432 -269.908 285.917 -269.703C290.64 -269.425 295.37 -269.148 299.838 -268.989C307.614 -268.714 314.825 -268.789 320.232 -269.876C324.961 -270.75 328.784 -272.535 329.945 -275.897C340.449 -304.857 370.256 -319.627 403.13 -324.382C413.479 -325.817 425.409 -326.488 440.338 -322.327C440.913 -322.022 441.561 -321.871 442.058 -321.756L442.083 -321.75C461.837 -315.864 480.449 -303.353 494.442 -289.446C508.471 -275.504 517.702 -260.315 518.92 -249.178L518.92 -249.177C520.17 -237.878 516.679 -228.794 512.482 -219.838C511.864 -218.52 511.23 -217.202 510.593 -215.88C506.92 -208.251 503.164 -200.45 502.058 -191.386C501.308 -185.777 501.509 -180.24 502.124 -174.695L502.124 -174.688L502.125 -174.681C504.041 -159.758 510.274 -144.77 517.81 -130.414C522.78 -120.945 528.348 -111.698 533.636 -102.916C536.356 -98.3986 539.002 -94.0041 541.454 -89.7653C543.997 -85.3606 547.049 -80.457 550.327 -75.1902C557.657 -63.4121 566.117 -49.8175 572.543 -35.9231C581.854 -15.7894 586.668 4.54163 577.806 20.4481L577.806 20.4491C570.067 34.38 551.71 41.0094 534.042 43.7905Z" stroke="white" stroke-opacity="0.1" stroke-width="2" stroke-miterlimit="10"/>
<path d="M544.184 53.6367L544.185 53.6365C563.307 50.7067 583.318 43.65 591.823 28.3839L591.826 28.3789C601.581 11.1132 596.368 -10.9342 586.267 -32.7153C579.293 -47.7525 570.098 -62.455 562.15 -75.164C558.599 -80.8414 555.297 -86.121 552.553 -90.8548M544.184 53.6367L553.488 -91.3241M544.184 53.6367C530.5 55.7438 516.505 56.3026 502.382 56.7538C501.31 56.7881 500.237 56.8217 499.163 56.8554C486.117 57.2644 472.975 57.6763 459.982 59.2399L459.976 59.2405C445.826 61.0068 434.414 64.1929 424.407 68.8237L424.401 68.8264C401.435 79.6065 388.035 97.7181 372.641 120.873L372.638 120.878C356.597 145.321 332.841 156.098 306.712 157.8C280.525 159.505 251.937 152.088 226.444 140.055L226.441 140.053C207.059 130.98 188.481 120.588 172.277 107.634L172.277 107.634C168.722 104.793 164.848 101.755 160.757 98.5476C142.906 84.5514 120.919 67.3117 103.198 48.9651C92.3112 37.6937 83.0801 26.0485 77.4212 14.5318C71.7626 3.0158 69.7122 -8.29445 73.0463 -18.9515M544.184 53.6367L155.692 -55.6406M552.553 -90.8548C552.553 -90.8554 552.552 -90.856 552.552 -90.8565L553.488 -91.3241M552.553 -90.8548C552.553 -90.8545 552.553 -90.8542 552.554 -90.8539L553.488 -91.3241M552.553 -90.8548C549.924 -95.3563 547.087 -100.026 544.17 -104.828C538.376 -114.366 532.263 -124.429 526.816 -134.75C518.615 -150.285 511.853 -166.523 509.851 -182.688L509.851 -182.691C509.127 -188.709 508.978 -194.606 509.617 -200.656L509.619 -200.667C510.786 -210.474 514.851 -218.948 518.831 -227.245C519.514 -228.667 520.194 -230.084 520.856 -231.502C525.399 -241.226 529.182 -251.079 527.797 -263.248C526.417 -275.375 516.422 -291.8 501.251 -306.876C486.115 -321.917 465.977 -335.462 444.53 -341.933M553.488 -91.3241C550.843 -95.8518 547.998 -100.535 545.077 -105.344C530.584 -129.201 514.197 -156.177 510.895 -182.834C510.177 -188.8 510.031 -194.632 510.663 -200.608C511.811 -210.256 515.802 -218.579 519.782 -226.879C525.132 -238.035 530.462 -249.15 528.842 -263.386C526.016 -288.215 488.194 -329.787 444.87 -342.843M444.53 -341.933L444.564 -341.925L444.87 -342.843M444.53 -341.933C444.519 -341.936 444.508 -341.94 444.497 -341.943L444.87 -342.843M444.53 -341.933L444.506 -341.939C444.01 -342.054 443.363 -342.205 442.788 -342.509M444.87 -342.843C444.297 -342.976 443.726 -343.11 443.257 -343.382M443.257 -343.382L442.908 -342.476C442.868 -342.487 442.828 -342.498 442.788 -342.509M443.257 -343.382C426.929 -347.905 413.699 -347.259 402.19 -345.615M443.257 -343.382L442.661 -342.579C442.703 -342.555 442.745 -342.532 442.788 -342.509M442.788 -342.509C426.712 -346.94 413.691 -346.305 402.314 -344.68M402.19 -345.615L402.314 -344.68M402.19 -345.615C366.522 -340.354 333.734 -324.503 322.131 -292.59C320.96 -289.505 317.546 -287.919 312.52 -286.872C303.506 -285.163 289.572 -286.064 275.583 -286.969C254.021 -288.364 232.33 -289.767 228.328 -281.631M402.19 -345.615L402.309 -344.68C402.311 -344.68 402.312 -344.68 402.314 -344.68M402.314 -344.68C366.835 -339.447 334.545 -323.736 323.128 -292.332L323.124 -292.32C321.746 -288.691 317.767 -287.002 312.712 -285.95L312.702 -285.948L312.691 -285.946C306.819 -284.832 298.986 -284.808 290.533 -285.161C285.682 -285.364 280.554 -285.695 275.433 -286.026C271.646 -286.271 267.863 -286.516 264.2 -286.707C255.522 -287.162 247.441 -287.327 241.14 -286.56C237.989 -286.176 235.349 -285.567 233.324 -284.681C231.311 -283.8 229.973 -282.678 229.286 -281.282M229.286 -281.282C229.286 -281.283 229.286 -281.283 229.287 -281.284L228.328 -281.631M229.286 -281.282C229.286 -281.282 229.285 -281.281 229.285 -281.28L228.328 -281.631M229.286 -281.282C224.575 -271.6 222.893 -260.426 222.556 -248.535C222.296 -239.361 222.837 -229.824 223.379 -220.262C223.54 -217.423 223.702 -214.582 223.842 -211.747C224.453 -199.398 224.668 -187.19 222.703 -176.028C220.736 -164.855 216.574 -154.66 208.374 -146.386M228.328 -281.631C219.834 -264.178 221.085 -242.119 222.332 -220.148C223.899 -192.511 225.459 -165.013 207.605 -146.999M207.605 -146.999L208.375 -146.387C208.375 -146.387 208.375 -146.386 208.374 -146.386M207.605 -146.999C189.808 -129.001 180.642 -108.509 171.309 -87.645C166.539 -76.9799 161.724 -66.2174 155.692 -55.6406M207.605 -146.999L208.374 -146.386M208.374 -146.386C195.046 -132.906 186.583 -117.999 179.214 -102.506C176.844 -97.5237 174.582 -92.4684 172.306 -87.3796C167.524 -76.6909 162.677 -65.8545 156.621 -55.2376L156.62 -55.2358C155.356 -53.0317 153.103 -51.1233 150.25 -49.4294C147.389 -47.7303 143.843 -46.1999 139.885 -44.7794C132.604 -42.1659 123.782 -39.8748 114.996 -37.593C114.239 -37.3965 113.483 -37.2001 112.728 -37.0036C103.166 -34.5144 93.8099 -32.0049 86.5083 -29.0532C82.8598 -27.5783 79.776 -26.0129 77.4544 -24.3166C75.1327 -22.6202 73.6415 -20.8434 73.0463 -18.9515M155.692 -55.6406C151.31 -47.9982 133.09 -43.2663 114.735 -38.4991C94.8757 -33.3412 74.8576 -28.1422 72.0365 -19.171C59.6149 20.5307 120.282 68.0962 160.069 99.291C164.153 102.494 168.018 105.524 171.561 108.355C187.847 121.374 206.501 131.805 225.924 140.898C277.114 165.059 341.041 170.849 373.535 121.333L155.692 -55.6406ZM73.0463 -18.9515C73.0464 -18.9517 73.0464 -18.9519 73.0464 -18.952L72.038 -19.1707L73.0461 -18.9507C73.0461 -18.951 73.0462 -18.9513 73.0463 -18.9515Z" stroke="white" stroke-opacity="0.1" stroke-width="2" stroke-miterlimit="10"/>
<path d="M554.334 63.4815L554.329 63.4822C539.579 65.6666 524.533 66.2101 509.349 66.692C508.727 66.7117 508.105 66.7314 507.483 66.751C492.935 67.2101 478.27 67.6729 463.739 69.5456C448.485 71.2749 436.092 74.8843 425.475 79.7437L425.468 79.7467C400.895 91.1818 386.569 110.543 370.097 135.452L370.096 135.454C352.798 161.742 327.167 173.315 299 175.123C270.777 176.935 239.993 168.936 212.599 155.999C191.807 146.108 171.819 134.898 154.309 120.987L154.308 120.986C150.585 118.035 146.536 114.884 142.261 111.556C122.884 96.4727 98.8759 77.7848 79.5482 57.8802C67.7567 45.7368 57.7524 33.1842 51.6162 20.771C45.4807 8.35912 43.2499 -3.83475 46.8614 -15.3181C47.5188 -17.3701 49.1522 -19.2896 51.6784 -21.1149C54.2046 -22.9401 57.5539 -24.6199 61.5089 -26.1993C69.4231 -29.3597 79.5551 -32.0387 89.8978 -34.6942C90.6954 -34.8989 91.4942 -35.1036 92.2933 -35.3083C101.817 -37.748 111.374 -40.1962 119.254 -42.9964C123.527 -44.5152 127.351 -46.1522 130.432 -47.9709C133.505 -49.7843 135.921 -51.8258 137.269 -54.1816L137.27 -54.1834C143.777 -65.6127 148.951 -77.2666 154.057 -88.7664C156.488 -94.2418 158.903 -99.6823 161.439 -105.047C169.325 -121.726 178.428 -137.796 192.915 -152.386C201.723 -161.251 206.174 -172.196 208.252 -184.206C210.327 -196.206 210.043 -209.34 209.321 -222.633C209.151 -225.762 208.957 -228.899 208.763 -232.033C208.131 -242.248 207.501 -252.436 207.714 -262.239C207.992 -275.041 209.711 -287.074 214.691 -297.492C215.431 -299.029 216.882 -300.252 219.058 -301.203C221.247 -302.159 224.102 -302.808 227.506 -303.206C234.315 -304.004 243.051 -303.774 252.428 -303.224C256.42 -302.99 260.543 -302.697 264.669 -302.403C270.165 -302.012 275.666 -301.62 280.869 -301.368C289.993 -300.926 298.43 -300.896 304.732 -302.058C310.261 -303.077 314.409 -305.049 315.889 -308.794L315.894 -308.807L315.898 -308.819C328.027 -342.385 362.848 -359.4 400.97 -364.882L400.973 -364.882C413.413 -366.702 427.4 -367.39 444.726 -362.428L444.752 -362.42L444.779 -362.414C445.039 -362.353 445.342 -362.27 445.673 -362.179L445.682 -362.177C445.987 -362.092 446.317 -362.001 446.616 -361.93C469.727 -354.99 491.43 -340.387 507.749 -324.188C524.103 -307.955 534.898 -290.272 536.414 -277.273L536.414 -277.272C537.961 -264.118 533.885 -253.494 528.992 -243.034C528.275 -241.502 527.539 -239.97 526.8 -238.434C522.516 -229.52 518.148 -220.432 516.921 -209.905L516.92 -209.897C516.231 -203.479 516.384 -196.983 517.216 -190.501L517.217 -190.495C519.566 -173.142 526.946 -155.705 535.822 -139.011C541.601 -128.142 548.045 -117.534 554.167 -107.458C557.436 -102.075 560.614 -96.8451 563.548 -91.8083L563.549 -91.807C566.442 -86.8589 569.904 -81.3472 573.627 -75.4211C582.276 -61.6511 592.331 -45.6439 599.927 -29.2724C610.806 -5.82699 616.42 17.9392 605.898 36.542C596.674 52.7835 575.053 60.4954 554.334 63.4815Z" stroke="white" stroke-opacity="0.1" stroke-width="2" stroke-miterlimit="10"/>
<path d="M564.475 73.328L564.473 73.3282C548.66 75.5894 532.588 76.0832 516.388 76.4689C515.32 76.4943 514.251 76.5193 513.182 76.5443C498.056 76.8976 482.827 77.2532 467.706 78.9763L467.701 78.9769C451.415 80.8965 438.242 84.6479 426.893 89.8839L426.889 89.8855C400.611 102.113 385.102 122.764 367.651 149.295L367.65 149.296C349.068 177.615 321.613 190.06 291.452 191.997C261.232 193.938 228.277 185.324 198.902 171.436C176.759 160.958 155.207 148.841 136.391 133.972C132.321 130.748 127.881 127.295 123.187 123.646C102.491 107.552 76.8532 87.6172 56.1747 66.3867C43.4945 53.3681 32.7247 39.9065 26.1152 26.5959C19.5058 13.2856 17.0947 0.206226 20.9859 -12.105L20.986 -12.1053C21.6876 -14.3281 23.4491 -16.3978 26.1689 -18.3573C28.8883 -20.3164 32.4954 -22.114 36.7527 -23.7996C45.2714 -27.1725 56.1835 -30.0181 67.3165 -32.8342C68.1952 -33.0565 69.0753 -33.2786 69.9556 -33.5007C80.1891 -36.083 90.4495 -38.6722 98.9066 -41.6415C103.502 -43.255 107.609 -44.9954 110.915 -46.9313C114.211 -48.8618 116.793 -51.0349 118.225 -53.5429L118.226 -53.5445C125.142 -65.7119 130.66 -78.128 136.108 -90.3898C138.751 -96.337 141.378 -102.248 144.14 -108.076C152.62 -125.97 162.428 -143.217 178.022 -158.848L178.023 -158.848C187.412 -168.27 192.128 -179.931 194.293 -192.749C196.457 -205.556 196.085 -219.589 195.239 -233.809C195.039 -237.171 194.813 -240.542 194.587 -243.911C193.854 -254.827 193.123 -265.721 193.294 -276.209C193.518 -289.926 195.286 -302.834 200.559 -314.023C201.341 -315.651 202.892 -316.941 205.223 -317.938C207.567 -318.94 210.628 -319.61 214.275 -320.013C221.569 -320.819 230.938 -320.527 240.994 -319.892C245.279 -319.622 249.703 -319.288 254.131 -318.955C260.025 -318.51 265.926 -318.065 271.511 -317.769C281.308 -317.249 290.363 -317.168 297.129 -318.355L297.139 -318.357C302.875 -319.414 307.607 -321.471 309.031 -325.494C322.077 -361.499 359.328 -379.678 400.09 -385.409L400.099 -385.41C413.311 -387.372 428.23 -388.112 446.853 -382.795C447.227 -382.68 447.561 -382.588 447.88 -382.5L447.886 -382.498C448.212 -382.408 448.522 -382.323 448.869 -382.216L448.874 -382.214C473.612 -374.737 496.918 -359.106 514.453 -341.777C532.016 -324.42 543.635 -305.515 545.236 -291.578L545.236 -291.577C546.867 -277.483 542.461 -266.111 537.215 -254.911C536.482 -253.347 535.732 -251.784 534.979 -250.217C530.361 -240.597 525.657 -230.801 524.427 -219.416L524.426 -219.407C523.743 -212.402 523.845 -205.539 524.785 -198.59C527.3 -179.951 535.208 -161.267 544.729 -143.405C551.007 -131.625 558.019 -120.15 564.665 -109.273C568.086 -103.673 571.411 -98.2315 574.49 -92.9882L574.49 -92.9869C577.573 -87.7577 581.254 -81.934 585.213 -75.6716C594.551 -60.8991 605.432 -43.6853 613.631 -26.0757C625.319 -0.971035 631.334 24.5128 619.916 44.4754L619.914 44.4776C609.924 62.0542 586.648 70.1931 564.475 73.328Z" stroke="white" stroke-opacity="0.1" stroke-width="2" stroke-miterlimit="10"/>
<path d="M532.566 -206.36C535.22 -186.551 543.681 -166.654 553.865 -147.616C560.469 -135.27 567.829 -123.231 574.816 -111.801C578.593 -105.624 582.26 -99.6245 585.641 -93.8516L585.642 -93.8487C588.886 -88.3567 592.757 -82.2373 596.922 -75.6533C606.89 -59.8943 618.542 -41.4733 627.311 -22.6218C639.757 4.13667 646.174 31.3401 633.986 52.6403M532.566 -206.36C532.566 -206.361 532.566 -206.363 532.565 -206.365L533.607 -206.519L532.566 -206.359C532.566 -206.359 532.566 -206.359 532.566 -206.36ZM532.566 -206.36C531.519 -213.76 531.307 -221.09 532.199 -228.392M532.199 -228.392C532.199 -228.39 532.198 -228.388 532.198 -228.385L533.243 -228.334M532.199 -228.392C533.534 -240.538 538.535 -250.943 543.445 -261.158C544.257 -262.849 545.067 -264.535 545.858 -266.222C551.442 -278.141 556.116 -290.249 554.322 -305.329L554.322 -305.334C552.637 -320.211 540.218 -340.372 521.472 -358.886C502.754 -377.373 477.882 -394.062 451.531 -402.078L451.527 -402.08C450.786 -402.308 450.099 -402.519 449.572 -402.642L449.547 -402.648L449.521 -402.656C429.594 -408.334 413.737 -407.541 399.583 -405.525C356.222 -399.316 316.489 -380.196 302.528 -341.751L302.525 -341.744L302.523 -341.736C300.888 -337.46 296.091 -335.264 289.729 -334.331C282.471 -333.087 272.785 -333.215 262.313 -333.824C256.264 -334.175 249.88 -334.693 243.51 -335.21C238.858 -335.587 234.213 -335.964 229.71 -336.275C218.979 -337.016 208.986 -337.391 201.219 -336.578C197.335 -336.171 194.077 -335.474 191.586 -334.416C189.107 -333.363 187.459 -331.986 186.639 -330.236L186.639 -330.235C181.033 -318.298 179.205 -304.52 179.04 -289.883C178.913 -278.704 179.756 -267.09 180.599 -255.459C180.861 -251.853 181.122 -248.245 181.355 -244.648C182.337 -229.482 182.807 -214.524 180.546 -200.887C178.283 -187.239 173.274 -174.842 163.237 -164.851C146.536 -148.18 136.088 -129.771 127.079 -110.674C124.146 -104.458 121.361 -98.1549 118.558 -91.8145C112.774 -78.7253 106.918 -65.4755 99.55 -52.4949L99.5491 -52.4933C98.0331 -49.8341 95.2881 -47.5282 91.7728 -45.4782C88.2481 -43.4228 83.8641 -41.5759 78.9546 -39.8644C69.9081 -36.7108 58.9268 -33.9672 47.975 -31.2311C47.0476 -30.9994 46.1205 -30.7677 45.1947 -30.5359C33.2973 -27.5565 21.6339 -24.546 12.5393 -20.9714C7.99399 -19.1849 4.14355 -17.2774 1.24506 -15.1951C-1.65392 -13.1124 -3.52848 -10.9075 -4.26203 -8.53329L-4.26324 -8.52937C-8.3953 4.63269 -5.77755 18.6004 1.32296 32.8032C8.42357 47.0062 19.9684 61.3639 33.5438 75.2491C55.3235 97.526 82.2091 118.471 104.101 135.526C109.509 139.739 114.613 143.715 119.259 147.415L119.259 147.415C139.276 163.376 162.234 176.309 185.886 187.464L185.887 187.465C217.162 202.259 252.29 211.489 284.533 209.458C316.718 207.432 346.048 194.192 365.939 163.957C384.471 135.668 401.06 113.866 428.782 100.894L428.785 100.893C440.861 95.2825 454.813 91.3886 472.029 89.4166C488.592 87.2991 505.381 86.8773 522.111 86.457L523.425 86.4239C540.615 85.9909 557.738 85.5126 574.615 83.1744M532.199 -228.392C532.199 -228.393 532.199 -228.395 532.199 -228.396L533.243 -228.334M533.243 -228.334C532.361 -221.116 532.569 -213.861 533.608 -206.52C537.949 -174.104 557.984 -141.332 575.721 -112.321C579.501 -106.137 583.177 -100.125 586.574 -94.3225C589.794 -88.8707 593.649 -82.7765 597.804 -76.2086C621.915 -38.0899 656.119 15.9854 634.915 53.0443M533.243 -228.334C534.559 -240.319 539.486 -250.573 544.397 -260.795C550.937 -274.408 557.449 -287.963 555.367 -305.471C551.93 -335.807 505.01 -386.822 451.906 -402.977C451.178 -403.202 450.45 -403.426 449.878 -403.56C429.752 -409.295 413.722 -408.491 399.464 -406.461C355.915 -400.224 315.678 -380.967 301.531 -342.009C300.105 -338.278 295.864 -336.181 289.591 -335.264L574.615 83.1744M634.915 53.0443L633.988 52.6371C633.988 52.6381 633.987 52.6392 633.986 52.6403M634.915 53.0443C623.946 72.0461 598.683 80.7697 574.73 84.1102L634.915 53.0443ZM633.986 52.6403C623.277 71.188 598.499 79.8435 574.615 83.1744M633.986 52.6403L574.615 83.1744" stroke="white" stroke-opacity="0.1" stroke-width="2" stroke-miterlimit="10"/>
<path d="M171.671 203.715L172.087 203.039C205.316 218.67 242.68 228.504 276.98 226.379C311.221 224.256 342.425 210.222 363.547 178.028C377.639 156.476 390.653 138.538 407.696 125.113C424.776 111.657 445.838 102.781 475.941 99.2156L475.941 99.2155C493.2 97.1785 510.654 96.7991 528.033 96.4213C528.866 96.4032 529.699 96.3851 530.531 96.3668C548.757 95.9665 566.893 95.4808 584.755 93.0207L584.862 93.909L584.756 93.0206C610.095 89.541 636.529 80.4582 648.005 60.5729C661.036 37.9829 654.181 9.04003 640.917 -19.4076C631.572 -39.4506 619.157 -59.0357 608.558 -75.7547C604.13 -82.7387 600.02 -89.2226 596.583 -95.0307L596.582 -95.0327C593.002 -101.119 589.123 -107.438 585.129 -113.944C575.537 -129.57 565.282 -146.277 556.901 -163.44C545.024 -187.761 536.82 -213.161 539.549 -237.992L171.671 203.715ZM171.671 203.715L172.086 203.039C146.927 191.207 122.404 177.366 100.926 160.358L171.671 203.715Z" stroke="white" stroke-opacity="0.1" stroke-width="2" stroke-miterlimit="10"/>
</g>
<g style="mix-blend-mode:luminosity" opacity="0.5">
<path d="M233.966 27.2855C233.966 28.4076 233.053 29.3162 231.926 29.3162C230.798 29.3162 229.885 28.4076 229.885 27.2855C229.885 26.1634 230.798 25.2548 231.926 25.2548C233.053 25.2548 233.966 26.1634 233.966 27.2855Z" fill="url(#paint6_linear_163_3125)"/>
<path d="M213.293 29.359L218.93 31.6397L221.467 22.9192L213.293 29.359Z" fill="url(#paint7_linear_163_3125)"/>
<path d="M197.915 22.0775L202.498 33.7251L220.089 18.3942L197.915 22.0775Z" fill="url(#paint8_linear_163_3125)"/>
<path d="M574.78 34.0936C574.32 35.7176 575.27 37.4053 576.902 37.8633C578.533 38.3213 580.229 37.3762 580.689 35.7522C581.149 34.1282 580.2 32.4404 578.568 31.9823C576.936 31.5243 575.241 32.4696 574.78 34.0936Z" fill="url(#paint9_linear_163_3125)"/>
<path d="M574.526 34.0638C573.979 35.9936 575.108 37.9993 577.046 38.5436C578.985 39.0878 581.001 37.9646 581.547 36.0348C582.094 34.1049 580.966 32.0992 579.027 31.5549C577.088 31.0106 575.073 32.1339 574.526 34.0638Z" fill="url(#paint10_linear_163_3125)"/>
<path d="M572.024 33.3613C571.088 36.6663 573.021 40.1012 576.341 41.0333C579.662 41.9654 583.113 40.0418 584.049 36.7368C584.986 33.4317 583.053 29.9968 579.733 29.0647C576.412 28.1326 572.961 30.0562 572.024 33.3613Z" stroke="url(#paint11_linear_163_3125)" stroke-miterlimit="10"/>
<path d="M545.505 47.5719C544.406 51.4487 546.674 55.4779 550.569 56.5713C554.464 57.6647 558.512 55.4082 559.611 51.5314C560.709 47.6545 558.442 43.6254 554.547 42.532C550.652 41.4386 546.604 43.695 545.505 47.5719Z" fill="url(#paint12_linear_163_3125)"/>
<path d="M519.051 25.5817C518.909 26.0809 519.201 26.5997 519.703 26.7405C520.204 26.8812 520.725 26.5907 520.867 26.0915C521.008 25.5923 520.716 25.0735 520.215 24.9327C519.713 24.7919 519.192 25.0825 519.051 25.5817Z" fill="url(#paint13_linear_163_3125)"/>
<path d="M519.469 53.6036L508.271 47.9196L525.329 32.0013L519.469 53.6036Z" fill="url(#paint14_linear_163_3125)"/>
<path d="M324.459 29.0624C324.459 29.5808 324.036 30.0016 323.515 30.0016C322.995 30.0016 322.572 29.5808 322.572 29.0624C322.572 28.5441 322.995 28.1233 323.515 28.1233C324.036 28.1294 324.459 28.5441 324.459 29.0624Z" fill="url(#paint15_linear_163_3125)"/>
<path d="M327.869 34.7898C327.404 36.428 328.362 38.1305 330.008 38.5925C331.654 39.0545 333.365 38.1011 333.829 36.4629C334.293 34.8247 333.335 33.1222 331.689 32.6602C330.043 32.1981 328.333 33.1516 327.869 34.7898Z" fill="url(#paint16_linear_163_3125)"/>
<path d="M325.745 34.1935C324.95 36.999 326.591 39.9148 329.409 40.706C332.228 41.4972 335.158 39.8643 335.953 37.0588C336.748 34.2533 335.107 31.3376 332.288 30.5464C329.47 29.7551 326.54 31.388 325.745 34.1935Z" stroke="url(#paint17_linear_163_3125)" stroke-miterlimit="10"/>
<path d="M291.424 64.6215C291.424 65.1398 291.001 65.5606 290.48 65.5606C289.959 65.5606 289.537 65.1398 289.537 64.6215C289.537 64.1031 289.959 63.6824 290.48 63.6824C291.001 63.6885 291.424 64.1031 291.424 64.6215Z" fill="url(#paint18_linear_163_3125)"/>
<path d="M281.265 51.8579C282.392 51.8579 283.305 50.9488 283.305 49.8272C283.305 48.7057 282.392 47.7965 281.265 47.7965C280.138 47.7965 279.225 48.7057 279.225 49.8272C279.225 50.9488 280.138 51.8579 281.265 51.8579Z" fill="url(#paint19_linear_163_3125)"/>
<path d="M297.127 37.1002L289.671 42.302L298.641 46.9184L297.127 37.1002Z" fill="url(#paint20_linear_163_3125)"/>
<path d="M626.126 16.117L630.901 23.112" stroke="url(#paint21_linear_163_3125)" stroke-miterlimit="10"/>
<path d="M624.322 17.3461L631.819 28.3316" stroke="url(#paint22_linear_163_3125)" stroke-miterlimit="10"/>
<path d="M619.571 14.2764L627.282 25.5628" stroke="url(#paint23_linear_163_3125)" stroke-miterlimit="10"/>
<g opacity="0.5">
<path opacity="0.5" d="M662.845 29.0038L656.301 18.6977" stroke="url(#paint24_linear_163_3125)" stroke-miterlimit="10"/>
<path opacity="0.5" d="M660.176 30.6822L649.894 14.4966" stroke="url(#paint25_linear_163_3125)" stroke-miterlimit="10"/>
<path opacity="0.5" d="M661.534 38.6924L650.972 22.0606" stroke="url(#paint26_linear_163_3125)" stroke-miterlimit="10"/>
</g>
<path d="M702.698 50.0074C702.698 50.5257 702.275 50.9465 701.754 50.9465C701.233 50.9465 700.811 50.5257 700.811 50.0074C700.811 49.489 701.233 49.0682 701.754 49.0682C702.275 49.0743 702.698 49.489 702.698 50.0074Z" fill="url(#paint27_linear_163_3125)"/>
<path d="M692.539 37.2438C693.666 37.2438 694.579 36.3346 694.579 35.2131C694.579 34.0916 693.666 33.1824 692.539 33.1824C691.412 33.1824 690.499 34.0916 690.499 35.2131C690.499 36.3346 691.412 37.2438 692.539 37.2438Z" fill="url(#paint28_linear_163_3125)"/>
<path d="M708.401 22.4861L700.945 27.6879L709.915 32.3042L708.401 22.4861Z" fill="url(#paint29_linear_163_3125)"/>
<path d="M389.492 64.7314C389.032 66.3554 389.982 68.0431 391.614 68.5012C393.245 68.9592 394.941 68.014 395.401 66.39C395.861 64.766 394.912 63.0782 393.28 62.6202C391.648 62.1621 389.953 63.1074 389.492 64.7314Z" fill="url(#paint30_linear_163_3125)"/>
<path d="M387.387 64.1402C386.599 66.9214 388.226 69.8119 391.02 70.5962C393.814 71.3806 396.719 69.7619 397.507 66.9807C398.295 64.1995 396.668 61.309 393.874 60.5246C391.08 59.7402 388.176 61.359 387.387 64.1402Z" fill="url(#paint31_linear_163_3125)" stroke="url(#paint32_linear_163_3125)" stroke-miterlimit="10"/>
<path d="M381.185 25.6632L388.158 17.3818" stroke="url(#paint33_linear_163_3125)" stroke-miterlimit="10"/>
<path d="M383.324 27.4502L394.285 14.4426" stroke="url(#paint34_linear_163_3125)" stroke-miterlimit="10"/>
<path d="M381.185 34.3229L392.446 20.9617" stroke="url(#paint35_linear_163_3125)" stroke-miterlimit="10"/>
<path d="M441.021 47.0064C441.021 47.5247 440.599 47.9455 440.078 47.9455C439.557 47.9455 439.134 47.5247 439.134 47.0064C439.134 46.488 439.557 46.0673 440.078 46.0673C440.599 46.0734 441.021 46.488 441.021 47.0064Z" fill="url(#paint36_linear_163_3125)"/>
<path d="M428.075 55.2878C428.075 56.4099 427.162 57.3185 426.035 57.3185C424.908 57.3185 423.995 56.4099 423.995 55.2878C423.995 54.1657 424.908 53.2571 426.035 53.2571C427.162 53.2571 428.075 54.1657 428.075 55.2878Z" fill="url(#paint37_linear_163_3125)"/>
<path d="M407.182 30.6147C406.097 30.3101 405.466 29.189 405.772 28.109C406.078 27.0291 407.204 26.4012 408.289 26.7057C409.374 27.0103 410.005 28.1315 409.699 29.2114C409.399 30.293 408.267 30.9192 407.182 30.6147Z" fill="url(#paint38_linear_163_3125)"/>
<path d="M456.832 60.5598L462.334 53.3414L452.379 51.6748L456.832 60.5598Z" fill="url(#paint39_linear_163_3125)"/>
</g>
<defs>
<linearGradient id="paint0_linear_163_3125" x1="1053.11" y1="68.8041" x2="1054.72" y2="60.2094" gradientUnits="userSpaceOnUse">
<stop offset="0.0277" stop-color="#FFD24D"/>
<stop offset="0.7154" stop-color="#F6BE56"/>
<stop offset="1" stop-color="#F2B45A"/>
</linearGradient>
<linearGradient id="paint1_linear_163_3125" x1="1053.27" y1="66.7019" x2="1055.75" y2="53.529" gradientUnits="userSpaceOnUse">
<stop offset="0.0277" stop-color="#FFD24D"/>
<stop offset="0.7154" stop-color="#F6BE56"/>
<stop offset="1" stop-color="#F2B45A"/>
</linearGradient>
<linearGradient id="paint2_linear_163_3125" x1="1059.57" y1="70.8471" x2="1062.11" y2="57.329" gradientUnits="userSpaceOnUse">
<stop offset="0.0277" stop-color="#FFD24D"/>
<stop offset="0.7154" stop-color="#F6BE56"/>
<stop offset="1" stop-color="#F2B45A"/>
</linearGradient>
<linearGradient id="paint3_linear_163_3125" x1="1005.58" y1="57.3968" x2="1017.66" y2="60.1282" gradientUnits="userSpaceOnUse">
<stop offset="0.0277" stop-color="#FFD24D"/>
<stop offset="0.7154" stop-color="#F6BE56"/>
<stop offset="1" stop-color="#F2B45A"/>
</linearGradient>
<linearGradient id="paint4_linear_163_3125" x1="1008.48" y1="58.3834" x2="1027.12" y2="62.6004" gradientUnits="userSpaceOnUse">
<stop offset="0.0277" stop-color="#FFD24D"/>
<stop offset="0.7154" stop-color="#F6BE56"/>
<stop offset="1" stop-color="#F2B45A"/>
</linearGradient>
<linearGradient id="paint5_linear_163_3125" x1="1006.57" y1="47.7202" x2="1025.71" y2="52.0491" gradientUnits="userSpaceOnUse">
<stop offset="0.0277" stop-color="#FFD24D"/>
<stop offset="0.7154" stop-color="#F6BE56"/>
<stop offset="1" stop-color="#F2B45A"/>
</linearGradient>
<linearGradient id="paint6_linear_163_3125" x1="229.885" y1="27.2856" x2="233.966" y2="27.2856" gradientUnits="userSpaceOnUse">
<stop offset="0.0277" stop-color="#FFD24D"/>
<stop offset="0.7154" stop-color="#FFBE56"/>
<stop offset="1" stop-color="#FFB45A"/>
</linearGradient>
<linearGradient id="paint7_linear_163_3125" x1="213.293" y1="27.2798" x2="221.467" y2="27.2798" gradientUnits="userSpaceOnUse">
<stop offset="0.0277" stop-color="#FFD24D"/>
<stop offset="0.7154" stop-color="#FFBE56"/>
<stop offset="1" stop-color="#FFB45A"/>
</linearGradient>
<linearGradient id="paint8_linear_163_3125" x1="197.914" y1="26.0603" x2="220.089" y2="26.0603" gradientUnits="userSpaceOnUse">
<stop offset="0.0277" stop-color="#FFD24D"/>
<stop offset="0.7154" stop-color="#FFBE56"/>
<stop offset="1" stop-color="#FFB45A"/>
</linearGradient>
<linearGradient id="paint9_linear_163_3125" x1="578.568" y1="31.982" x2="576.916" y2="37.8673" gradientUnits="userSpaceOnUse">
<stop offset="0.0277" stop-color="#FFD24D"/>
<stop offset="0.7154" stop-color="#FFBE56"/>
<stop offset="1" stop-color="#FFB45A"/>
</linearGradient>
<linearGradient id="paint10_linear_163_3125" x1="579.023" y1="31.5571" x2="577.062" y2="38.5438" gradientUnits="userSpaceOnUse">
<stop offset="0.0277" stop-color="#FFD24D"/>
<stop offset="0.7154" stop-color="#F6BE56"/>
<stop offset="1" stop-color="#F2B45A"/>
</linearGradient>
<linearGradient id="paint11_linear_163_3125" x1="579.829" y1="28.7128" x2="576.27" y2="41.3915" gradientUnits="userSpaceOnUse">
<stop offset="0.0277" stop-color="#FFD24D"/>
<stop offset="0.7154" stop-color="#F6BE56"/>
<stop offset="1" stop-color="#F2B45A"/>
</linearGradient>
<linearGradient id="paint12_linear_163_3125" x1="554.546" y1="42.5313" x2="550.603" y2="56.5808" gradientUnits="userSpaceOnUse">
<stop offset="0.0277" stop-color="#FFD24D"/>
<stop offset="0.7154" stop-color="#FFBE56"/>
<stop offset="1" stop-color="#FFB45A"/>
</linearGradient>
<linearGradient id="paint13_linear_163_3125" x1="520.215" y1="24.9326" x2="519.707" y2="26.7417" gradientUnits="userSpaceOnUse">
<stop offset="0.0277" stop-color="#FFD24D"/>
<stop offset="0.7154" stop-color="#FFBE56"/>
<stop offset="1" stop-color="#FFB45A"/>
</linearGradient>
<linearGradient id="paint14_linear_163_3125" x1="519.638" y1="30.403" x2="513.589" y2="51.9531" gradientUnits="userSpaceOnUse">
<stop offset="0.0277" stop-color="#FFD24D"/>
<stop offset="0.7154" stop-color="#FFBE56"/>
<stop offset="1" stop-color="#FFB45A"/>
</linearGradient>
<linearGradient id="paint15_linear_163_3125" x1="322.572" y1="29.0625" x2="324.459" y2="29.0625" gradientUnits="userSpaceOnUse">
<stop offset="0.0277" stop-color="#FFD24D"/>
<stop offset="0.7154" stop-color="#FFBE56"/>
<stop offset="1" stop-color="#FFB45A"/>
</linearGradient>
<linearGradient id="paint16_linear_163_3125" x1="331.686" y1="32.662" x2="330.021" y2="38.5927" gradientUnits="userSpaceOnUse">
<stop offset="0.0277" stop-color="#FFD24D"/>
<stop offset="0.7154" stop-color="#F6BE56"/>
<stop offset="1" stop-color="#F2B45A"/>
</linearGradient>
<linearGradient id="paint17_linear_163_3125" x1="332.37" y1="30.2476" x2="329.349" y2="41.01" gradientUnits="userSpaceOnUse">
<stop offset="0.0277" stop-color="#FFD24D"/>
<stop offset="0.7154" stop-color="#F6BE56"/>
<stop offset="1" stop-color="#F2B45A"/>
</linearGradient>
<linearGradient id="paint18_linear_163_3125" x1="289.537" y1="64.6216" x2="291.424" y2="64.6216" gradientUnits="userSpaceOnUse">
<stop offset="0.0277" stop-color="#FFD24D"/>
<stop offset="0.7154" stop-color="#FFBE56"/>
<stop offset="1" stop-color="#FFB45A"/>
</linearGradient>
<linearGradient id="paint19_linear_163_3125" x1="279.224" y1="49.8274" x2="283.305" y2="49.8274" gradientUnits="userSpaceOnUse">
<stop offset="0.0277" stop-color="#FFD24D"/>
<stop offset="0.7154" stop-color="#FFBE56"/>
<stop offset="1" stop-color="#FFB45A"/>
</linearGradient>
<linearGradient id="paint20_linear_163_3125" x1="289.671" y1="42.0097" x2="298.641" y2="42.0097" gradientUnits="userSpaceOnUse">
<stop offset="0.0277" stop-color="#FFD24D"/>
<stop offset="0.7154" stop-color="#FFBE56"/>
<stop offset="1" stop-color="#FFB45A"/>
</linearGradient>
<linearGradient id="paint21_linear_163_3125" x1="629.117" y1="16.463" x2="627.931" y2="22.7728" gradientUnits="userSpaceOnUse">
<stop offset="0.0277" stop-color="#FFD24D"/>
<stop offset="0.7154" stop-color="#F6BE56"/>
<stop offset="1" stop-color="#F2B45A"/>
</linearGradient>
<linearGradient id="paint22_linear_163_3125" x1="628.996" y1="18.0062" x2="627.177" y2="27.6771" gradientUnits="userSpaceOnUse">
<stop offset="0.0277" stop-color="#FFD24D"/>
<stop offset="0.7154" stop-color="#F6BE56"/>
<stop offset="1" stop-color="#F2B45A"/>
</linearGradient>
<linearGradient id="paint23_linear_163_3125" x1="624.375" y1="14.9632" x2="622.509" y2="24.8875" gradientUnits="userSpaceOnUse">
<stop offset="0.0277" stop-color="#FFD24D"/>
<stop offset="0.7154" stop-color="#F6BE56"/>
<stop offset="1" stop-color="#F2B45A"/>
</linearGradient>
<linearGradient id="paint24_linear_163_3125" x1="664.007" y1="24.8375" x2="655.142" y2="22.8322" gradientUnits="userSpaceOnUse">
<stop offset="0.0277" stop-color="#FFD24D"/>
<stop offset="0.7154" stop-color="#F6BE56"/>
<stop offset="1" stop-color="#F2B45A"/>
</linearGradient>
<linearGradient id="paint25_linear_163_3125" x1="661.881" y1="24.1131" x2="648.195" y2="21.0172" gradientUnits="userSpaceOnUse">
<stop offset="0.0277" stop-color="#FFD24D"/>
<stop offset="0.7154" stop-color="#F6BE56"/>
<stop offset="1" stop-color="#F2B45A"/>
</linearGradient>
<linearGradient id="paint26_linear_163_3125" x1="663.282" y1="31.9416" x2="649.232" y2="28.7635" gradientUnits="userSpaceOnUse">
<stop offset="0.0277" stop-color="#FFD24D"/>
<stop offset="0.7154" stop-color="#F6BE56"/>
<stop offset="1" stop-color="#F2B45A"/>
</linearGradient>
<linearGradient id="paint27_linear_163_3125" x1="700.81" y1="50.0074" x2="702.698" y2="50.0074" gradientUnits="userSpaceOnUse">
<stop offset="0.0277" stop-color="#FFD24D"/>
<stop offset="0.7154" stop-color="#FFBE56"/>
<stop offset="1" stop-color="#FFB45A"/>
</linearGradient>
<linearGradient id="paint28_linear_163_3125" x1="690.498" y1="35.2132" x2="694.579" y2="35.2132" gradientUnits="userSpaceOnUse">
<stop offset="0.0277" stop-color="#FFD24D"/>
<stop offset="0.7154" stop-color="#FFBE56"/>
<stop offset="1" stop-color="#FFB45A"/>
</linearGradient>
<linearGradient id="paint29_linear_163_3125" x1="700.944" y1="27.3956" x2="709.915" y2="27.3956" gradientUnits="userSpaceOnUse">
<stop offset="0.0277" stop-color="#FFD24D"/>
<stop offset="0.7154" stop-color="#FFBE56"/>
<stop offset="1" stop-color="#FFB45A"/>
</linearGradient>
<linearGradient id="paint30_linear_163_3125" x1="393.28" y1="62.6199" x2="391.628" y2="68.5052" gradientUnits="userSpaceOnUse">
<stop offset="0.0277" stop-color="#FFD24D"/>
<stop offset="0.7154" stop-color="#FFBE56"/>
<stop offset="1" stop-color="#FFB45A"/>
</linearGradient>
<linearGradient id="paint31_linear_163_3125" x1="393.874" y1="60.5241" x2="391.044" y2="70.6031" gradientUnits="userSpaceOnUse">
<stop offset="0.0277" stop-color="#FFD24D"/>
<stop offset="0.7154" stop-color="#FFBE56"/>
<stop offset="1" stop-color="#FFB45A"/>
</linearGradient>
<linearGradient id="paint32_linear_163_3125" x1="393.955" y1="60.2285" x2="390.96" y2="70.8976" gradientUnits="userSpaceOnUse">
<stop offset="0.0277" stop-color="#FFD24D"/>
<stop offset="0.7154" stop-color="#F6BE56"/>
<stop offset="1" stop-color="#F2B45A"/>
</linearGradient>
<linearGradient id="paint33_linear_163_3125" x1="380.632" y1="21.8752" x2="388.71" y2="21.1639" gradientUnits="userSpaceOnUse">
<stop offset="0.0277" stop-color="#FFD24D"/>
<stop offset="0.7154" stop-color="#F6BE56"/>
<stop offset="1" stop-color="#F2B45A"/>
</linearGradient>
<linearGradient id="paint34_linear_163_3125" x1="382.583" y1="21.4905" x2="395.028" y2="20.3948" gradientUnits="userSpaceOnUse">
<stop offset="0.0277" stop-color="#FFD24D"/>
<stop offset="0.7154" stop-color="#F6BE56"/>
<stop offset="1" stop-color="#F2B45A"/>
</linearGradient>
<linearGradient id="paint35_linear_163_3125" x1="380.426" y1="28.1996" x2="393.2" y2="27.0748" gradientUnits="userSpaceOnUse">
<stop offset="0.0277" stop-color="#FFD24D"/>
<stop offset="0.7154" stop-color="#F6BE56"/>
<stop offset="1" stop-color="#F2B45A"/>
</linearGradient>
<linearGradient id="paint36_linear_163_3125" x1="439.134" y1="47.0065" x2="441.021" y2="47.0065" gradientUnits="userSpaceOnUse">
<stop offset="0.0277" stop-color="#FFD24D"/>
<stop offset="0.7154" stop-color="#FFBE56"/>
<stop offset="1" stop-color="#FFB45A"/>
</linearGradient>
<linearGradient id="paint37_linear_163_3125" x1="423.994" y1="55.288" x2="428.075" y2="55.288" gradientUnits="userSpaceOnUse">
<stop offset="0.0277" stop-color="#FFD24D"/>
<stop offset="0.7154" stop-color="#FFBE56"/>
<stop offset="1" stop-color="#FFB45A"/>
</linearGradient>
<linearGradient id="paint38_linear_163_3125" x1="408.289" y1="26.7055" x2="407.191" y2="30.6173" gradientUnits="userSpaceOnUse">
<stop offset="0.0277" stop-color="#FFD24D"/>
<stop offset="0.7154" stop-color="#FFBE56"/>
<stop offset="1" stop-color="#FFB45A"/>
</linearGradient>
<linearGradient id="paint39_linear_163_3125" x1="457.504" y1="51.9853" x2="455.224" y2="60.1084" gradientUnits="userSpaceOnUse">
<stop offset="0.0277" stop-color="#FFD24D"/>
<stop offset="0.7154" stop-color="#FFBE56"/>
<stop offset="1" stop-color="#FFB45A"/>
</linearGradient>
</defs>
</svg>
