<svg width="37" height="37" viewBox="0 0 37 37" fill="none" xmlns="http://www.w3.org/2000/svg">
<circle cx="18.6104" cy="18.5" r="18" fill="#FFF1DB"/>
<path d="M9.83501 17.135V21.0789C9.83434 21.8611 10.0428 22.6293 10.4388 23.3038C10.8348 23.9784 11.4039 24.5348 12.0873 24.9155L12.76 25.2909V26.7875C12.76 26.9168 12.8114 27.0408 12.9028 27.1322C12.9942 27.2236 13.1182 27.275 13.2475 27.275H17.1475C17.2768 27.275 17.4008 27.2236 17.4922 27.1322C17.5836 27.0408 17.635 26.9168 17.635 26.7875V23.1361C17.635 21.8296 17.5278 21.347 16.8209 20.6352L15.6168 19.4262C15.3229 19.1507 14.9435 18.984 14.5418 18.9539C14.1401 18.9237 13.7401 19.0319 13.4084 19.2605L12.9209 16.823C12.8524 16.4366 12.6405 16.0904 12.3275 15.8538C12.0145 15.6171 11.6236 15.5076 11.2332 15.547C10.8428 15.5865 10.4817 15.7721 10.2224 16.0666C9.96311 16.3611 9.82473 16.7427 9.83501 17.135ZM11.9654 17.0375L12.7015 20.7035C12.7015 20.762 12.7015 20.8156 12.7015 20.8741C12.6991 20.9212 12.6991 20.9684 12.7015 21.0155C12.7015 21.0789 12.7405 21.1422 12.76 21.2056L12.799 21.3226C12.8316 21.3934 12.869 21.4618 12.9111 21.5274C12.9239 21.5544 12.9385 21.5804 12.955 21.6054C13.0148 21.6964 13.0834 21.7813 13.1598 21.8589L14.3249 23.024C14.4167 23.1158 14.5412 23.1674 14.671 23.1674C14.8008 23.1674 14.9253 23.1158 15.0171 23.024C15.1089 22.9322 15.1605 22.8077 15.1605 22.6779C15.1605 22.5481 15.1089 22.4235 15.0171 22.3317L13.852 21.1666C13.7151 21.0295 13.6382 20.8437 13.6382 20.6499C13.6382 20.4561 13.7151 20.2702 13.852 20.1331C13.9909 19.9997 14.1761 19.9251 14.3688 19.9251C14.5614 19.9251 14.7466 19.9997 14.8855 20.1331L16.0896 21.3421C16.5333 21.7857 16.621 21.971 16.621 23.1507V26.3H13.735V25.0032C13.7349 24.9169 13.7118 24.8321 13.6681 24.7575C13.6244 24.683 13.5617 24.6215 13.4864 24.5791L12.565 24.0916C12.0286 23.7936 11.5825 23.3565 11.2737 22.8263C10.9648 22.2961 10.8047 21.6924 10.81 21.0789V17.135C10.8171 16.9936 10.8752 16.8595 10.9736 16.7577C11.072 16.6559 11.204 16.5932 11.3451 16.5813C11.4862 16.5694 11.6268 16.6091 11.7409 16.693C11.8549 16.7769 11.9347 16.8993 11.9654 17.0375ZM25.825 15.575C25.4647 15.574 25.1153 15.6985 24.8368 15.9271C24.5584 16.1558 24.3682 16.4743 24.2991 16.8279L23.8116 19.2654C23.4802 19.0359 23.0801 18.9272 22.6781 18.9573C22.2761 18.9875 21.8967 19.1548 21.6033 19.4311L20.3991 20.6401C19.6923 21.347 19.585 21.8296 19.585 23.1361V26.7875C19.585 26.9168 19.6364 27.0408 19.7278 27.1322C19.8192 27.2236 19.9432 27.275 20.0725 27.275H23.9725C24.1018 27.275 24.2258 27.2236 24.3172 27.1322C24.4086 27.0408 24.46 26.9168 24.46 26.7875V25.2909L25.1328 24.9155C25.8161 24.5348 26.3852 23.9784 26.7812 23.3038C27.1772 22.6293 27.3857 21.8611 27.385 21.0789V17.135C27.3837 16.7217 27.219 16.3256 26.9267 16.0333C26.6344 15.7411 26.2383 15.5763 25.825 15.575ZM26.41 21.0789C26.411 21.6883 26.2487 22.2869 25.9401 22.8124C25.6315 23.3379 25.1877 23.7712 24.655 24.0672L23.7336 24.5547C23.6583 24.5971 23.5956 24.6587 23.5519 24.7332C23.5083 24.8077 23.4852 24.8925 23.485 24.9789V26.3H20.56V23.1361C20.56 21.9564 20.6478 21.7711 21.0914 21.3275L22.2955 20.1185C22.4344 19.985 22.6196 19.9105 22.8123 19.9105C23.0049 19.9105 23.1901 19.985 23.329 20.1185C23.4659 20.2556 23.5429 20.4415 23.5429 20.6352C23.5429 20.829 23.4659 21.0149 23.329 21.152L22.1639 22.3171C22.0721 22.4089 22.0205 22.5334 22.0205 22.6632C22.0205 22.7931 22.0721 22.9176 22.1639 23.0094C22.2557 23.1012 22.3802 23.1527 22.51 23.1527C22.6398 23.1527 22.7643 23.1012 22.8561 23.0094L24.0213 21.8442C24.0959 21.7651 24.1644 21.6804 24.226 21.5907C24.2441 21.5609 24.2604 21.53 24.2748 21.4981C24.3136 21.4374 24.3479 21.3739 24.3771 21.308C24.3939 21.2682 24.4086 21.2275 24.421 21.1861C24.421 21.1227 24.46 21.0642 24.4746 20.996C24.4773 20.9473 24.4773 20.8985 24.4746 20.8497C24.4746 20.7961 24.4746 20.7474 24.4746 20.6937L25.2546 17.0375C25.2853 16.8993 25.3651 16.7769 25.4791 16.693C25.5932 16.6091 25.7338 16.5694 25.8749 16.5813C26.016 16.5932 26.148 16.6559 26.2464 16.7577C26.3448 16.8595 26.4029 16.9936 26.41 17.135V21.0789ZM18.2688 20.3086C18.3599 20.3979 18.4824 20.448 18.61 20.448C18.7376 20.448 18.8601 20.3979 18.9513 20.3086L23.9725 15.3507C24.2794 15.0462 24.523 14.684 24.6892 14.2849C24.8554 13.8858 24.941 13.4577 24.941 13.0254C24.941 12.593 24.8554 12.165 24.6892 11.7659C24.523 11.3668 24.2794 11.0045 23.9725 10.7C23.3448 10.0854 22.5012 9.74127 21.6228 9.74127C20.7443 9.74127 19.9007 10.0854 19.273 10.7L18.61 11.3386L17.947 10.7C17.3193 10.0854 16.4757 9.74127 15.5973 9.74127C14.7188 9.74127 13.8752 10.0854 13.2475 10.7C12.9384 11.0048 12.693 11.3679 12.5255 11.7684C12.3579 12.1689 12.2717 12.5986 12.2717 13.0327C12.2717 13.4668 12.3579 13.8965 12.5255 14.297C12.693 14.6974 12.9384 15.0606 13.2475 15.3654L18.2688 20.3086ZM13.9349 11.3825C14.3789 10.9457 14.9768 10.701 15.5997 10.701C16.2225 10.701 16.8205 10.9457 17.2645 11.3825L18.2688 12.3575C18.3599 12.4468 18.4824 12.4969 18.61 12.4969C18.7376 12.4969 18.8601 12.4468 18.9513 12.3575L19.9555 11.3825C20.4002 10.9469 20.9978 10.7029 21.6203 10.7029C22.2428 10.7029 22.8405 10.9469 23.2851 11.3825C23.5025 11.5958 23.6753 11.8503 23.7932 12.1311C23.911 12.412 23.9718 12.7135 23.9718 13.0181C23.9718 13.3226 23.911 13.6242 23.7932 13.905C23.6753 14.1858 23.5025 14.4403 23.2851 14.6536L18.61 19.2751L13.9349 14.6536C13.7175 14.4403 13.5448 14.1858 13.4269 13.905C13.309 13.6242 13.2482 13.3226 13.2482 13.0181C13.2482 12.7135 13.309 12.412 13.4269 12.1311C13.5448 11.8503 13.7175 11.5958 13.9349 11.3825Z" fill="#DB9930"/>
<path d="M17.1477 15.575H18.1227V16.55C18.1227 16.6793 18.174 16.8033 18.2654 16.8947C18.3569 16.9862 18.4809 17.0375 18.6102 17.0375C18.7394 17.0375 18.8634 16.9862 18.9549 16.8947C19.0463 16.8033 19.0977 16.6793 19.0977 16.55V15.575H20.0727C20.2019 15.575 20.3259 15.5237 20.4174 15.4322C20.5088 15.3408 20.5602 15.2168 20.5602 15.0875C20.5602 14.9582 20.5088 14.8342 20.4174 14.7428C20.3259 14.6514 20.2019 14.6 20.0727 14.6H19.0977V13.625C19.0977 13.4957 19.0463 13.3717 18.9549 13.2803C18.8634 13.1889 18.7394 13.1375 18.6102 13.1375C18.4809 13.1375 18.3569 13.1889 18.2654 13.2803C18.174 13.3717 18.1227 13.4957 18.1227 13.625V14.6H17.1477C17.0184 14.6 16.8944 14.6514 16.8029 14.7428C16.7115 14.8342 16.6602 14.9582 16.6602 15.0875C16.6602 15.2168 16.7115 15.3408 16.8029 15.4322C16.8944 15.5237 17.0184 15.575 17.1477 15.575Z" fill="#DB9930"/>
</svg>
