<svg width="37" height="37" viewBox="0 0 37 37" fill="none" xmlns="http://www.w3.org/2000/svg">
<circle cx="18.7881" cy="18.5" r="18" fill="#FFF2F2"/>
<path d="M26.5878 24.35V13.625C26.5878 11.7725 25.3203 10.31 23.6628 9.8225V9.725C23.6628 9.14 23.2728 8.75 22.6878 8.75C22.1028 8.75 21.7128 9.14 21.7128 9.725H19.7628C19.7628 9.14 19.3728 8.75 18.7878 8.75C18.2028 8.75 17.8128 9.14 17.8128 9.725H15.8628C15.8628 9.14 15.4728 8.75 14.8878 8.75C14.3028 8.75 13.9128 9.14 13.9128 9.725V9.8225C12.2553 10.31 10.9878 11.7725 10.9878 13.625V24.35C10.9878 26.495 12.7428 28.25 14.8878 28.25H22.6878C24.8328 28.25 26.5878 26.495 26.5878 24.35ZM24.6378 24.35C24.6378 25.4225 23.7603 26.3 22.6878 26.3H14.8878C13.8153 26.3 12.9378 25.4225 12.9378 24.35V13.625C12.9378 12.845 13.3278 12.26 14.0103 11.9675C14.1078 12.3575 14.4003 12.65 14.8878 12.65C15.4728 12.65 15.8628 12.26 15.8628 11.675H17.8128C17.8128 12.26 18.2028 12.65 18.7878 12.65C19.3728 12.65 19.7628 12.26 19.7628 11.675H21.7128C21.7128 12.26 22.1028 12.65 22.6878 12.65C23.1753 12.65 23.4678 12.3575 23.5653 11.9675C24.2478 12.26 24.6378 12.845 24.6378 13.625V24.35Z" fill="#C44F4F"/>
<path d="M17.8127 20.45H15.8627C15.2777 20.45 14.8877 20.84 14.8877 21.425C14.8877 22.01 15.2777 22.4 15.8627 22.4H17.8127C18.3977 22.4 18.7877 22.01 18.7877 21.425C18.7877 20.84 18.3977 20.45 17.8127 20.45ZM20.7377 16.55H15.8627C15.2777 16.55 14.8877 16.94 14.8877 17.525C14.8877 18.11 15.2777 18.5 15.8627 18.5H20.7377C21.3227 18.5 21.7127 18.11 21.7127 17.525C21.7127 16.94 21.3227 16.55 20.7377 16.55Z" fill="#C44F4F"/>
</svg>
