<svg width="37" height="37" viewBox="0 0 37 37" fill="none" xmlns="http://www.w3.org/2000/svg">
<circle cx="18.6104" cy="18.5" r="18" fill="#F2F7FF"/>
<path d="M25.3605 15.233V25.7C25.3603 26.2967 25.1232 26.8688 24.7013 27.2907C24.2794 27.7126 23.7072 27.9498 23.1105 27.95H12.3105C11.7139 27.9498 11.1417 27.7126 10.7198 27.2907C10.2979 26.8688 10.0608 26.2967 10.0605 25.7V11.3C10.0608 10.7033 10.2979 10.1311 10.7198 9.70923C11.1417 9.28732 11.7139 9.0502 12.3105 9.04999H19.2675C19.3489 9.04925 19.4302 9.05527 19.5105 9.06799C20.0274 9.12261 20.5093 9.3548 20.874 9.72499L24.7216 13.658C25.0522 13.9965 25.2665 14.4315 25.3335 14.9C25.3516 15.0101 25.3607 15.1214 25.3605 15.233Z" fill="#F2F7FF"/>
<path d="M16.8103 13.55H13.2103C13.0909 13.55 12.9764 13.5026 12.8921 13.4182C12.8077 13.3338 12.7603 13.2194 12.7603 13.1C12.7603 12.9807 12.8077 12.8662 12.8921 12.7818C12.9764 12.6974 13.0909 12.65 13.2103 12.65H16.8103C16.9296 12.65 17.0441 12.6974 17.1285 12.7818C17.2128 12.8662 17.2603 12.9807 17.2603 13.1C17.2603 13.2194 17.2128 13.3338 17.1285 13.4182C17.0441 13.5026 16.9296 13.55 16.8103 13.55ZM19.5103 16.25H13.2103C13.0909 16.25 12.9764 16.2026 12.8921 16.1182C12.8077 16.0338 12.7603 15.9194 12.7603 15.8C12.7603 15.6807 12.8077 15.5662 12.8921 15.4818C12.9764 15.3974 13.0909 15.35 13.2103 15.35H19.5103C19.6296 15.35 19.7441 15.3974 19.8285 15.4818C19.9128 15.5662 19.9603 15.6807 19.9603 15.8C19.9603 15.9194 19.9128 16.0338 19.8285 16.1182C19.7441 16.2026 19.6296 16.25 19.5103 16.25ZM20.4103 18.95H13.2103C13.0909 18.95 12.9764 18.9026 12.8921 18.8182C12.8077 18.7338 12.7603 18.6194 12.7603 18.5C12.7603 18.3807 12.8077 18.2662 12.8921 18.1818C12.9764 18.0974 13.0909 18.05 13.2103 18.05H20.4103C20.5296 18.05 20.6441 18.0974 20.7285 18.1818C20.8128 18.2662 20.8603 18.3807 20.8603 18.5C20.8603 18.6194 20.8128 18.7338 20.7285 18.8182C20.6441 18.9026 20.5296 18.95 20.4103 18.95ZM17.7103 21.65H13.2103C13.0909 21.65 12.9764 21.6026 12.8921 21.5182C12.8077 21.4338 12.7603 21.3194 12.7603 21.2C12.7603 21.0807 12.8077 20.9662 12.8921 20.8818C12.9764 20.7974 13.0909 20.75 13.2103 20.75H17.7103C17.8296 20.75 17.9441 20.7974 18.0285 20.8818C18.1128 20.9662 18.1603 21.0807 18.1603 21.2C18.1603 21.3194 18.1128 21.4338 18.0285 21.5182C17.9441 21.6026 17.8296 21.65 17.7103 21.65ZM17.7103 24.35H13.2103C13.0909 24.35 12.9764 24.3026 12.8921 24.2182C12.8077 24.1338 12.7603 24.0194 12.7603 23.9C12.7603 23.7807 12.8077 23.6662 12.8921 23.5818C12.9764 23.4974 13.0909 23.45 13.2103 23.45H17.7103C17.8296 23.45 17.9441 23.4974 18.0285 23.5818C18.1128 23.6662 18.1603 23.7807 18.1603 23.9C18.1603 24.0194 18.1128 24.1338 18.0285 24.2182C17.9441 24.3026 17.8296 24.35 17.7103 24.35Z" fill="#4C7CBE"/>
<path d="M25.3335 14.9H21.7606C21.1639 14.8998 20.5917 14.6627 20.1698 14.2407C19.7479 13.8188 19.5108 13.2467 19.5106 12.65V9.06799C20.0274 9.12261 20.5093 9.35481 20.8741 9.72499L24.7216 13.658C25.0522 13.9966 25.2665 14.4315 25.3335 14.9ZM28.2671 19.5099C26.9307 19.1403 25.6593 18.5667 24.4979 17.8092C24.3525 17.7156 24.1833 17.6655 24.0105 17.6656C23.8376 17.6657 23.6685 17.7155 23.5232 17.8092C22.362 18.5666 21.0908 19.1401 19.7545 19.5094C19.5574 19.5563 19.3818 19.6682 19.2559 19.8269C19.1301 19.9857 19.0612 20.1822 19.0606 20.3848V21.1534C19.0594 22.2649 19.3332 23.3593 19.8577 24.3393C20.3821 25.3192 21.1409 26.1541 22.0664 26.7696L23.5109 27.7325C23.6585 27.8318 23.8324 27.8849 24.0103 27.885C24.1882 27.8851 24.3621 27.8321 24.5098 27.7329L25.9547 26.7696C26.8802 26.1541 27.639 25.3192 28.1634 24.3393C28.6879 23.3593 28.9617 22.2649 28.9606 21.1534V20.3848C28.96 20.1823 28.8912 19.9859 28.7655 19.8272C28.6397 19.6684 28.4641 19.5567 28.2671 19.5099Z" fill="#4C7CBE"/>
<path d="M23.5604 23.9C23.5013 23.9001 23.4428 23.8885 23.3882 23.8659C23.3336 23.8432 23.284 23.81 23.2423 23.7682L22.3423 22.8682C22.2592 22.7835 22.2128 22.6695 22.2134 22.5509C22.2139 22.4322 22.2613 22.3186 22.3452 22.2347C22.4291 22.1509 22.5427 22.1035 22.6613 22.103C22.7799 22.1024 22.894 22.1488 22.9786 22.2319L23.5604 22.8137L25.0423 21.3318C25.084 21.2896 25.1336 21.2561 25.1883 21.2331C25.243 21.2102 25.3017 21.1982 25.361 21.1981C25.4204 21.1979 25.4791 21.2094 25.534 21.232C25.5888 21.2547 25.6387 21.2879 25.6806 21.3299C25.7226 21.3718 25.7558 21.4216 25.7784 21.4765C25.801 21.5313 25.8126 21.5901 25.8124 21.6494C25.8122 21.7088 25.8003 21.7675 25.7773 21.8222C25.7544 21.8769 25.7208 21.9265 25.6786 21.9682L23.8786 23.7682C23.8369 23.81 23.7873 23.8432 23.7327 23.8659C23.6781 23.8885 23.6196 23.9001 23.5604 23.9Z" fill="#F2F7FF"/>
<path d="M23.1105 27.95H12.3105C11.714 27.9493 11.1421 27.712 10.7203 27.2902C10.2985 26.8684 10.0612 26.2965 10.0605 25.7V11.3C10.0612 10.7035 10.2985 10.1316 10.7203 9.70977C11.1421 9.28797 11.714 9.05069 12.3105 9.04999H19.2675C19.5673 9.05018 19.8641 9.11009 20.1404 9.22621C20.4168 9.34233 20.6673 9.51233 20.8773 9.72631L24.7194 13.6585C25.1312 14.0791 25.3614 14.6445 25.3605 15.2331V18.5857C25.3605 18.705 25.3131 18.8195 25.2287 18.9039C25.1444 18.9883 25.0299 19.0357 24.9105 19.0357C24.7912 19.0357 24.6767 18.9883 24.5923 18.9039C24.508 18.8195 24.4605 18.705 24.4605 18.5857V15.2331C24.4611 14.8794 24.3227 14.5396 24.0751 14.287L20.233 10.3547C20.1071 10.2265 19.9568 10.1246 19.791 10.0552C19.6253 9.98566 19.4473 9.94991 19.2675 9.94999H12.3105C11.9526 9.95038 11.6095 10.0927 11.3564 10.3458C11.1033 10.5989 10.9609 10.9421 10.9605 11.3V25.7C10.9609 26.0579 11.1033 26.4011 11.3564 26.6542C11.6095 26.9072 11.9526 27.0496 12.3105 27.05H23.1105C23.2801 27.0506 23.448 27.0179 23.6049 26.9537C23.6595 26.9311 23.7181 26.9195 23.7771 26.9195C23.8362 26.9196 23.8947 26.9312 23.9493 26.9539C24.0039 26.9765 24.0535 27.0097 24.0953 27.0515C24.137 27.0933 24.1701 27.1429 24.1927 27.1975C24.2153 27.2522 24.2269 27.3107 24.2268 27.3698C24.2268 27.4289 24.2151 27.4874 24.1924 27.542C24.1697 27.5965 24.1365 27.6461 24.0947 27.6878C24.0529 27.7296 24.0032 27.7627 23.9486 27.7852C23.6828 27.8948 23.398 27.9508 23.1105 27.95Z" fill="#4C7CBE"/>
<path d="M22.926 14.9H21.7606C21.164 14.8993 20.5921 14.662 20.1703 14.2402C19.7485 13.8184 19.5113 13.2465 19.5106 12.65V9.63933C19.5106 9.51998 19.558 9.40552 19.6424 9.32113C19.7267 9.23674 19.8412 9.18933 19.9606 9.18933C20.0799 9.18933 20.1944 9.23674 20.2787 9.32113C20.3631 9.40552 20.4106 9.51998 20.4106 9.63933V12.65C20.4109 13.0079 20.5533 13.3511 20.8064 13.6042C21.0595 13.8573 21.4026 13.9996 21.7606 14H22.926C23.0453 14 23.1598 14.0474 23.2442 14.1318C23.3286 14.2162 23.376 14.3307 23.376 14.45C23.376 14.5694 23.3286 14.6838 23.2442 14.7682C23.1598 14.8526 23.0453 14.9 22.926 14.9ZM24.0106 27.885C23.8326 27.8848 23.6586 27.8318 23.5109 27.7325L22.0664 26.7697C21.1409 26.1542 20.3821 25.3192 19.8577 24.3393C19.3332 23.3594 19.0594 22.2649 19.0606 21.1534V20.3848C19.0612 20.1822 19.1301 19.9858 19.2559 19.827C19.3818 19.6682 19.5574 19.5564 19.7545 19.5094C21.0908 19.1401 22.362 18.5666 23.5232 17.8092C23.6685 17.7155 23.8376 17.6657 24.0105 17.6656C24.1833 17.6655 24.3525 17.7152 24.4979 17.8088C25.6593 18.5663 26.9307 19.1404 28.2671 19.5099C28.4641 19.5567 28.6397 19.6685 28.7655 19.8272C28.8912 19.9859 28.96 20.1823 28.9606 20.3848V21.1534C28.9617 22.2649 28.6879 23.3594 28.1634 24.3393C27.639 25.3192 26.8802 26.1542 25.9547 26.7697L24.5098 27.733C24.3621 27.8319 24.1883 27.8848 24.0106 27.885ZM24.0092 18.5646C22.765 19.3767 21.4021 19.9903 19.9693 20.3835L19.9606 21.1534C19.9595 22.1167 20.1968 23.0653 20.6513 23.9145C21.1059 24.7638 21.7635 25.4874 22.5656 26.0208L24.0106 26.9841L25.4555 26.0208C26.2576 25.4874 26.9152 24.7638 27.3698 23.9145C27.8243 23.0653 28.0616 22.1167 28.0606 21.1534V20.3848C26.6244 19.9915 25.258 19.3778 24.0101 18.5655L24.0092 18.5646Z" fill="#4C7CBE"/>
</svg>
