<svg width="37" height="37" viewBox="0 0 37 37" fill="none" xmlns="http://www.w3.org/2000/svg">
<circle cx="18.7881" cy="18.5" r="18" fill="#F4FBFF"/>
<path fill-rule="evenodd" clip-rule="evenodd" d="M28.2384 21.65C28.2384 21.2774 27.936 20.975 27.5634 20.975H20.8134C20.4408 20.975 20.1384 21.2774 20.1384 21.65V24.35C20.1384 25.2889 20.7236 26.371 21.4742 27.3099C22.4935 28.5829 23.7665 29.6022 23.7665 29.6022C24.0136 29.7993 24.3632 29.7993 24.6103 29.6022C24.6103 29.6022 25.8833 28.5829 26.9026 27.3099C27.6532 26.371 28.2384 25.2889 28.2384 24.35V21.65ZM26.8884 22.325V24.35C26.8884 25.0318 26.3936 25.7851 25.8482 26.4661C25.2731 27.185 24.6089 27.8148 24.1884 28.1881C23.7679 27.8148 23.1037 27.185 22.5286 26.4661C21.9832 25.7851 21.4884 25.0318 21.4884 24.35V22.325H26.8884ZM28.2384 19.625V12.875C28.2384 11.7572 27.3312 10.85 26.2134 10.85H11.3634C10.2456 10.85 9.33838 11.7572 9.33838 12.875V25.025C9.33838 26.1428 10.2456 27.05 11.3634 27.05H18.7884C19.161 27.05 19.4634 26.7476 19.4634 26.375C19.4634 26.0024 19.161 25.7 18.7884 25.7H11.3634C10.9908 25.7 10.6884 25.3976 10.6884 25.025V12.875C10.6884 12.5024 10.9908 12.2 11.3634 12.2H26.2134C26.586 12.2 26.8884 12.5024 26.8884 12.875V19.625C26.8884 19.9976 27.1908 20.3 27.5634 20.3C27.936 20.3 28.2384 19.9976 28.2384 19.625ZM12.7134 23.675H18.1134C18.486 23.675 18.7884 23.3726 18.7884 23C18.7884 22.6274 18.486 22.325 18.1134 22.325H12.7134C12.3408 22.325 12.0384 22.6274 12.0384 23C12.0384 23.3726 12.3408 23.675 12.7134 23.675ZM12.7134 20.975H18.1134C18.486 20.975 18.7884 20.6726 18.7884 20.3C18.7884 19.9274 18.486 19.625 18.1134 19.625H12.7134C12.3408 19.625 12.0384 19.9274 12.0384 20.3C12.0384 20.6726 12.3408 20.975 12.7134 20.975ZM12.7134 18.275H15.4134C15.786 18.275 16.0884 17.9726 16.0884 17.6C16.0884 17.2274 15.786 16.925 15.4134 16.925H12.7134C12.3408 16.925 12.0384 17.2274 12.0384 17.6C12.0384 17.9726 12.3408 18.275 12.7134 18.275ZM17.4384 18.275H24.8634C25.236 18.275 25.5384 17.9726 25.5384 17.6C25.5384 17.2274 25.236 16.925 24.8634 16.925H17.4384C17.0658 16.925 16.7634 17.2274 16.7634 17.6C16.7634 17.9726 17.0658 18.275 17.4384 18.275ZM12.7134 15.575H24.8634C25.236 15.575 25.5384 15.2726 25.5384 14.9C25.5384 14.5274 25.236 14.225 24.8634 14.225H12.7134C12.3408 14.225 12.0384 14.5274 12.0384 14.9C12.0384 15.2726 12.3408 15.575 12.7134 15.575Z" fill="#00A4F6"/>
</svg>
