<svg width="37" height="37" viewBox="0 0 37 37" fill="none" xmlns="http://www.w3.org/2000/svg">
<circle cx="18.6104" cy="18.5" r="18" fill="#E6FFFC"/>
<g clip-path="url(#clip0_148_2632)">
<path fill-rule="evenodd" clip-rule="evenodd" d="M25.2981 22.8517H25.8107V14.8437C25.8107 14.4401 25.4839 14.1125 25.0795 14.1125C23.93 14.1125 22.5201 14.1125 22.5201 14.1125C22.1165 14.1125 21.7889 13.7849 21.7889 13.3812C21.7889 12.9776 22.1165 12.65 22.5201 12.65C22.5201 12.65 23.93 12.65 25.0795 12.65C26.2912 12.65 27.2732 13.6321 27.2732 14.8437V22.8517H28.0045C28.4089 22.8517 28.7357 23.1793 28.7357 23.5829C28.7357 23.5829 28.7357 23.9303 28.7357 24.35C28.7357 24.9321 28.5047 25.49 28.0937 25.901C27.682 26.3127 27.1241 26.5437 26.542 26.5437H10.4545C9.87315 26.5437 9.3152 26.3127 8.90351 25.901C8.49182 25.49 8.26074 24.9321 8.26074 24.35V23.5829C8.26074 23.1793 8.58834 22.8517 8.99199 22.8517H9.72324V14.8437C9.72324 13.6321 10.706 12.65 11.917 12.65H14.4764C14.88 12.65 15.2076 12.9776 15.2076 13.3812C15.2076 13.7849 14.88 14.1125 14.4764 14.1125C14.4764 14.1125 13.0672 14.1125 11.917 14.1125C11.5133 14.1125 11.1857 14.4401 11.1857 14.8437V22.8517H11.6991L12.2461 20.4444C12.7652 18.1578 14.7974 16.5351 17.1425 16.5351H17.9966C18.0061 16.5351 18.0156 16.5351 18.0244 16.5351H18.9721C18.9816 16.5351 18.9911 16.5351 19.0006 16.5351H19.8547C22.1998 16.5351 24.232 18.1578 24.7512 20.4444L25.2981 22.8517ZM19.2295 24.3142V25.0812H26.542C26.7365 25.0812 26.9222 25.0045 27.0597 24.867C27.1965 24.7302 27.2732 24.5438 27.2732 24.35V24.3142H19.2295ZM17.767 24.3142H9.72324V24.35C9.72324 24.5438 9.80075 24.7302 9.9375 24.867C10.075 25.0045 10.2607 25.0812 10.4545 25.0812H17.767V24.3142ZM17.0738 17.9984C15.4409 18.0298 14.0347 19.1705 13.672 20.7683L13.1989 22.8517H18.4149C18.3023 22.8392 18.1918 22.7997 18.0939 22.7347L16.6314 21.7628C16.3732 21.5917 16.2511 21.2758 16.3264 20.976L17.0738 17.9984ZM19.9234 17.9984L20.6701 20.976C20.7454 21.2758 20.624 21.5917 20.3659 21.7628L18.9034 22.7347C18.8046 22.7997 18.6949 22.8392 18.5823 22.8517H23.7983L23.3252 20.7683C22.9625 19.1705 21.5563 18.0298 19.9234 17.9984ZM17.8708 20.8305L18.4982 21.2473L19.1264 20.8305L18.4982 18.3289L17.8708 20.8305ZM18.4982 10.4562C16.907 10.4562 15.6083 11.7637 15.6083 13.3812C15.6083 14.9988 16.907 16.3062 18.4982 16.3062C20.0902 16.3062 21.3881 14.9988 21.3881 13.3812C21.3881 11.7637 20.0902 10.4562 18.4982 10.4562ZM18.4982 11.9187C19.2895 11.9187 19.9256 12.5776 19.9256 13.3812C19.9256 14.1849 19.2895 14.8437 18.4982 14.8437C17.7078 14.8437 17.0708 14.1849 17.0708 13.3812C17.0708 12.5776 17.7078 11.9187 18.4982 11.9187Z" fill="#419289"/>
</g>
<defs>
<clipPath id="clip0_148_2632">
<rect width="23.4" height="23.4" fill="white" transform="translate(6.91016 6.79999)"/>
</clipPath>
</defs>
</svg>
