<svg width="260" height="136" viewBox="0 0 260 136" fill="none" xmlns="http://www.w3.org/2000/svg">
<path d="M9.81518 119.952V126.872H8.90518V121.712L6.60518 126.872H5.96518L3.65518 121.702V126.872H2.74518V119.952H3.72518L6.28518 125.672L8.84518 119.952H9.81518ZM14.5185 126.942C13.8718 126.942 13.2818 126.792 12.7485 126.492C12.2151 126.186 11.7918 125.762 11.4785 125.222C11.1718 124.676 11.0185 124.062 11.0185 123.382C11.0185 122.702 11.1718 122.092 11.4785 121.552C11.7918 121.006 12.2151 120.582 12.7485 120.282C13.2818 119.976 13.8718 119.822 14.5185 119.822C15.1718 119.822 15.7651 119.976 16.2985 120.282C16.8318 120.582 17.2518 121.002 17.5585 121.542C17.8651 122.082 18.0185 122.696 18.0185 123.382C18.0185 124.069 17.8651 124.682 17.5585 125.222C17.2518 125.762 16.8318 126.186 16.2985 126.492C15.7651 126.792 15.1718 126.942 14.5185 126.942ZM14.5185 126.152C15.0051 126.152 15.4418 126.039 15.8285 125.812C16.2218 125.586 16.5285 125.262 16.7485 124.842C16.9751 124.422 17.0885 123.936 17.0885 123.382C17.0885 122.822 16.9751 122.336 16.7485 121.922C16.5285 121.502 16.2251 121.179 15.8385 120.952C15.4518 120.726 15.0118 120.612 14.5185 120.612C14.0251 120.612 13.5851 120.726 13.1985 120.952C12.8118 121.179 12.5051 121.502 12.2785 121.922C12.0585 122.336 11.9485 122.822 11.9485 123.382C11.9485 123.936 12.0585 124.422 12.2785 124.842C12.5051 125.262 12.8118 125.586 13.1985 125.812C13.5918 126.039 14.0318 126.152 14.5185 126.152ZM24.6998 126.872H23.7898L20.1298 121.322V126.872H19.2198V119.892H20.1298L23.7898 125.432V119.892H24.6998V126.872Z" fill="#615E83"/>
<path d="M46.7542 119.902V120.642H44.8542V126.872H43.9442V120.642H42.0342V119.902H46.7542ZM48.7644 119.902V124.312C48.7644 124.932 48.9144 125.392 49.2144 125.692C49.521 125.992 49.9444 126.142 50.4844 126.142C51.0177 126.142 51.4344 125.992 51.7344 125.692C52.041 125.392 52.1944 124.932 52.1944 124.312V119.902H53.1044V124.302C53.1044 124.882 52.9877 125.372 52.7544 125.772C52.521 126.166 52.2044 126.459 51.8044 126.652C51.411 126.846 50.9677 126.942 50.4744 126.942C49.981 126.942 49.5344 126.846 49.1344 126.652C48.741 126.459 48.4277 126.166 48.1944 125.772C47.9677 125.372 47.8544 124.882 47.8544 124.302V119.902H48.7644ZM55.5324 120.642V122.972H58.0724V123.722H55.5324V126.122H58.3724V126.872H54.6224V119.892H58.3724V120.642H55.5324Z" fill="#615E83"/>
<path d="M89.2069 119.902L87.1869 126.872H86.1669L84.5469 121.262L82.8669 126.872L81.8569 126.882L79.9069 119.902H80.8769L82.3969 125.812L84.0769 119.902H85.0969L86.6969 125.792L88.2269 119.902H89.2069ZM91.1127 120.642V122.972H93.6527V123.722H91.1127V126.122H93.9527V126.872H90.2027V119.892H93.9527V120.642H91.1127ZM97.4997 119.902C98.2597 119.902 98.9164 120.046 99.4697 120.332C100.03 120.612 100.456 121.016 100.75 121.542C101.05 122.069 101.2 122.689 101.2 123.402C101.2 124.116 101.05 124.736 100.75 125.262C100.456 125.782 100.03 126.182 99.4697 126.462C98.9164 126.736 98.2597 126.872 97.4997 126.872H95.3297V119.902H97.4997ZM97.4997 126.122C98.3997 126.122 99.0864 125.886 99.5597 125.412C100.033 124.932 100.27 124.262 100.27 123.402C100.27 122.536 100.03 121.859 99.5497 121.372C99.0764 120.886 98.393 120.642 97.4997 120.642H96.2397V126.122H97.4997Z" fill="#615E83"/>
<path d="M124.931 119.902V120.642H123.031V126.872H122.121V120.642H120.211V119.902H124.931ZM131.421 119.902V126.872H130.511V123.712H126.961V126.872H126.051V119.902H126.961V122.962H130.511V119.902H131.421ZM133.865 119.902V124.312C133.865 124.932 134.015 125.392 134.315 125.692C134.622 125.992 135.045 126.142 135.585 126.142C136.119 126.142 136.535 125.992 136.835 125.692C137.142 125.392 137.295 124.932 137.295 124.312V119.902H138.205V124.302C138.205 124.882 138.089 125.372 137.855 125.772C137.622 126.166 137.305 126.459 136.905 126.652C136.512 126.846 136.069 126.942 135.575 126.942C135.082 126.942 134.635 126.846 134.235 126.652C133.842 126.459 133.529 126.166 133.295 125.772C133.069 125.372 132.955 124.882 132.955 124.302V119.902H133.865Z" fill="#615E83"/>
<path d="M166.099 119.902V120.642H163.069V122.992H165.529V123.732H163.069V126.872H162.159V119.902H166.099ZM170.868 126.872L169.208 124.022H168.108V126.872H167.198V119.902H169.448C169.975 119.902 170.418 119.992 170.778 120.172C171.145 120.352 171.418 120.596 171.598 120.902C171.778 121.209 171.868 121.559 171.868 121.952C171.868 122.432 171.728 122.856 171.448 123.222C171.175 123.589 170.761 123.832 170.208 123.952L171.958 126.872H170.868ZM168.108 123.292H169.448C169.941 123.292 170.311 123.172 170.558 122.932C170.805 122.686 170.928 122.359 170.928 121.952C170.928 121.539 170.805 121.219 170.558 120.992C170.318 120.766 169.948 120.652 169.448 120.652H168.108V123.292ZM174.192 119.902V126.872H173.282V119.902H174.192Z" fill="#615E83"/>
<path d="M201.387 126.942C200.927 126.942 200.513 126.862 200.147 126.702C199.787 126.536 199.503 126.309 199.297 126.022C199.09 125.729 198.983 125.392 198.977 125.012H199.947C199.98 125.339 200.113 125.616 200.347 125.842C200.587 126.062 200.933 126.172 201.387 126.172C201.82 126.172 202.16 126.066 202.407 125.852C202.66 125.632 202.787 125.352 202.787 125.012C202.787 124.746 202.713 124.529 202.567 124.362C202.42 124.196 202.237 124.069 202.017 123.982C201.797 123.896 201.5 123.802 201.127 123.702C200.667 123.582 200.297 123.462 200.017 123.342C199.743 123.222 199.507 123.036 199.307 122.782C199.113 122.522 199.017 122.176 199.017 121.742C199.017 121.362 199.113 121.026 199.307 120.732C199.5 120.439 199.77 120.212 200.117 120.052C200.47 119.892 200.873 119.812 201.327 119.812C201.98 119.812 202.513 119.976 202.927 120.302C203.347 120.629 203.583 121.062 203.637 121.602H202.637C202.603 121.336 202.463 121.102 202.217 120.902C201.97 120.696 201.643 120.592 201.237 120.592C200.857 120.592 200.547 120.692 200.307 120.892C200.067 121.086 199.947 121.359 199.947 121.712C199.947 121.966 200.017 122.172 200.157 122.332C200.303 122.492 200.48 122.616 200.687 122.702C200.9 122.782 201.197 122.876 201.577 122.982C202.037 123.109 202.407 123.236 202.687 123.362C202.967 123.482 203.207 123.672 203.407 123.932C203.607 124.186 203.707 124.532 203.707 124.972C203.707 125.312 203.617 125.632 203.437 125.932C203.257 126.232 202.99 126.476 202.637 126.662C202.283 126.849 201.867 126.942 201.387 126.942ZM209.166 125.322H206.126L205.566 126.872H204.606L207.126 119.942H208.176L210.686 126.872H209.726L209.166 125.322ZM208.906 124.582L207.646 121.062L206.386 124.582H208.906ZM216.074 119.902V120.642H214.174V126.872H213.264V120.642H211.354V119.902H216.074Z" fill="#615E83"/>
<path d="M241.071 126.942C240.611 126.942 240.198 126.862 239.831 126.702C239.471 126.536 239.188 126.309 238.981 126.022C238.775 125.729 238.668 125.392 238.661 125.012H239.631C239.665 125.339 239.798 125.616 240.031 125.842C240.271 126.062 240.618 126.172 241.071 126.172C241.505 126.172 241.845 126.066 242.091 125.852C242.345 125.632 242.471 125.352 242.471 125.012C242.471 124.746 242.398 124.529 242.251 124.362C242.105 124.196 241.921 124.069 241.701 123.982C241.481 123.896 241.185 123.802 240.811 123.702C240.351 123.582 239.981 123.462 239.701 123.342C239.428 123.222 239.191 123.036 238.991 122.782C238.798 122.522 238.701 122.176 238.701 121.742C238.701 121.362 238.798 121.026 238.991 120.732C239.185 120.439 239.455 120.212 239.801 120.052C240.155 119.892 240.558 119.812 241.011 119.812C241.665 119.812 242.198 119.976 242.611 120.302C243.031 120.629 243.268 121.062 243.321 121.602H242.321C242.288 121.336 242.148 121.102 241.901 120.902C241.655 120.696 241.328 120.592 240.921 120.592C240.541 120.592 240.231 120.692 239.991 120.892C239.751 121.086 239.631 121.359 239.631 121.712C239.631 121.966 239.701 122.172 239.841 122.332C239.988 122.492 240.165 122.616 240.371 122.702C240.585 122.782 240.881 122.876 241.261 122.982C241.721 123.109 242.091 123.236 242.371 123.362C242.651 123.482 242.891 123.672 243.091 123.932C243.291 124.186 243.391 124.532 243.391 124.972C243.391 125.312 243.301 125.632 243.121 125.932C242.941 126.232 242.675 126.476 242.321 126.662C241.968 126.849 241.551 126.942 241.071 126.942ZM245.62 119.902V124.312C245.62 124.932 245.77 125.392 246.07 125.692C246.377 125.992 246.8 126.142 247.34 126.142C247.874 126.142 248.29 125.992 248.59 125.692C248.897 125.392 249.05 124.932 249.05 124.312V119.902H249.96V124.302C249.96 124.882 249.844 125.372 249.61 125.772C249.377 126.166 249.06 126.459 248.66 126.652C248.267 126.846 247.824 126.942 247.33 126.942C246.837 126.942 246.39 126.846 245.99 126.652C245.597 126.459 245.284 126.166 245.05 125.772C244.824 125.372 244.71 124.882 244.71 124.302V119.902H245.62ZM256.958 126.872H256.048L252.388 121.322V126.872H251.478V119.892H252.388L256.048 125.432V119.892H256.958V126.872Z" fill="#615E83"/>
<rect x="237.374" y="98.3484" width="16.5632" height="5.03937" rx="2.51969" fill="#F0E5FC"/>
<rect x="197.992" y="96.5984" width="16.5632" height="6.78939" rx="3.3947" fill="#F0E5FC"/>
<rect x="158.608" y="0.724731" width="16.5632" height="102.663" rx="5" fill="#2D5BFF"/>
<rect x="119.225" y="58.8502" width="16.5632" height="44.5377" rx="5" fill="#2D5BFF"/>
<rect x="79.8428" y="29.2233" width="16.5632" height="74.1645" rx="5" fill="#2D5BFF"/>
<rect x="40.4604" y="72.2181" width="16.5632" height="31.1697" rx="5" fill="#2D5BFF"/>
<rect x="1.07715" y="33.3922" width="16.5632" height="69.9955" rx="5" fill="#2D5BFF"/>
</svg>
