<svg width="564" height="147" viewBox="0 0 564 147" fill="none" xmlns="http://www.w3.org/2000/svg">
<rect x="0.0898438" y="22.9829" width="563.91" height="16" rx="4" fill="#F8F8FF"/>
<rect x="0.0898438" y="76.9829" width="563.91" height="16" rx="4" fill="#F8F8FF"/>
<rect x="0.0898438" y="130.983" width="563.91" height="16" rx="4" fill="#F8F8FF"/>
<rect x="0.0898438" y="22.9829" width="537.212" height="16" rx="4" fill="url(#paint0_linear_268_321)"/>
<rect x="0.0898438" y="76.9829" width="116.076" height="16" rx="4" fill="#FFC740"/>
<rect x="0.0898438" y="130.983" width="19.6655" height="16" rx="4" fill="#F87E5E"/>
<path d="M2.10584 12.0949H5.03384V12.9829H1.01384V4.61891H2.10584V12.0949ZM12.1935 9.44291C12.1935 9.65091 12.1815 9.87091 12.1575 10.1029H6.90153C6.94153 10.7509 7.16153 11.2589 7.56153 11.6269C7.96953 11.9869 8.46153 12.1669 9.03753 12.1669C9.50953 12.1669 9.90153 12.0589 10.2135 11.8429C10.5335 11.6189 10.7575 11.3229 10.8855 10.9549H12.0615C11.8855 11.5869 11.5335 12.1029 11.0055 12.5029C10.4775 12.8949 9.82153 13.0909 9.03753 13.0909C8.41353 13.0909 7.85353 12.9509 7.35753 12.6709C6.86953 12.3909 6.48553 11.9949 6.20553 11.4829C5.92553 10.9629 5.78553 10.3629 5.78553 9.68291C5.78553 9.00291 5.92153 8.40691 6.19353 7.89491C6.46553 7.38291 6.84553 6.99091 7.33353 6.71891C7.82953 6.43891 8.39753 6.29891 9.03753 6.29891C9.66153 6.29891 10.2135 6.43491 10.6935 6.70691C11.1735 6.97891 11.5415 7.35491 11.7975 7.83491C12.0615 8.30691 12.1935 8.84291 12.1935 9.44291ZM11.0655 9.21491C11.0655 8.79891 10.9735 8.44291 10.7895 8.14691C10.6055 7.84291 10.3535 7.61491 10.0335 7.46291C9.72153 7.30291 9.37353 7.22291 8.98953 7.22291C8.43753 7.22291 7.96553 7.39891 7.57353 7.75091C7.18953 8.10291 6.96953 8.59091 6.91353 9.21491H11.0655ZM13.2269 9.67091C13.2269 8.99891 13.3629 8.41091 13.6349 7.90691C13.9069 7.39491 14.2789 6.99891 14.7509 6.71891C15.2309 6.43891 15.7629 6.29891 16.3469 6.29891C16.9229 6.29891 17.4229 6.42291 17.8469 6.67091C18.2709 6.91891 18.5869 7.23091 18.7949 7.60691V6.40691H19.8989V12.9829H18.7949V11.7589C18.5789 12.1429 18.2549 12.4629 17.8229 12.7189C17.3989 12.9669 16.9029 13.0909 16.3349 13.0909C15.7509 13.0909 15.2229 12.9469 14.7509 12.6589C14.2789 12.3709 13.9069 11.9669 13.6349 11.4469C13.3629 10.9269 13.2269 10.3349 13.2269 9.67091ZM18.7949 9.68291C18.7949 9.18691 18.6949 8.75491 18.4949 8.38691C18.2949 8.01891 18.0229 7.73891 17.6789 7.54691C17.3429 7.34691 16.9709 7.24691 16.5629 7.24691C16.1549 7.24691 15.7829 7.34291 15.4469 7.53491C15.1109 7.72691 14.8429 8.00691 14.6429 8.37491C14.4429 8.74291 14.3429 9.17491 14.3429 9.67091C14.3429 10.1749 14.4429 10.6149 14.6429 10.9909C14.8429 11.3589 15.1109 11.6429 15.4469 11.8429C15.7829 12.0349 16.1549 12.1309 16.5629 12.1309C16.9709 12.1309 17.3429 12.0349 17.6789 11.8429C18.0229 11.6429 18.2949 11.3589 18.4949 10.9909C18.6949 10.6149 18.7949 10.1789 18.7949 9.68291ZM24.1923 11.9749L26.2323 6.40691H27.3963L24.8163 12.9829H23.5443L20.9643 6.40691H22.1403L24.1923 11.9749ZM34.4709 9.44291C34.4709 9.65091 34.4589 9.87091 34.4349 10.1029H29.1789C29.2189 10.7509 29.4389 11.2589 29.8389 11.6269C30.2469 11.9869 30.7389 12.1669 31.3149 12.1669C31.7869 12.1669 32.1789 12.0589 32.4909 11.8429C32.8109 11.6189 33.0349 11.3229 33.1629 10.9549H34.3389C34.1629 11.5869 33.8109 12.1029 33.2829 12.5029C32.7549 12.8949 32.0989 13.0909 31.3149 13.0909C30.6909 13.0909 30.1309 12.9509 29.6349 12.6709C29.1469 12.3909 28.7629 11.9949 28.4829 11.4829C28.2029 10.9629 28.0629 10.3629 28.0629 9.68291C28.0629 9.00291 28.1989 8.40691 28.4709 7.89491C28.7429 7.38291 29.1229 6.99091 29.6109 6.71891C30.1069 6.43891 30.6749 6.29891 31.3149 6.29891C31.9389 6.29891 32.4909 6.43491 32.9709 6.70691C33.4509 6.97891 33.8189 7.35491 34.0749 7.83491C34.3389 8.30691 34.4709 8.84291 34.4709 9.44291ZM33.3429 9.21491C33.3429 8.79891 33.2509 8.44291 33.0669 8.14691C32.8829 7.84291 32.6309 7.61491 32.3109 7.46291C31.9989 7.30291 31.6509 7.22291 31.2669 7.22291C30.7149 7.22291 30.2429 7.39891 29.8509 7.75091C29.4669 8.10291 29.2469 8.59091 29.1909 9.21491H33.3429ZM38.2403 13.0909C37.7363 13.0909 37.2843 13.0069 36.8843 12.8389C36.4843 12.6629 36.1683 12.4229 35.9363 12.1189C35.7043 11.8069 35.5763 11.4509 35.5523 11.0509H36.6803C36.7123 11.3789 36.8643 11.6469 37.1363 11.8549C37.4163 12.0629 37.7803 12.1669 38.2283 12.1669C38.6443 12.1669 38.9723 12.0749 39.2123 11.8909C39.4523 11.7069 39.5723 11.4749 39.5723 11.1949C39.5723 10.9069 39.4443 10.6949 39.1883 10.5589C38.9323 10.4149 38.5363 10.2749 38.0003 10.1389C37.5123 10.0109 37.1123 9.88291 36.8003 9.75491C36.4963 9.61891 36.2323 9.42291 36.0083 9.16691C35.7923 8.90291 35.6843 8.55891 35.6843 8.13491C35.6843 7.79891 35.7843 7.49091 35.9843 7.21091C36.1843 6.93091 36.4683 6.71091 36.8363 6.55091C37.2043 6.38291 37.6243 6.29891 38.0963 6.29891C38.8243 6.29891 39.4123 6.48291 39.8603 6.85091C40.3083 7.21891 40.5483 7.72291 40.5803 8.36291H39.4883C39.4643 8.01891 39.3243 7.74291 39.0683 7.53491C38.8203 7.32691 38.4843 7.22291 38.0603 7.22291C37.6683 7.22291 37.3563 7.30691 37.1243 7.47491C36.8923 7.64291 36.7763 7.86291 36.7763 8.13491C36.7763 8.35091 36.8443 8.53091 36.9803 8.67491C37.1243 8.81091 37.3003 8.92291 37.5083 9.01091C37.7243 9.09091 38.0203 9.18291 38.3963 9.28691C38.8683 9.41491 39.2523 9.54291 39.5483 9.67091C39.8443 9.79091 40.0963 9.97491 40.3043 10.2229C40.5203 10.4709 40.6323 10.7949 40.6403 11.1949C40.6403 11.5549 40.5403 11.8789 40.3403 12.1669C40.1403 12.4549 39.8563 12.6829 39.4883 12.8509C39.1283 13.0109 38.7123 13.0909 38.2403 13.0909ZM50.325 11.1229H46.677L46.005 12.9829H44.853L47.877 4.66691H49.137L52.149 12.9829H50.997L50.325 11.1229ZM50.013 10.2349L48.501 6.01091L46.989 10.2349H50.013ZM54.559 7.61891C54.775 7.24291 55.095 6.93091 55.519 6.68291C55.951 6.42691 56.451 6.29891 57.019 6.29891C57.603 6.29891 58.131 6.43891 58.603 6.71891C59.083 6.99891 59.459 7.39491 59.731 7.90691C60.003 8.41091 60.139 8.99891 60.139 9.67091C60.139 10.3349 60.003 10.9269 59.731 11.4469C59.459 11.9669 59.083 12.3709 58.603 12.6589C58.131 12.9469 57.603 13.0909 57.019 13.0909C56.459 13.0909 55.963 12.9669 55.531 12.7189C55.107 12.4629 54.783 12.1469 54.559 11.7709V16.1029H53.467V6.40691H54.559V7.61891ZM59.023 9.67091C59.023 9.17491 58.923 8.74291 58.723 8.37491C58.523 8.00691 58.251 7.72691 57.907 7.53491C57.571 7.34291 57.199 7.24691 56.791 7.24691C56.391 7.24691 56.019 7.34691 55.675 7.54691C55.339 7.73891 55.067 8.02291 54.859 8.39891C54.659 8.76691 54.559 9.19491 54.559 9.68291C54.559 10.1789 54.659 10.6149 54.859 10.9909C55.067 11.3589 55.339 11.6429 55.675 11.8429C56.019 12.0349 56.391 12.1309 56.791 12.1309C57.199 12.1309 57.571 12.0349 57.907 11.8429C58.251 11.6429 58.523 11.3589 58.723 10.9909C58.923 10.6149 59.023 10.1749 59.023 9.67091ZM62.6683 7.61891C62.8843 7.24291 63.2043 6.93091 63.6283 6.68291C64.0603 6.42691 64.5603 6.29891 65.1283 6.29891C65.7123 6.29891 66.2403 6.43891 66.7123 6.71891C67.1923 6.99891 67.5683 7.39491 67.8403 7.90691C68.1123 8.41091 68.2483 8.99891 68.2483 9.67091C68.2483 10.3349 68.1123 10.9269 67.8403 11.4469C67.5683 11.9669 67.1923 12.3709 66.7123 12.6589C66.2403 12.9469 65.7123 13.0909 65.1283 13.0909C64.5683 13.0909 64.0723 12.9669 63.6403 12.7189C63.2163 12.4629 62.8923 12.1469 62.6683 11.7709V16.1029H61.5763V6.40691H62.6683V7.61891ZM67.1323 9.67091C67.1323 9.17491 67.0323 8.74291 66.8323 8.37491C66.6323 8.00691 66.3603 7.72691 66.0163 7.53491C65.6803 7.34291 65.3083 7.24691 64.9003 7.24691C64.5003 7.24691 64.1283 7.34691 63.7843 7.54691C63.4483 7.73891 63.1763 8.02291 62.9683 8.39891C62.7683 8.76691 62.6683 9.19491 62.6683 9.68291C62.6683 10.1789 62.7683 10.6149 62.9683 10.9909C63.1763 11.3589 63.4483 11.6429 63.7843 11.8429C64.1283 12.0349 64.5003 12.1309 64.9003 12.1309C65.3083 12.1309 65.6803 12.0349 66.0163 11.8429C66.3603 11.6429 66.6323 11.3589 66.8323 10.9909C67.0323 10.6149 67.1323 10.1749 67.1323 9.67091ZM70.7777 7.47491C70.9697 7.09891 71.2417 6.80691 71.5937 6.59891C71.9537 6.39091 72.3897 6.28691 72.9017 6.28691V7.41491H72.6137C71.3897 7.41491 70.7777 8.07891 70.7777 9.40691V12.9829H69.6857V6.40691H70.7777V7.47491ZM77.0303 13.0909C76.4143 13.0909 75.8543 12.9509 75.3503 12.6709C74.8543 12.3909 74.4623 11.9949 74.1743 11.4829C73.8943 10.9629 73.7543 10.3629 73.7543 9.68291C73.7543 9.01091 73.8983 8.41891 74.1863 7.90691C74.4823 7.38691 74.8823 6.99091 75.3863 6.71891C75.8903 6.43891 76.4543 6.29891 77.0783 6.29891C77.7023 6.29891 78.2663 6.43891 78.7703 6.71891C79.2743 6.99091 79.6703 7.38291 79.9583 7.89491C80.2543 8.40691 80.4023 9.00291 80.4023 9.68291C80.4023 10.3629 80.2503 10.9629 79.9463 11.4829C79.6503 11.9949 79.2463 12.3909 78.7343 12.6709C78.2223 12.9509 77.6543 13.0909 77.0303 13.0909ZM77.0303 12.1309C77.4223 12.1309 77.7903 12.0389 78.1343 11.8549C78.4783 11.6709 78.7543 11.3949 78.9623 11.0269C79.1783 10.6589 79.2863 10.2109 79.2863 9.68291C79.2863 9.15491 79.1823 8.70691 78.9743 8.33891C78.7663 7.97091 78.4943 7.69891 78.1583 7.52291C77.8223 7.33891 77.4583 7.24691 77.0663 7.24691C76.6663 7.24691 76.2983 7.33891 75.9623 7.52291C75.6343 7.69891 75.3703 7.97091 75.1703 8.33891C74.9703 8.70691 74.8703 9.15491 74.8703 9.68291C74.8703 10.2189 74.9663 10.6709 75.1583 11.0389C75.3583 11.4069 75.6223 11.6829 75.9503 11.8669C76.2783 12.0429 76.6383 12.1309 77.0303 12.1309ZM84.2861 11.9749L86.3261 6.40691H87.4901L84.9101 12.9829H83.6381L81.0581 6.40691H82.2341L84.2861 11.9749ZM94.5646 9.44291C94.5646 9.65091 94.5526 9.87091 94.5286 10.1029H89.2726C89.3126 10.7509 89.5326 11.2589 89.9326 11.6269C90.3406 11.9869 90.8326 12.1669 91.4086 12.1669C91.8806 12.1669 92.2726 12.0589 92.5846 11.8429C92.9046 11.6189 93.1286 11.3229 93.2566 10.9549H94.4326C94.2566 11.5869 93.9046 12.1029 93.3766 12.5029C92.8486 12.8949 92.1926 13.0909 91.4086 13.0909C90.7846 13.0909 90.2246 12.9509 89.7286 12.6709C89.2406 12.3909 88.8566 11.9949 88.5766 11.4829C88.2966 10.9629 88.1566 10.3629 88.1566 9.68291C88.1566 9.00291 88.2926 8.40691 88.5646 7.89491C88.8366 7.38291 89.2166 6.99091 89.7046 6.71891C90.2006 6.43891 90.7686 6.29891 91.4086 6.29891C92.0326 6.29891 92.5846 6.43491 93.0646 6.70691C93.5446 6.97891 93.9126 7.35491 94.1686 7.83491C94.4326 8.30691 94.5646 8.84291 94.5646 9.44291ZM93.4366 9.21491C93.4366 8.79891 93.3446 8.44291 93.1606 8.14691C92.9766 7.84291 92.7246 7.61491 92.4046 7.46291C92.0926 7.30291 91.7446 7.22291 91.3606 7.22291C90.8086 7.22291 90.3366 7.39891 89.9446 7.75091C89.5606 8.10291 89.3406 8.59091 89.2846 9.21491H93.4366ZM95.598 9.67091C95.598 8.99891 95.734 8.41091 96.006 7.90691C96.278 7.39491 96.65 6.99891 97.122 6.71891C97.602 6.43891 98.138 6.29891 98.73 6.29891C99.242 6.29891 99.718 6.41891 100.158 6.65891C100.598 6.89091 100.934 7.19891 101.166 7.58291V4.10291H102.27V12.9829H101.166V11.7469C100.95 12.1389 100.63 12.4629 100.206 12.7189C99.782 12.9669 99.286 13.0909 98.718 13.0909C98.134 13.0909 97.602 12.9469 97.122 12.6589C96.65 12.3709 96.278 11.9669 96.006 11.4469C95.734 10.9269 95.598 10.3349 95.598 9.67091ZM101.166 9.68291C101.166 9.18691 101.066 8.75491 100.866 8.38691C100.666 8.01891 100.394 7.73891 100.05 7.54691C99.714 7.34691 99.342 7.24691 98.934 7.24691C98.526 7.24691 98.154 7.34291 97.818 7.53491C97.482 7.72691 97.214 8.00691 97.014 8.37491C96.814 8.74291 96.714 9.17491 96.714 9.67091C96.714 10.1749 96.814 10.6149 97.014 10.9909C97.214 11.3589 97.482 11.6429 97.818 11.8429C98.154 12.0349 98.526 12.1309 98.934 12.1309C99.342 12.1309 99.714 12.0349 100.05 11.8429C100.394 11.6429 100.666 11.3589 100.866 10.9909C101.066 10.6149 101.166 10.1789 101.166 9.68291Z" fill="#615E83"/>
<path d="M2.10584 66.0949H5.03384V66.9829H1.01384V58.6189H2.10584V66.0949ZM12.1935 63.4429C12.1935 63.6509 12.1815 63.8709 12.1575 64.1029H6.90153C6.94153 64.7509 7.16153 65.2589 7.56153 65.6269C7.96953 65.9869 8.46153 66.1669 9.03753 66.1669C9.50953 66.1669 9.90153 66.0589 10.2135 65.8429C10.5335 65.6189 10.7575 65.3229 10.8855 64.9549H12.0615C11.8855 65.5869 11.5335 66.1029 11.0055 66.5029C10.4775 66.8949 9.82153 67.0909 9.03753 67.0909C8.41353 67.0909 7.85353 66.9509 7.35753 66.6709C6.86953 66.3909 6.48553 65.9949 6.20553 65.4829C5.92553 64.9629 5.78553 64.3629 5.78553 63.6829C5.78553 63.0029 5.92153 62.4069 6.19353 61.8949C6.46553 61.3829 6.84553 60.9909 7.33353 60.7189C7.82953 60.4389 8.39753 60.2989 9.03753 60.2989C9.66153 60.2989 10.2135 60.4349 10.6935 60.7069C11.1735 60.9789 11.5415 61.3549 11.7975 61.8349C12.0615 62.3069 12.1935 62.8429 12.1935 63.4429ZM11.0655 63.2149C11.0655 62.7989 10.9735 62.4429 10.7895 62.1469C10.6055 61.8429 10.3535 61.6149 10.0335 61.4629C9.72153 61.3029 9.37353 61.2229 8.98953 61.2229C8.43753 61.2229 7.96553 61.3989 7.57353 61.7509C7.18953 62.1029 6.96953 62.5909 6.91353 63.2149H11.0655ZM13.2269 63.6709C13.2269 62.9989 13.3629 62.4109 13.6349 61.9069C13.9069 61.3949 14.2789 60.9989 14.7509 60.7189C15.2309 60.4389 15.7629 60.2989 16.3469 60.2989C16.9229 60.2989 17.4229 60.4229 17.8469 60.6709C18.2709 60.9189 18.5869 61.2309 18.7949 61.6069V60.4069H19.8989V66.9829H18.7949V65.7589C18.5789 66.1429 18.2549 66.4629 17.8229 66.7189C17.3989 66.9669 16.9029 67.0909 16.3349 67.0909C15.7509 67.0909 15.2229 66.9469 14.7509 66.6589C14.2789 66.3709 13.9069 65.9669 13.6349 65.4469C13.3629 64.9269 13.2269 64.3349 13.2269 63.6709ZM18.7949 63.6829C18.7949 63.1869 18.6949 62.7549 18.4949 62.3869C18.2949 62.0189 18.0229 61.7389 17.6789 61.5469C17.3429 61.3469 16.9709 61.2469 16.5629 61.2469C16.1549 61.2469 15.7829 61.3429 15.4469 61.5349C15.1109 61.7269 14.8429 62.0069 14.6429 62.3749C14.4429 62.7429 14.3429 63.1749 14.3429 63.6709C14.3429 64.1749 14.4429 64.6149 14.6429 64.9909C14.8429 65.3589 15.1109 65.6429 15.4469 65.8429C15.7829 66.0349 16.1549 66.1309 16.5629 66.1309C16.9709 66.1309 17.3429 66.0349 17.6789 65.8429C18.0229 65.6429 18.2949 65.3589 18.4949 64.9909C18.6949 64.6149 18.7949 64.1789 18.7949 63.6829ZM24.1923 65.9749L26.2323 60.4069H27.3963L24.8163 66.9829H23.5443L20.9643 60.4069H22.1403L24.1923 65.9749ZM34.4709 63.4429C34.4709 63.6509 34.4589 63.8709 34.4349 64.1029H29.1789C29.2189 64.7509 29.4389 65.2589 29.8389 65.6269C30.2469 65.9869 30.7389 66.1669 31.3149 66.1669C31.7869 66.1669 32.1789 66.0589 32.4909 65.8429C32.8109 65.6189 33.0349 65.3229 33.1629 64.9549H34.3389C34.1629 65.5869 33.8109 66.1029 33.2829 66.5029C32.7549 66.8949 32.0989 67.0909 31.3149 67.0909C30.6909 67.0909 30.1309 66.9509 29.6349 66.6709C29.1469 66.3909 28.7629 65.9949 28.4829 65.4829C28.2029 64.9629 28.0629 64.3629 28.0629 63.6829C28.0629 63.0029 28.1989 62.4069 28.4709 61.8949C28.7429 61.3829 29.1229 60.9909 29.6109 60.7189C30.1069 60.4389 30.6749 60.2989 31.3149 60.2989C31.9389 60.2989 32.4909 60.4349 32.9709 60.7069C33.4509 60.9789 33.8189 61.3549 34.0749 61.8349C34.3389 62.3069 34.4709 62.8429 34.4709 63.4429ZM33.3429 63.2149C33.3429 62.7989 33.2509 62.4429 33.0669 62.1469C32.8829 61.8429 32.6309 61.6149 32.3109 61.4629C31.9989 61.3029 31.6509 61.2229 31.2669 61.2229C30.7149 61.2229 30.2429 61.3989 29.8509 61.7509C29.4669 62.1029 29.2469 62.5909 29.1909 63.2149H33.3429ZM38.2403 67.0909C37.7363 67.0909 37.2843 67.0069 36.8843 66.8389C36.4843 66.6629 36.1683 66.4229 35.9363 66.1189C35.7043 65.8069 35.5763 65.4509 35.5523 65.0509H36.6803C36.7123 65.3789 36.8643 65.6469 37.1363 65.8549C37.4163 66.0629 37.7803 66.1669 38.2283 66.1669C38.6443 66.1669 38.9723 66.0749 39.2123 65.8909C39.4523 65.7069 39.5723 65.4749 39.5723 65.1949C39.5723 64.9069 39.4443 64.6949 39.1883 64.5589C38.9323 64.4149 38.5363 64.2749 38.0003 64.1389C37.5123 64.0109 37.1123 63.8829 36.8003 63.7549C36.4963 63.6189 36.2323 63.4229 36.0083 63.1669C35.7923 62.9029 35.6843 62.5589 35.6843 62.1349C35.6843 61.7989 35.7843 61.4909 35.9843 61.2109C36.1843 60.9309 36.4683 60.7109 36.8363 60.5509C37.2043 60.3829 37.6243 60.2989 38.0963 60.2989C38.8243 60.2989 39.4123 60.4829 39.8603 60.8509C40.3083 61.2189 40.5483 61.7229 40.5803 62.3629H39.4883C39.4643 62.0189 39.3243 61.7429 39.0683 61.5349C38.8203 61.3269 38.4843 61.2229 38.0603 61.2229C37.6683 61.2229 37.3563 61.3069 37.1243 61.4749C36.8923 61.6429 36.7763 61.8629 36.7763 62.1349C36.7763 62.3509 36.8443 62.5309 36.9803 62.6749C37.1243 62.8109 37.3003 62.9229 37.5083 63.0109C37.7243 63.0909 38.0203 63.1829 38.3963 63.2869C38.8683 63.4149 39.2523 63.5429 39.5483 63.6709C39.8443 63.7909 40.0963 63.9749 40.3043 64.2229C40.5203 64.4709 40.6323 64.7949 40.6403 65.1949C40.6403 65.5549 40.5403 65.8789 40.3403 66.1669C40.1403 66.4549 39.8563 66.6829 39.4883 66.8509C39.1283 67.0109 38.7123 67.0909 38.2403 67.0909ZM50.973 61.0669C50.973 61.7629 50.733 62.3429 50.253 62.8069C49.781 63.2629 49.057 63.4909 48.081 63.4909H46.473V66.9829H45.381V58.6189H48.081C49.025 58.6189 49.741 58.8469 50.229 59.3029C50.725 59.7589 50.973 60.3469 50.973 61.0669ZM48.081 62.5909C48.689 62.5909 49.137 62.4589 49.425 62.1949C49.713 61.9309 49.857 61.5549 49.857 61.0669C49.857 60.0349 49.265 59.5189 48.081 59.5189H46.473V62.5909H48.081ZM58.3303 63.4429C58.3303 63.6509 58.3183 63.8709 58.2943 64.1029H53.0383C53.0783 64.7509 53.2983 65.2589 53.6983 65.6269C54.1063 65.9869 54.5983 66.1669 55.1743 66.1669C55.6463 66.1669 56.0383 66.0589 56.3503 65.8429C56.6703 65.6189 56.8943 65.3229 57.0223 64.9549H58.1983C58.0223 65.5869 57.6703 66.1029 57.1423 66.5029C56.6143 66.8949 55.9583 67.0909 55.1743 67.0909C54.5503 67.0909 53.9903 66.9509 53.4943 66.6709C53.0063 66.3909 52.6223 65.9949 52.3423 65.4829C52.0623 64.9629 51.9223 64.3629 51.9223 63.6829C51.9223 63.0029 52.0583 62.4069 52.3303 61.8949C52.6023 61.3829 52.9823 60.9909 53.4703 60.7189C53.9663 60.4389 54.5343 60.2989 55.1743 60.2989C55.7983 60.2989 56.3503 60.4349 56.8303 60.7069C57.3103 60.9789 57.6783 61.3549 57.9343 61.8349C58.1983 62.3069 58.3303 62.8429 58.3303 63.4429ZM57.2023 63.2149C57.2023 62.7989 57.1103 62.4429 56.9263 62.1469C56.7423 61.8429 56.4903 61.6149 56.1703 61.4629C55.8583 61.3029 55.5103 61.2229 55.1263 61.2229C54.5743 61.2229 54.1023 61.3989 53.7103 61.7509C53.3263 62.1029 53.1063 62.5909 53.0503 63.2149H57.2023ZM62.9757 60.2869C63.7757 60.2869 64.4237 60.5309 64.9197 61.0189C65.4157 61.4989 65.6637 62.1949 65.6637 63.1069V66.9829H64.5837V63.2629C64.5837 62.6069 64.4197 62.1069 64.0917 61.7629C63.7637 61.4109 63.3157 61.2349 62.7477 61.2349C62.1717 61.2349 61.7117 61.4149 61.3677 61.7749C61.0317 62.1349 60.8637 62.6589 60.8637 63.3469V66.9829H59.7717V60.4069H60.8637V61.3429C61.0797 61.0069 61.3717 60.7469 61.7397 60.5629C62.1157 60.3789 62.5277 60.2869 62.9757 60.2869ZM67.0394 63.6709C67.0394 62.9989 67.1754 62.4109 67.4474 61.9069C67.7194 61.3949 68.0914 60.9989 68.5634 60.7189C69.0434 60.4389 69.5794 60.2989 70.1714 60.2989C70.6834 60.2989 71.1594 60.4189 71.5994 60.6589C72.0394 60.8909 72.3754 61.1989 72.6074 61.5829V58.1029H73.7114V66.9829H72.6074V65.7469C72.3914 66.1389 72.0714 66.4629 71.6474 66.7189C71.2234 66.9669 70.7274 67.0909 70.1594 67.0909C69.5754 67.0909 69.0434 66.9469 68.5634 66.6589C68.0914 66.3709 67.7194 65.9669 67.4474 65.4469C67.1754 64.9269 67.0394 64.3349 67.0394 63.6709ZM72.6074 63.6829C72.6074 63.1869 72.5074 62.7549 72.3074 62.3869C72.1074 62.0189 71.8354 61.7389 71.4914 61.5469C71.1554 61.3469 70.7834 61.2469 70.3754 61.2469C69.9674 61.2469 69.5954 61.3429 69.2594 61.5349C68.9234 61.7269 68.6554 62.0069 68.4554 62.3749C68.2554 62.7429 68.1554 63.1749 68.1554 63.6709C68.1554 64.1749 68.2554 64.6149 68.4554 64.9909C68.6554 65.3589 68.9234 65.6429 69.2594 65.8429C69.5954 66.0349 69.9674 66.1309 70.3754 66.1309C70.7834 66.1309 71.1554 66.0349 71.4914 65.8429C71.8354 65.6429 72.1074 65.3589 72.3074 64.9909C72.5074 64.6149 72.6074 64.1789 72.6074 63.6829ZM76.1208 59.3389C75.9128 59.3389 75.7368 59.2669 75.5928 59.1229C75.4488 58.9789 75.3768 58.8029 75.3768 58.5949C75.3768 58.3869 75.4488 58.2109 75.5928 58.0669C75.7368 57.9229 75.9128 57.8509 76.1208 57.8509C76.3208 57.8509 76.4888 57.9229 76.6248 58.0669C76.7688 58.2109 76.8408 58.3869 76.8408 58.5949C76.8408 58.8029 76.7688 58.9789 76.6248 59.1229C76.4888 59.2669 76.3208 59.3389 76.1208 59.3389ZM76.6488 60.4069V66.9829H75.5568V60.4069H76.6488ZM81.7139 60.2869C82.5139 60.2869 83.1619 60.5309 83.6579 61.0189C84.1539 61.4989 84.4019 62.1949 84.4019 63.1069V66.9829H83.3219V63.2629C83.3219 62.6069 83.1579 62.1069 82.8299 61.7629C82.5019 61.4109 82.0539 61.2349 81.4859 61.2349C80.9099 61.2349 80.4499 61.4149 80.1059 61.7749C79.7699 62.1349 79.6019 62.6589 79.6019 63.3469V66.9829H78.5099V60.4069H79.6019V61.3429C79.8179 61.0069 80.1099 60.7469 80.4779 60.5629C80.8539 60.3789 81.2659 60.2869 81.7139 60.2869ZM88.8977 60.2989C89.4657 60.2989 89.9617 60.4229 90.3857 60.6709C90.8177 60.9189 91.1377 61.2309 91.3457 61.6069V60.4069H92.4497V67.1269C92.4497 67.7269 92.3217 68.2589 92.0657 68.7229C91.8097 69.1949 91.4417 69.5629 90.9617 69.8269C90.4897 70.0909 89.9377 70.2229 89.3057 70.2229C88.4417 70.2229 87.7217 70.0189 87.1457 69.6109C86.5697 69.2029 86.2297 68.6469 86.1257 67.9429H87.2057C87.3257 68.3429 87.5737 68.6629 87.9497 68.9029C88.3257 69.1509 88.7777 69.2749 89.3057 69.2749C89.9057 69.2749 90.3937 69.0869 90.7697 68.7109C91.1537 68.3349 91.3457 67.8069 91.3457 67.1269V65.7469C91.1297 66.1309 90.8097 66.4509 90.3857 66.7069C89.9617 66.9629 89.4657 67.0909 88.8977 67.0909C88.3137 67.0909 87.7817 66.9469 87.3017 66.6589C86.8297 66.3709 86.4577 65.9669 86.1857 65.4469C85.9137 64.9269 85.7777 64.3349 85.7777 63.6709C85.7777 62.9989 85.9137 62.4109 86.1857 61.9069C86.4577 61.3949 86.8297 60.9989 87.3017 60.7189C87.7817 60.4389 88.3137 60.2989 88.8977 60.2989ZM91.3457 63.6829C91.3457 63.1869 91.2457 62.7549 91.0457 62.3869C90.8457 62.0189 90.5737 61.7389 90.2297 61.5469C89.8937 61.3469 89.5217 61.2469 89.1137 61.2469C88.7057 61.2469 88.3337 61.3429 87.9977 61.5349C87.6617 61.7269 87.3937 62.0069 87.1937 62.3749C86.9937 62.7429 86.8937 63.1749 86.8937 63.6709C86.8937 64.1749 86.9937 64.6149 87.1937 64.9909C87.3937 65.3589 87.6617 65.6429 87.9977 65.8429C88.3337 66.0349 88.7057 66.1309 89.1137 66.1309C89.5217 66.1309 89.8937 66.0349 90.2297 65.8429C90.5737 65.6429 90.8457 65.3589 91.0457 64.9909C91.2457 64.6149 91.3457 64.1789 91.3457 63.6829Z" fill="#615E83"/>
<path d="M2.10584 120.095H5.03384V120.983H1.01384V112.619H2.10584V120.095ZM12.1935 117.443C12.1935 117.651 12.1815 117.871 12.1575 118.103H6.90153C6.94153 118.751 7.16153 119.259 7.56153 119.627C7.96953 119.987 8.46153 120.167 9.03753 120.167C9.50953 120.167 9.90153 120.059 10.2135 119.843C10.5335 119.619 10.7575 119.323 10.8855 118.955H12.0615C11.8855 119.587 11.5335 120.103 11.0055 120.503C10.4775 120.895 9.82153 121.091 9.03753 121.091C8.41353 121.091 7.85353 120.951 7.35753 120.671C6.86953 120.391 6.48553 119.995 6.20553 119.483C5.92553 118.963 5.78553 118.363 5.78553 117.683C5.78553 117.003 5.92153 116.407 6.19353 115.895C6.46553 115.383 6.84553 114.991 7.33353 114.719C7.82953 114.439 8.39753 114.299 9.03753 114.299C9.66153 114.299 10.2135 114.435 10.6935 114.707C11.1735 114.979 11.5415 115.355 11.7975 115.835C12.0615 116.307 12.1935 116.843 12.1935 117.443ZM11.0655 117.215C11.0655 116.799 10.9735 116.443 10.7895 116.147C10.6055 115.843 10.3535 115.615 10.0335 115.463C9.72153 115.303 9.37353 115.223 8.98953 115.223C8.43753 115.223 7.96553 115.399 7.57353 115.751C7.18953 116.103 6.96953 116.591 6.91353 117.215H11.0655ZM13.2269 117.671C13.2269 116.999 13.3629 116.411 13.6349 115.907C13.9069 115.395 14.2789 114.999 14.7509 114.719C15.2309 114.439 15.7629 114.299 16.3469 114.299C16.9229 114.299 17.4229 114.423 17.8469 114.671C18.2709 114.919 18.5869 115.231 18.7949 115.607V114.407H19.8989V120.983H18.7949V119.759C18.5789 120.143 18.2549 120.463 17.8229 120.719C17.3989 120.967 16.9029 121.091 16.3349 121.091C15.7509 121.091 15.2229 120.947 14.7509 120.659C14.2789 120.371 13.9069 119.967 13.6349 119.447C13.3629 118.927 13.2269 118.335 13.2269 117.671ZM18.7949 117.683C18.7949 117.187 18.6949 116.755 18.4949 116.387C18.2949 116.019 18.0229 115.739 17.6789 115.547C17.3429 115.347 16.9709 115.247 16.5629 115.247C16.1549 115.247 15.7829 115.343 15.4469 115.535C15.1109 115.727 14.8429 116.007 14.6429 116.375C14.4429 116.743 14.3429 117.175 14.3429 117.671C14.3429 118.175 14.4429 118.615 14.6429 118.991C14.8429 119.359 15.1109 119.643 15.4469 119.843C15.7829 120.035 16.1549 120.131 16.5629 120.131C16.9709 120.131 17.3429 120.035 17.6789 119.843C18.0229 119.643 18.2949 119.359 18.4949 118.991C18.6949 118.615 18.7949 118.179 18.7949 117.683ZM24.1923 119.975L26.2323 114.407H27.3963L24.8163 120.983H23.5443L20.9643 114.407H22.1403L24.1923 119.975ZM34.4709 117.443C34.4709 117.651 34.4589 117.871 34.4349 118.103H29.1789C29.2189 118.751 29.4389 119.259 29.8389 119.627C30.2469 119.987 30.7389 120.167 31.3149 120.167C31.7869 120.167 32.1789 120.059 32.4909 119.843C32.8109 119.619 33.0349 119.323 33.1629 118.955H34.3389C34.1629 119.587 33.8109 120.103 33.2829 120.503C32.7549 120.895 32.0989 121.091 31.3149 121.091C30.6909 121.091 30.1309 120.951 29.6349 120.671C29.1469 120.391 28.7629 119.995 28.4829 119.483C28.2029 118.963 28.0629 118.363 28.0629 117.683C28.0629 117.003 28.1989 116.407 28.4709 115.895C28.7429 115.383 29.1229 114.991 29.6109 114.719C30.1069 114.439 30.6749 114.299 31.3149 114.299C31.9389 114.299 32.4909 114.435 32.9709 114.707C33.4509 114.979 33.8189 115.355 34.0749 115.835C34.3389 116.307 34.4709 116.843 34.4709 117.443ZM33.3429 117.215C33.3429 116.799 33.2509 116.443 33.0669 116.147C32.8829 115.843 32.6309 115.615 32.3109 115.463C31.9989 115.303 31.6509 115.223 31.2669 115.223C30.7149 115.223 30.2429 115.399 29.8509 115.751C29.4669 116.103 29.2469 116.591 29.1909 117.215H33.3429ZM38.2403 121.091C37.7363 121.091 37.2843 121.007 36.8843 120.839C36.4843 120.663 36.1683 120.423 35.9363 120.119C35.7043 119.807 35.5763 119.451 35.5523 119.051H36.6803C36.7123 119.379 36.8643 119.647 37.1363 119.855C37.4163 120.063 37.7803 120.167 38.2283 120.167C38.6443 120.167 38.9723 120.075 39.2123 119.891C39.4523 119.707 39.5723 119.475 39.5723 119.195C39.5723 118.907 39.4443 118.695 39.1883 118.559C38.9323 118.415 38.5363 118.275 38.0003 118.139C37.5123 118.011 37.1123 117.883 36.8003 117.755C36.4963 117.619 36.2323 117.423 36.0083 117.167C35.7923 116.903 35.6843 116.559 35.6843 116.135C35.6843 115.799 35.7843 115.491 35.9843 115.211C36.1843 114.931 36.4683 114.711 36.8363 114.551C37.2043 114.383 37.6243 114.299 38.0963 114.299C38.8243 114.299 39.4123 114.483 39.8603 114.851C40.3083 115.219 40.5483 115.723 40.5803 116.363H39.4883C39.4643 116.019 39.3243 115.743 39.0683 115.535C38.8203 115.327 38.4843 115.223 38.0603 115.223C37.6683 115.223 37.3563 115.307 37.1243 115.475C36.8923 115.643 36.7763 115.863 36.7763 116.135C36.7763 116.351 36.8443 116.531 36.9803 116.675C37.1243 116.811 37.3003 116.923 37.5083 117.011C37.7243 117.091 38.0203 117.183 38.3963 117.287C38.8683 117.415 39.2523 117.543 39.5483 117.671C39.8443 117.791 40.0963 117.975 40.3043 118.223C40.5203 118.471 40.6323 118.795 40.6403 119.195C40.6403 119.555 40.5403 119.879 40.3403 120.167C40.1403 120.455 39.8563 120.683 39.4883 120.851C39.1283 121.011 38.7123 121.091 38.2403 121.091ZM49.785 120.983L47.793 117.563H46.473V120.983H45.381V112.619H48.081C48.713 112.619 49.245 112.727 49.677 112.943C50.117 113.159 50.445 113.451 50.661 113.819C50.877 114.187 50.985 114.607 50.985 115.079C50.985 115.655 50.817 116.163 50.481 116.603C50.153 117.043 49.657 117.335 48.993 117.479L51.093 120.983H49.785ZM46.473 116.687H48.081C48.673 116.687 49.117 116.543 49.413 116.255C49.709 115.959 49.857 115.567 49.857 115.079C49.857 114.583 49.709 114.199 49.413 113.927C49.125 113.655 48.681 113.519 48.081 113.519H46.473V116.687ZM58.6818 117.443C58.6818 117.651 58.6698 117.871 58.6458 118.103H53.3898C53.4298 118.751 53.6498 119.259 54.0498 119.627C54.4578 119.987 54.9498 120.167 55.5258 120.167C55.9978 120.167 56.3898 120.059 56.7018 119.843C57.0218 119.619 57.2458 119.323 57.3738 118.955H58.5498C58.3738 119.587 58.0218 120.103 57.4938 120.503C56.9658 120.895 56.3098 121.091 55.5258 121.091C54.9018 121.091 54.3418 120.951 53.8458 120.671C53.3578 120.391 52.9738 119.995 52.6938 119.483C52.4138 118.963 52.2738 118.363 52.2738 117.683C52.2738 117.003 52.4098 116.407 52.6818 115.895C52.9538 115.383 53.3338 114.991 53.8218 114.719C54.3178 114.439 54.8858 114.299 55.5258 114.299C56.1498 114.299 56.7018 114.435 57.1818 114.707C57.6618 114.979 58.0298 115.355 58.2858 115.835C58.5498 116.307 58.6818 116.843 58.6818 117.443ZM57.5538 117.215C57.5538 116.799 57.4618 116.443 57.2778 116.147C57.0938 115.843 56.8418 115.615 56.5218 115.463C56.2098 115.303 55.8618 115.223 55.4778 115.223C54.9258 115.223 54.4538 115.399 54.0618 115.751C53.6778 116.103 53.4578 116.591 53.4018 117.215H57.5538ZM60.7112 113.339C60.5032 113.339 60.3272 113.267 60.1832 113.123C60.0472 112.979 59.9792 112.803 59.9792 112.595C59.9792 112.387 60.0472 112.211 60.1832 112.067C60.3272 111.923 60.5032 111.851 60.7112 111.851C60.9192 111.851 61.0912 111.923 61.2272 112.067C61.3712 112.211 61.4432 112.387 61.4432 112.595C61.4432 112.803 61.3712 112.979 61.2272 113.123C61.0912 113.267 60.9192 113.339 60.7112 113.339ZM61.2512 122.411C61.2512 122.995 61.1032 123.423 60.8072 123.695C60.5112 123.967 60.0792 124.103 59.5112 124.103H58.8752V123.179H59.3312C59.6352 123.179 59.8472 123.119 59.9672 122.999C60.0952 122.879 60.1592 122.675 60.1592 122.387V114.407H61.2512V122.411ZM69.0998 117.443C69.0998 117.651 69.0878 117.871 69.0638 118.103H63.8078C63.8478 118.751 64.0678 119.259 64.4678 119.627C64.8758 119.987 65.3678 120.167 65.9438 120.167C66.4158 120.167 66.8078 120.059 67.1198 119.843C67.4398 119.619 67.6638 119.323 67.7918 118.955H68.9678C68.7918 119.587 68.4398 120.103 67.9118 120.503C67.3838 120.895 66.7278 121.091 65.9438 121.091C65.3198 121.091 64.7598 120.951 64.2638 120.671C63.7758 120.391 63.3918 119.995 63.1118 119.483C62.8318 118.963 62.6918 118.363 62.6918 117.683C62.6918 117.003 62.8278 116.407 63.0998 115.895C63.3718 115.383 63.7518 114.991 64.2398 114.719C64.7358 114.439 65.3038 114.299 65.9438 114.299C66.5678 114.299 67.1198 114.435 67.5998 114.707C68.0798 114.979 68.4478 115.355 68.7038 115.835C68.9678 116.307 69.0998 116.843 69.0998 117.443ZM67.9718 117.215C67.9718 116.799 67.8798 116.443 67.6958 116.147C67.5118 115.843 67.2598 115.615 66.9398 115.463C66.6278 115.303 66.2798 115.223 65.8958 115.223C65.3438 115.223 64.8718 115.399 64.4798 115.751C64.0958 116.103 63.8758 116.591 63.8198 117.215H67.9718ZM70.1332 117.683C70.1332 117.003 70.2692 116.411 70.5412 115.907C70.8132 115.395 71.1892 114.999 71.6692 114.719C72.1572 114.439 72.7132 114.299 73.3372 114.299C74.1452 114.299 74.8092 114.495 75.3292 114.887C75.8572 115.279 76.2052 115.823 76.3732 116.519H75.1972C75.0852 116.119 74.8652 115.803 74.5372 115.571C74.2172 115.339 73.8172 115.223 73.3372 115.223C72.7132 115.223 72.2092 115.439 71.8252 115.871C71.4412 116.295 71.2492 116.899 71.2492 117.683C71.2492 118.475 71.4412 119.087 71.8252 119.519C72.2092 119.951 72.7132 120.167 73.3372 120.167C73.8172 120.167 74.2172 120.055 74.5372 119.831C74.8572 119.607 75.0772 119.287 75.1972 118.871H76.3732C76.1972 119.543 75.8452 120.083 75.3172 120.491C74.7892 120.891 74.1292 121.091 73.3372 121.091C72.7132 121.091 72.1572 120.951 71.6692 120.671C71.1892 120.391 70.8132 119.995 70.5412 119.483C70.2692 118.971 70.1332 118.371 70.1332 117.683ZM79.1623 115.307V119.183C79.1623 119.503 79.2303 119.731 79.3663 119.867C79.5023 119.995 79.7383 120.059 80.0742 120.059H80.8783V120.983H79.8943C79.2863 120.983 78.8303 120.843 78.5263 120.563C78.2223 120.283 78.0703 119.823 78.0703 119.183V115.307H77.2183V114.407H78.0703V112.751H79.1623V114.407H80.8783V115.307H79.1623ZM88.2013 117.443C88.2013 117.651 88.1893 117.871 88.1653 118.103H82.9093C82.9493 118.751 83.1693 119.259 83.5693 119.627C83.9773 119.987 84.4693 120.167 85.0453 120.167C85.5173 120.167 85.9093 120.059 86.2213 119.843C86.5413 119.619 86.7653 119.323 86.8933 118.955H88.0693C87.8933 119.587 87.5413 120.103 87.0133 120.503C86.4853 120.895 85.8293 121.091 85.0453 121.091C84.4213 121.091 83.8613 120.951 83.3653 120.671C82.8773 120.391 82.4933 119.995 82.2133 119.483C81.9333 118.963 81.7933 118.363 81.7933 117.683C81.7933 117.003 81.9293 116.407 82.2013 115.895C82.4733 115.383 82.8533 114.991 83.3413 114.719C83.8373 114.439 84.4053 114.299 85.0453 114.299C85.6693 114.299 86.2213 114.435 86.7013 114.707C87.1813 114.979 87.5493 115.355 87.8053 115.835C88.0693 116.307 88.2013 116.843 88.2013 117.443ZM87.0733 117.215C87.0733 116.799 86.9813 116.443 86.7973 116.147C86.6133 115.843 86.3613 115.615 86.0413 115.463C85.7293 115.303 85.3813 115.223 84.9973 115.223C84.4453 115.223 83.9733 115.399 83.5813 115.751C83.1973 116.103 82.9773 116.591 82.9213 117.215H87.0733ZM89.2348 117.671C89.2348 116.999 89.3708 116.411 89.6428 115.907C89.9148 115.395 90.2868 114.999 90.7588 114.719C91.2388 114.439 91.7748 114.299 92.3668 114.299C92.8788 114.299 93.3548 114.419 93.7948 114.659C94.2348 114.891 94.5708 115.199 94.8028 115.583V112.103H95.9068V120.983H94.8028V119.747C94.5868 120.139 94.2668 120.463 93.8428 120.719C93.4188 120.967 92.9228 121.091 92.3548 121.091C91.7708 121.091 91.2388 120.947 90.7588 120.659C90.2868 120.371 89.9148 119.967 89.6428 119.447C89.3708 118.927 89.2348 118.335 89.2348 117.671ZM94.8028 117.683C94.8028 117.187 94.7028 116.755 94.5028 116.387C94.3028 116.019 94.0308 115.739 93.6868 115.547C93.3508 115.347 92.9788 115.247 92.5708 115.247C92.1628 115.247 91.7908 115.343 91.4548 115.535C91.1188 115.727 90.8508 116.007 90.6508 116.375C90.4508 116.743 90.3508 117.175 90.3508 117.671C90.3508 118.175 90.4508 118.615 90.6508 118.991C90.8508 119.359 91.1188 119.643 91.4548 119.843C91.7908 120.035 92.1628 120.131 92.5708 120.131C92.9788 120.131 93.3508 120.035 93.6868 119.843C94.0308 119.643 94.3028 119.359 94.5028 118.991C94.7028 118.615 94.8028 118.179 94.8028 117.683ZM101.832 109.679L98.5441 123.023H97.4641L100.74 109.679H101.832ZM103.051 116.795C103.051 115.979 103.235 115.247 103.603 114.599C103.971 113.943 104.471 113.431 105.103 113.063C105.743 112.695 106.451 112.511 107.227 112.511C108.139 112.511 108.935 112.731 109.615 113.171C110.295 113.611 110.791 114.235 111.103 115.043H109.795C109.563 114.539 109.227 114.151 108.787 113.879C108.355 113.607 107.835 113.471 107.227 113.471C106.643 113.471 106.119 113.607 105.655 113.879C105.191 114.151 104.827 114.539 104.563 115.043C104.299 115.539 104.167 116.123 104.167 116.795C104.167 117.459 104.299 118.043 104.563 118.547C104.827 119.043 105.191 119.427 105.655 119.699C106.119 119.971 106.643 120.107 107.227 120.107C107.835 120.107 108.355 119.975 108.787 119.711C109.227 119.439 109.563 119.051 109.795 118.547H111.103C110.791 119.347 110.295 119.967 109.615 120.407C108.935 120.839 108.139 121.055 107.227 121.055C106.451 121.055 105.743 120.875 105.103 120.515C104.471 120.147 103.971 119.639 103.603 118.991C103.235 118.343 103.051 117.611 103.051 116.795ZM112.321 117.671C112.321 116.999 112.457 116.411 112.729 115.907C113.001 115.395 113.373 114.999 113.845 114.719C114.325 114.439 114.857 114.299 115.441 114.299C116.017 114.299 116.517 114.423 116.941 114.671C117.365 114.919 117.681 115.231 117.889 115.607V114.407H118.993V120.983H117.889V119.759C117.673 120.143 117.349 120.463 116.917 120.719C116.493 120.967 115.997 121.091 115.429 121.091C114.845 121.091 114.317 120.947 113.845 120.659C113.373 120.371 113.001 119.967 112.729 119.447C112.457 118.927 112.321 118.335 112.321 117.671ZM117.889 117.683C117.889 117.187 117.789 116.755 117.589 116.387C117.389 116.019 117.117 115.739 116.773 115.547C116.437 115.347 116.065 115.247 115.657 115.247C115.249 115.247 114.877 115.343 114.541 115.535C114.205 115.727 113.937 116.007 113.737 116.375C113.537 116.743 113.437 117.175 113.437 117.671C113.437 118.175 113.537 118.615 113.737 118.991C113.937 119.359 114.205 119.643 114.541 119.843C114.877 120.035 115.249 120.131 115.657 120.131C116.065 120.131 116.437 120.035 116.773 119.843C117.117 119.643 117.389 119.359 117.589 118.991C117.789 118.615 117.889 118.179 117.889 117.683ZM124.042 114.287C124.842 114.287 125.49 114.531 125.986 115.019C126.482 115.499 126.73 116.195 126.73 117.107V120.983H125.65V117.263C125.65 116.607 125.486 116.107 125.158 115.763C124.83 115.411 124.382 115.235 123.814 115.235C123.238 115.235 122.778 115.415 122.434 115.775C122.098 116.135 121.93 116.659 121.93 117.347V120.983H120.838V114.407H121.93V115.343C122.146 115.007 122.438 114.747 122.806 114.563C123.182 114.379 123.594 114.287 124.042 114.287ZM128.106 117.683C128.106 117.003 128.242 116.411 128.514 115.907C128.786 115.395 129.162 114.999 129.642 114.719C130.13 114.439 130.686 114.299 131.31 114.299C132.118 114.299 132.782 114.495 133.302 114.887C133.83 115.279 134.178 115.823 134.346 116.519H133.17C133.058 116.119 132.838 115.803 132.51 115.571C132.19 115.339 131.79 115.223 131.31 115.223C130.686 115.223 130.182 115.439 129.798 115.871C129.414 116.295 129.222 116.899 129.222 117.683C129.222 118.475 129.414 119.087 129.798 119.519C130.182 119.951 130.686 120.167 131.31 120.167C131.79 120.167 132.19 120.055 132.51 119.831C132.83 119.607 133.05 119.287 133.17 118.871H134.346C134.17 119.543 133.818 120.083 133.29 120.491C132.762 120.891 132.102 121.091 131.31 121.091C130.686 121.091 130.13 120.951 129.642 120.671C129.162 120.391 128.786 119.995 128.514 119.483C128.242 118.971 128.106 118.371 128.106 117.683ZM141.803 117.443C141.803 117.651 141.791 117.871 141.767 118.103H136.511C136.551 118.751 136.771 119.259 137.171 119.627C137.579 119.987 138.071 120.167 138.647 120.167C139.119 120.167 139.511 120.059 139.823 119.843C140.143 119.619 140.367 119.323 140.495 118.955H141.671C141.495 119.587 141.143 120.103 140.615 120.503C140.087 120.895 139.431 121.091 138.647 121.091C138.023 121.091 137.463 120.951 136.967 120.671C136.479 120.391 136.095 119.995 135.815 119.483C135.535 118.963 135.395 118.363 135.395 117.683C135.395 117.003 135.531 116.407 135.803 115.895C136.075 115.383 136.455 114.991 136.943 114.719C137.439 114.439 138.007 114.299 138.647 114.299C139.271 114.299 139.823 114.435 140.303 114.707C140.783 114.979 141.151 115.355 141.407 115.835C141.671 116.307 141.803 116.843 141.803 117.443ZM140.675 117.215C140.675 116.799 140.583 116.443 140.399 116.147C140.215 115.843 139.963 115.615 139.643 115.463C139.331 115.303 138.983 115.223 138.599 115.223C138.047 115.223 137.575 115.399 137.183 115.751C136.799 116.103 136.579 116.591 136.523 117.215H140.675ZM144.336 112.103V120.983H143.244V112.103H144.336ZM147.289 112.103V120.983H146.197V112.103H147.289ZM155.151 117.443C155.151 117.651 155.139 117.871 155.115 118.103H149.859C149.899 118.751 150.119 119.259 150.519 119.627C150.927 119.987 151.419 120.167 151.995 120.167C152.467 120.167 152.859 120.059 153.171 119.843C153.491 119.619 153.715 119.323 153.843 118.955H155.019C154.843 119.587 154.491 120.103 153.963 120.503C153.435 120.895 152.779 121.091 151.995 121.091C151.371 121.091 150.811 120.951 150.315 120.671C149.827 120.391 149.443 119.995 149.163 119.483C148.883 118.963 148.743 118.363 148.743 117.683C148.743 117.003 148.879 116.407 149.151 115.895C149.423 115.383 149.803 114.991 150.291 114.719C150.787 114.439 151.355 114.299 151.995 114.299C152.619 114.299 153.171 114.435 153.651 114.707C154.131 114.979 154.499 115.355 154.755 115.835C155.019 116.307 155.151 116.843 155.151 117.443ZM154.023 117.215C154.023 116.799 153.931 116.443 153.747 116.147C153.563 115.843 153.311 115.615 152.991 115.463C152.679 115.303 152.331 115.223 151.947 115.223C151.395 115.223 150.923 115.399 150.531 115.751C150.147 116.103 149.927 116.591 149.871 117.215H154.023ZM156.184 117.671C156.184 116.999 156.32 116.411 156.592 115.907C156.864 115.395 157.236 114.999 157.708 114.719C158.188 114.439 158.724 114.299 159.316 114.299C159.828 114.299 160.304 114.419 160.744 114.659C161.184 114.891 161.52 115.199 161.752 115.583V112.103H162.856V120.983H161.752V119.747C161.536 120.139 161.216 120.463 160.792 120.719C160.368 120.967 159.872 121.091 159.304 121.091C158.72 121.091 158.188 120.947 157.708 120.659C157.236 120.371 156.864 119.967 156.592 119.447C156.32 118.927 156.184 118.335 156.184 117.671ZM161.752 117.683C161.752 117.187 161.652 116.755 161.452 116.387C161.252 116.019 160.98 115.739 160.636 115.547C160.3 115.347 159.928 115.247 159.52 115.247C159.112 115.247 158.74 115.343 158.404 115.535C158.068 115.727 157.8 116.007 157.6 116.375C157.4 116.743 157.3 117.175 157.3 117.671C157.3 118.175 157.4 118.615 157.6 118.991C157.8 119.359 158.068 119.643 158.404 119.843C158.74 120.035 159.112 120.131 159.52 120.131C159.928 120.131 160.3 120.035 160.636 119.843C160.98 119.643 161.252 119.359 161.452 118.991C161.652 118.615 161.752 118.179 161.752 117.683Z" fill="#615E83"/>
<defs>
<linearGradient id="paint0_linear_268_321" x1="0.0898402" y1="29.871" x2="537.302" y2="29.871" gradientUnits="userSpaceOnUse">
<stop stop-color="#4A3AFF"/>
<stop offset="1" stop-color="#6D3AFF"/>
</linearGradient>
</defs>
</svg>
