<svg width="37" height="37" viewBox="0 0 37 37" fill="none" xmlns="http://www.w3.org/2000/svg">
<circle cx="18.6104" cy="18.5" r="18" fill="#FAF2FF"/>
<path d="M27.5644 21.9296H24.1714V9.59703C24.1714 9.45158 24.1136 9.31208 24.0108 9.20923C23.9079 9.10638 23.7684 9.0486 23.623 9.0486H9.6561C9.58377 9.04811 9.51206 9.06194 9.4451 9.08929C9.37813 9.11663 9.31724 9.15696 9.26593 9.20793C9.21461 9.25891 9.17389 9.31953 9.1461 9.38631C9.11831 9.45309 9.104 9.5247 9.104 9.59703V23.8783C9.10683 24.9093 9.49908 25.9011 10.2022 26.655C10.9053 27.409 11.8673 27.8694 12.8955 27.9441H13.1807H23.0855C23.8222 27.9531 24.5527 27.8082 25.2302 27.5186C25.9076 27.229 26.5171 26.801 27.0196 26.2622C27.4676 25.786 27.7839 25.2013 27.9373 24.5657C28.0795 23.8794 28.1396 23.1785 28.1165 22.478C28.1165 22.4057 28.1022 22.3341 28.0744 22.2673C28.0466 22.2005 28.0059 22.1399 27.9546 22.0889C27.9033 22.0379 27.8424 21.9976 27.7754 21.9703C27.7084 21.9429 27.6367 21.9291 27.5644 21.9296ZM13.1807 26.8545H12.965C12.2136 26.7991 11.511 26.4615 10.9983 25.9094C10.4856 25.3574 10.2007 24.6318 10.2009 23.8783V10.1455H23.0709V21.9296H16.7053C16.5599 21.9296 16.4204 21.9873 16.3175 22.0902C16.2147 22.1931 16.1569 22.3325 16.1569 22.478V23.882C16.155 24.6704 15.8407 25.4259 15.2828 25.9831C14.725 26.5402 13.9691 26.8536 13.1807 26.8545ZM26.8588 24.2952C26.748 24.7525 26.5184 25.1725 26.1933 25.5127C25.7956 25.9385 25.3135 26.2768 24.7778 26.5059C24.2421 26.7351 23.6645 26.8501 23.0818 26.8436H15.9595C16.368 26.463 16.6938 26.0023 16.9165 25.4902C17.1391 24.9782 17.254 24.4257 17.2538 23.8674V23.0264H27.0196C27.0105 23.4574 26.9566 23.8863 26.8588 24.3061V24.2952ZM16.358 12.4635C16.358 12.3181 16.4158 12.1786 16.5186 12.0757C16.6215 11.9729 16.761 11.9151 16.9064 11.9151H21.1696C21.3151 11.9151 21.4546 11.9729 21.5574 12.0757C21.6603 12.1786 21.7181 12.3181 21.7181 12.4635C21.7181 12.609 21.6603 12.7485 21.5574 12.8513C21.4546 12.9542 21.3151 13.012 21.1696 13.012H16.9064C16.8344 13.012 16.7631 12.9978 16.6966 12.9702C16.63 12.9427 16.5696 12.9023 16.5186 12.8513C16.4677 12.8004 16.4273 12.74 16.3998 12.6734C16.3722 12.6069 16.358 12.5356 16.358 12.4635ZM21.7217 16.2295C21.7217 16.3749 21.6639 16.5144 21.5611 16.6173C21.4582 16.7201 21.3187 16.7779 21.1733 16.7779H17.3086C17.1632 16.7779 17.0237 16.7201 16.9208 16.6173C16.818 16.5144 16.7602 16.3749 16.7602 16.2295C16.7602 16.084 16.818 15.9445 16.9208 15.8417C17.0237 15.7388 17.1632 15.681 17.3086 15.681H21.1696C21.242 15.6806 21.3137 15.6944 21.3806 15.7217C21.4476 15.7491 21.5085 15.7894 21.5598 15.8404C21.6111 15.8913 21.6518 15.952 21.6796 16.0187C21.7074 16.0855 21.7217 16.1571 21.7217 16.2295ZM21.1696 20.5402H13.4476C13.3022 20.5402 13.1627 20.4824 13.0598 20.3796C12.957 20.2767 12.8992 20.1372 12.8992 19.9918C12.8992 19.8463 12.957 19.7068 13.0598 19.6039C13.1627 19.5011 13.3022 19.4433 13.4476 19.4433H21.1696C21.3151 19.4433 21.4546 19.5011 21.5574 19.6039C21.6603 19.7068 21.7181 19.8463 21.7181 19.9918C21.7181 20.1372 21.6603 20.2767 21.5574 20.3796C21.4546 20.4824 21.3151 20.5402 21.1696 20.5402ZM14.9869 15.5933C15.0441 15.8307 15.0478 16.0778 14.9979 16.3168C14.9479 16.5558 14.8455 16.7807 14.6981 16.9753C14.5171 17.2098 14.2757 17.3906 13.9997 17.4982V17.9516C13.9997 18.097 13.9419 18.2365 13.8391 18.3394C13.7362 18.4422 13.5967 18.5 13.4513 18.5C13.3058 18.5 13.1663 18.4422 13.0635 18.3394C12.9606 18.2365 12.9028 18.097 12.9028 17.9516V17.553C12.6539 17.4758 12.4268 17.3409 12.2399 17.1591C12.0531 16.9774 11.9119 16.7541 11.8279 16.5073C11.7794 16.3692 11.7878 16.2174 11.8512 16.0854C11.9147 15.9534 12.0279 15.852 12.1661 15.8035C12.3043 15.755 12.4561 15.7634 12.5881 15.8269C12.7201 15.8903 12.8215 16.0035 12.8699 16.1417C12.9105 16.2517 12.9845 16.3461 13.0816 16.4117C13.1787 16.4773 13.2939 16.5108 13.4111 16.5073C13.4926 16.5039 13.5724 16.4823 13.6445 16.4441C13.7167 16.4059 13.7794 16.3521 13.8281 16.2866C13.8768 16.2211 13.9102 16.1455 13.926 16.0654C13.9418 15.9853 13.9395 15.9027 13.9193 15.8236C13.8968 15.7468 13.8551 15.6769 13.7982 15.6206C13.7413 15.5644 13.671 15.5235 13.5939 15.5019C13.4257 15.4397 13.2283 15.4288 13.0747 15.3776C12.7035 15.2813 12.3768 15.06 12.1496 14.751C11.9225 14.442 11.8089 14.0641 11.8279 13.6811C11.8565 13.3699 11.9731 13.0732 12.1641 12.8259C12.3551 12.5785 12.6126 12.3907 12.9065 12.2844V11.8456C12.9065 11.7002 12.9643 11.5607 13.0671 11.4578C13.17 11.355 13.3095 11.2972 13.4549 11.2972C13.6004 11.2972 13.7399 11.355 13.8427 11.4578C13.9456 11.5607 14.0034 11.7002 14.0034 11.8456V12.2624C14.143 12.3077 14.2758 12.3717 14.3983 12.4526C14.5904 12.5844 14.7524 12.7556 14.8734 12.9548C14.9944 13.154 15.0717 13.3766 15.1003 13.6079C15.1091 13.68 15.1037 13.753 15.0844 13.823C15.065 13.8929 15.0321 13.9583 14.9874 14.0156C14.9428 14.0728 14.8873 14.1206 14.8242 14.1564C14.761 14.1922 14.6915 14.2151 14.6195 14.224C14.5474 14.2329 14.4744 14.2275 14.4044 14.2082C14.3345 14.1888 14.269 14.1559 14.2118 14.1112C14.1546 14.0666 14.1068 14.0111 14.071 13.948C14.0352 13.8848 14.0123 13.8152 14.0034 13.7432C14 13.5978 13.9389 13.4596 13.8337 13.3592C13.7284 13.2587 13.5876 13.2042 13.4421 13.2076C13.2967 13.211 13.1585 13.272 13.0581 13.3773C12.9576 13.4825 12.9031 13.6234 12.9065 13.7688C12.9058 13.9042 12.9515 14.0357 13.036 14.1415C13.1205 14.2473 13.2387 14.3209 13.3708 14.3502C13.444 14.3721 13.5171 14.3867 13.5866 14.4013C13.824 14.439 14.053 14.5182 14.263 14.6353C14.4423 14.7375 14.599 14.8752 14.7235 15.0399C14.8479 15.2045 14.9376 15.3928 14.9869 15.5933Z" fill="#8D60A5"/>
</svg>
