<svg width="440" height="300" viewBox="0 0 440 300" fill="none" xmlns="http://www.w3.org/2000/svg">
<path d="M362.737 0H434.788C437.55 0 439.788 2.23858 439.788 5V256C439.788 258.761 437.55 261 434.788 261H362.737V0Z" fill="url(#paint0_linear_202_116)"/>
<mask id="mask0_202_116" style="mask-type:alpha" maskUnits="userSpaceOnUse" x="28" y="10" width="207" height="118">
<rect x="28.4316" y="10.2584" width="206.357" height="117.742" rx="5" fill="#613DE4"/>
</mask>
<g mask="url(#mask0_202_116)">
<g opacity="0.6">
<path d="M202.937 33.4719C201.638 31.106 201.615 28.2993 202.868 25.9101C203.077 25.5158 202.473 25.1678 202.265 25.5622C200.896 28.1833 200.919 31.2451 202.334 33.8199C202.566 34.2374 203.146 33.8663 202.937 33.4719Z" fill="#161616"/>
<path d="M202.079 33.3559C201.291 33.7502 200.363 34.2373 199.458 34.0286C198.113 33.7502 198.066 32.66 197.974 31.5466C197.881 30.0621 197.95 28.4848 198.925 27.2786C199.203 26.9307 198.716 26.4436 198.438 26.7915C197.092 28.4384 196.93 31.0131 197.44 33.0312C198.09 35.4667 200.734 34.794 202.404 33.959C202.822 33.7734 202.474 33.1703 202.079 33.3559Z" fill="#161616"/>
<path d="M202.079 25.4229C200.78 25.2605 199.481 25.7708 198.623 26.7683C198.345 27.1162 198.832 27.6033 199.11 27.2554C199.852 26.3739 200.919 25.9564 202.079 26.0956C202.52 26.1652 202.52 25.4693 202.079 25.4229Z" fill="#161616"/>
<path d="M202.288 53.2321C201.987 53.812 201.152 55.3893 200.224 53.9279C200.061 53.696 200.061 53.0465 200.015 52.8145C199.922 52.3274 199.76 51.8171 199.412 51.446C198.252 50.2398 197.44 52.2114 196.234 51.562C194.703 50.7501 196.698 49.0336 195.445 48.0826C195.144 47.8506 194.796 47.8506 194.448 47.9898C194.216 48.0826 194.03 48.2914 193.799 48.4073C192.94 48.7785 192.639 48.013 192.569 47.3403C192.546 47.1316 192.43 47.0156 192.221 46.9924C191.966 46.9692 191.734 46.946 191.479 46.9228C191.038 46.8764 191.038 47.5723 191.479 47.6187C191.734 47.6419 191.966 47.6651 192.221 47.6883C192.105 47.5723 191.989 47.4563 191.873 47.3403C191.943 47.9666 192.059 48.7785 192.639 49.1496C193.265 49.5671 193.683 49.196 194.262 48.9176C194.541 48.7785 194.773 48.3146 195.167 48.8713C195.306 49.08 195.005 49.7295 194.958 49.9615C194.866 50.3326 194.819 50.6573 194.935 51.0285C195.121 51.6084 195.631 52.0955 196.211 52.281C196.93 52.5362 197.278 52.2346 197.927 52.0491C198.507 51.8867 199.087 51.9331 199.296 52.5594C199.366 52.7913 199.389 53.0697 199.412 53.3016C199.482 53.6728 199.528 54.0671 199.713 54.415C200.664 56.1547 202.311 54.6934 202.891 53.5104C203.1 53.1857 202.497 52.8377 202.288 53.2321Z" fill="#161616"/>
<path d="M197.788 55.3893C197.231 55.9228 196.721 56.1547 196.118 55.6444C195.631 55.2269 195.724 55.0877 195.584 54.531C195.492 54.2063 195.399 53.9047 195.121 53.6728C194.773 53.3712 194.378 53.3712 193.938 53.4176C193.52 53.464 193.033 53.7424 192.685 53.3017C192.523 53.0929 192.546 52.629 192.546 52.3738C192.523 51.6779 192.523 50.8429 191.734 50.5877C191.502 50.5182 191.247 50.6341 191.038 50.5645C190.76 50.6805 190.644 50.6109 190.621 50.3094C190.528 50.1238 190.481 49.9383 190.505 49.7063C190.389 49.1728 190.18 48.7785 189.762 48.4073C189.438 48.1058 188.95 48.5929 189.275 48.8945C189.971 49.5439 189.484 50.4486 190.064 51.0285C190.667 51.6316 191.618 50.7501 191.827 51.8635C191.989 52.7218 191.664 53.8815 192.801 54.1831C193.613 54.3919 194.471 53.58 194.912 54.6934C195.097 55.1573 195.028 55.6676 195.352 56.1083C196.118 57.1058 197.533 56.5955 198.298 55.8764C198.623 55.5748 198.113 55.0645 197.788 55.3893Z" fill="#161616"/>
<path d="M112.335 23.0569C113.031 23.1265 111.987 24.4951 111.778 24.6111C111.221 24.9126 110.572 24.7502 110.154 24.3095C109.25 23.3353 110.015 21.8972 111.245 21.758C111.685 21.7116 111.685 21.0157 111.245 21.0621C110.224 21.1781 109.319 21.8508 109.087 22.8714C108.855 23.8688 109.459 24.9358 110.386 25.3301C111.291 25.7013 112.288 25.3533 112.822 24.5415C113.286 23.8456 113.402 22.4539 112.312 22.3611C111.894 22.3147 111.894 23.0106 112.335 23.0569Z" fill="#161616"/>
<path d="M117.02 24.4719C117.507 24.9126 116.928 25.794 116.371 25.3069C115.791 24.8198 116.58 24.1471 117.113 24.5415C117.461 24.8198 117.809 24.2167 117.461 23.9384C116.974 23.5672 116.232 23.6832 115.791 24.1239C115.281 24.6342 115.397 25.4229 115.93 25.8636C116.464 26.3043 117.229 26.2811 117.647 25.7012C118.018 25.1909 117.971 24.4487 117.507 24.008C117.183 23.6832 116.672 24.1703 117.02 24.4719Z" fill="#161616"/>
<path d="M36.5541 54.2785C36.3222 49.9641 38.4794 45.812 42.1211 43.4924C42.4923 43.2605 42.1443 42.6574 41.7732 42.8893C37.9227 45.3249 35.6263 49.7089 35.8583 54.2785C35.8815 54.7192 36.5773 54.7192 36.5541 54.2785Z" fill="#161616"/>
<path d="M36.0899 53.7682C33.8632 52.1445 34.7678 49.1986 35.9972 47.2734C37.157 45.4409 39.0358 43.2605 41.4482 43.6316C41.8889 43.7012 42.0745 43.0285 41.6337 42.9589C38.7343 42.5414 36.5307 44.977 35.1853 47.2502C33.84 49.5002 33.3296 52.6084 35.742 54.3713C36.1131 54.6264 36.4611 54.0233 36.0899 53.7682Z" fill="#161616"/>
<path d="M231.352 74.4124C229.891 72 229.01 69.3325 228.801 66.5258C228.754 66.0851 228.059 66.0851 228.105 66.5258C228.337 69.4717 229.218 72.232 230.749 74.7603C231.004 75.1546 231.608 74.8067 231.352 74.4124Z" fill="white"/>
<path d="M228.523 75.1779C227.316 72.9975 226.644 70.6316 226.481 68.1496C226.458 67.7089 225.762 67.7089 225.786 68.1496C225.948 70.7475 226.667 73.2295 227.92 75.5259C228.128 75.9202 228.731 75.5723 228.523 75.1779Z" fill="white"/>
<path d="M231.538 69.9588C229.52 71.2809 227.247 71.9768 224.812 72.0232C224.371 72.0232 224.371 72.7191 224.812 72.7191C227.34 72.6727 229.752 71.9304 231.886 70.5387C232.257 70.3067 231.909 69.7036 231.538 69.9588Z" fill="white"/>
<path d="M231.608 67.1289C229.079 68.6598 226.319 69.6341 223.396 70.0748C222.956 70.1444 223.141 70.817 223.582 70.7475C226.574 70.3067 229.381 69.2861 231.956 67.732C232.327 67.5001 231.979 66.897 231.608 67.1289Z" fill="white"/>
<path d="M95.4017 55.6934C96.4687 55.1599 96.8862 53.7682 95.9816 52.8635C95.4945 52.3764 95.077 52.5156 94.4971 52.33C94.1259 52.2141 93.7084 51.9821 93.778 51.611C93.8244 51.3558 94.0796 51.1471 94.2187 50.9383C94.4507 50.6367 94.729 50.2888 94.8218 49.9177C94.9146 49.477 94.7986 49.0362 94.4507 48.7347C93.9404 48.294 93.2677 48.5723 92.711 48.294C91.5512 47.7373 93.662 45.3017 91.876 44.8378C91.4352 44.7218 91.2497 45.3945 91.6904 45.5105C92.4327 45.696 91.5048 47.111 91.4352 47.5517C91.3888 47.946 91.4584 48.3404 91.76 48.6187C92.5486 49.3842 94.8682 48.5723 93.6852 50.5208C93.3141 51.1239 92.6414 51.8661 93.0821 52.6548C93.2213 52.9099 93.4533 53.0491 93.7316 53.1187C94.01 53.1651 94.4507 53.1187 94.729 53.1419C95.9584 53.2115 96.0976 54.58 95.0538 55.1135C94.6594 55.2759 95.0074 55.879 95.4017 55.6934Z" fill="white"/>
<path d="M90.2525 51.7965C91.018 51.495 91.0412 50.6599 90.5773 50.0337C90.2757 49.5929 89.7886 49.5001 89.3943 49.1986C88.4201 48.4795 89.2783 47.8764 89.4407 47.0414C89.719 45.6033 88.1881 46.0904 87.7474 45.1625C87.3763 44.3971 87.5154 43.5388 86.5644 43.1909C86.1469 43.0285 85.9613 43.7012 86.3788 43.8636C87.0515 44.0955 86.9587 45.3713 87.3299 45.8816C87.4459 46.0672 87.6082 46.1832 87.7706 46.3223C87.8634 46.3919 88.0026 46.3687 88.0721 46.4151C88.2345 46.4383 88.3505 46.5543 88.3969 46.7862C88.7216 46.995 88.768 47.2038 88.4897 47.4357C88.2809 48.0852 87.8634 48.4795 88.3041 49.1522C88.4665 49.4074 88.768 49.5929 89.0232 49.7553C89.2319 49.8945 90.7397 50.8223 90.0438 51.1007C89.6495 51.2862 89.835 51.9589 90.2525 51.7965Z" fill="white"/>
<path d="M45.4379 4.96422C47.1311 6.1704 46.8528 8.69874 45.0203 9.62657C43.6286 10.3224 41.7265 9.67296 41.0075 8.30441C40.2884 6.93586 40.9147 5.01061 42.2832 4.29154C43.7214 3.54927 45.5074 4.19876 46.3193 5.52092C46.5513 5.89205 47.1543 5.54411 46.9224 5.17298C45.8786 3.4333 43.4662 2.66783 41.6801 3.82762C39.9868 4.94102 39.4533 7.51575 40.7059 9.13946C41.9353 10.7168 44.394 11.0879 45.9482 9.81214C47.7574 8.3508 47.6183 5.68329 45.7626 4.33793C45.4147 4.10597 45.0667 4.70906 45.4379 4.96422Z" fill="white"/>
<path d="M225.905 11.8636C225.65 12.6986 225.279 12.9306 224.838 12.5363C224.722 12.4899 224.606 12.4203 224.513 12.3739C224.351 12.3275 224.142 12.2811 223.98 12.3043C223.632 12.3507 223.354 12.5594 223.191 12.8378C222.611 13.7656 223.261 14.6703 223.841 15.3893C224.142 15.7373 224.699 16.2012 224.629 16.7347C224.537 17.7553 223.933 17.3378 223.423 17.4074C223.052 17.4538 222.727 17.5929 222.542 17.9409C222.356 18.2424 222.402 18.6367 222.449 18.9615C222.472 19.1471 222.542 19.3558 222.542 19.5414C222.704 20.0285 222.472 20.33 221.846 20.446C221.544 20.2373 221.289 19.9821 221.08 19.6574C220.825 19.2862 220.222 19.6342 220.477 20.0053C221.104 20.8867 222.959 22.0929 223.261 20.2605C223.4 19.3326 222.542 18.3584 223.91 18.1264C224.583 18.0105 225.047 18.0105 225.256 17.2218C225.441 16.5723 225.186 15.946 224.792 15.4357C224.606 15.2038 224.397 14.995 224.212 14.7862C223.98 14.5543 223.817 14.2991 223.701 13.9976C223.98 13.7192 224.235 13.4409 224.513 13.1625C224.722 13.1161 225.256 13.5569 225.557 13.5801C226.902 13.6728 227.622 11.8636 226.276 11.2837C225.835 11.0981 225.488 11.7012 225.905 11.8636Z" fill="white"/>
<path d="M220.245 12.8609C220.616 13.464 221.196 14.3918 220.941 15.1573C220.755 15.7372 219.966 15.9923 219.618 16.4563C219.085 17.1753 219.154 18.1264 219.642 18.8454C219.734 18.6599 219.85 18.4975 219.943 18.3119C218.621 18.2191 217.508 19.0078 217.113 20.2836C216.974 20.7243 217.647 20.8867 217.786 20.4691C218.087 19.4949 218.923 18.9382 219.943 19.0078C220.198 19.031 220.384 18.7063 220.245 18.4743C219.943 18.0336 219.827 17.4073 220.129 16.9202C220.407 16.5027 220.778 16.4795 221.08 16.1779C221.358 15.8996 221.544 15.6212 221.613 15.2037C221.799 14.2527 221.289 13.3016 220.825 12.513C220.616 12.1187 220.013 12.4666 220.245 12.8609Z" fill="white"/>
<path d="M129.035 119.134C127.806 117.719 127.041 116.072 126.716 114.24C126.646 113.799 125.974 113.984 126.043 114.425C126.391 116.374 127.249 118.137 128.548 119.644C128.85 119.969 129.337 119.482 129.035 119.134Z" fill="white"/>
<path d="M128.433 119.064C127.644 119.783 124.489 122.613 123.33 121.801C122.75 121.384 122.239 120.433 121.868 119.807C121.404 119.018 121.033 118.183 120.732 117.325C120.592 116.907 119.92 117.093 120.059 117.51C120.453 118.6 120.94 119.667 121.567 120.642C121.961 121.268 122.564 122.335 123.283 122.636C124.095 122.984 125.092 122.265 125.765 121.871C126.902 121.222 127.946 120.433 128.92 119.551C129.245 119.25 128.757 118.763 128.433 119.064Z" fill="white"/>
<path d="M125.974 113.799C124.165 115.33 122.193 116.582 120.013 117.533C119.595 117.719 119.967 118.322 120.361 118.136C122.588 117.162 124.606 115.863 126.461 114.286C126.809 114.008 126.322 113.521 125.974 113.799Z" fill="white"/>
<path d="M121.938 120.34C121.056 121.082 119.085 122.961 117.994 121.732C117.206 120.85 116.695 119.412 116.232 118.345C116.046 117.928 115.443 118.299 115.628 118.693C116.069 119.691 116.533 120.642 117.09 121.569C117.368 122.057 117.716 122.799 118.296 123.008C118.969 123.24 119.688 122.752 120.221 122.428C121.01 121.964 121.729 121.43 122.425 120.85C122.773 120.526 122.262 120.039 121.938 120.34Z" fill="white"/>
<path d="M123.654 116.095C122.564 115.608 121.636 114.959 120.778 114.124C120.615 113.961 120.36 114.008 120.221 114.193C119.2 115.655 117.855 116.768 116.231 117.533C115.814 117.719 116.185 118.322 116.579 118.136C118.319 117.325 119.734 116.118 120.824 114.564C120.639 114.588 120.453 114.611 120.267 114.634C121.149 115.515 122.146 116.188 123.283 116.698C123.724 116.861 124.072 116.281 123.654 116.095Z" fill="white"/>
<path d="M118.598 90.3016C118.644 90.5567 118.714 90.8119 118.76 91.067C118.551 91.2758 118.343 91.4613 118.088 91.6005C117.948 91.6933 117.786 91.7861 117.647 91.9021C117.368 92.134 117.183 92.366 117.044 92.6907C116.881 93.1082 116.928 93.5026 116.974 93.9433C116.997 94.0825 117.021 94.2448 117.044 94.384C117.067 94.5464 116.974 96.4252 116.232 95.8222C115.884 95.5438 115.397 96.0309 115.745 96.3093C116.255 96.7268 116.789 96.6572 117.252 96.2165C118.041 95.451 117.67 94.5464 117.624 93.6186C117.554 92.2268 119.363 92.1572 119.526 90.8815C119.595 90.3016 119.363 89.7681 118.76 89.6521C118.343 89.5593 118.157 90.232 118.598 90.3016Z" fill="#00F662"/>
<path d="M116.046 92.2268C115.489 91.786 114.7 92.1108 114.584 92.8299C114.468 93.4561 114.886 94.036 114.839 94.6623C114.77 95.5206 114.19 96.2628 113.401 96.5644C112.984 96.7267 113.169 97.3994 113.587 97.2371C114.352 96.9587 114.955 96.4484 115.28 95.6829C115.443 95.335 115.535 94.9407 115.535 94.5463C115.535 94.3608 115.512 94.1752 115.489 94.0128C115.489 94.0128 115.141 92.4123 115.535 92.7371C115.906 92.9922 116.394 92.5051 116.046 92.2268Z" fill="#00F662"/>
<path d="M175.891 15.6808C176.309 15.9127 176.355 16.4462 176.054 16.7942C175.752 17.1421 175.196 17.2813 174.755 17.2117C174.384 17.1421 173.966 16.9566 173.804 16.5854C173.618 16.1679 173.897 15.4488 174.453 15.5184C174.894 15.588 175.08 14.9153 174.639 14.8457C173.85 14.7298 173.154 15.2633 173.038 16.0751C172.899 16.9334 173.595 17.6292 174.384 17.838C175.196 18.07 176.216 17.8148 176.703 17.0725C177.144 16.3999 176.958 15.4488 176.216 15.0777C175.845 14.8689 175.497 15.472 175.891 15.6808Z" fill="#00F662"/>
<path d="M212.541 113.954C212.401 114.417 212.262 114.905 212.146 115.368C212.007 115.322 211.868 115.276 211.729 115.229C211.543 115.206 211.358 115.09 211.172 115.044C210.917 114.974 210.615 114.951 210.36 115.021C209.757 115.229 209.571 115.809 209.571 116.389C209.571 116.969 209.78 117.595 209.316 118.059C208.945 118.43 208.319 118.569 207.832 118.453C206.231 118.082 206.394 116.064 207.09 114.974C207.321 114.603 206.718 114.255 206.486 114.626C205.721 115.856 205.535 117.711 206.788 118.709C207.716 119.451 209.293 119.312 210.012 118.338C210.499 117.688 210.175 117.108 210.314 116.366C210.546 115.136 212.285 116.273 213.074 115.995C214.559 115.461 214.118 113.582 212.796 113.234C212.309 113.165 212.123 113.838 212.541 113.954Z" fill="#00F662"/>
<path d="M79.6982 92.134C80.9507 91.7629 81.8322 90.6959 81.9946 89.3737C82.1569 88.1212 81.4147 86.567 80.0229 86.4279C79.0023 86.3351 77.9817 87.4949 78.608 88.4459C79.2806 89.4897 80.5796 88.7242 81.1131 87.982C82.6208 85.8248 81.2755 81.6031 78.1673 82.6006C77.309 82.8789 76.242 83.9227 76.7291 84.9201C77.3322 86.1495 78.6776 84.8274 79.0255 84.1315C79.7446 82.6933 79.9301 80.6289 78.4456 79.6083C77.2858 78.8196 75.6853 79.3299 75.3142 80.6985C75.2214 81 75.6621 81.3248 75.8941 81.0464C77.4946 79.0284 76.2652 76.2449 73.6673 76.1521C73.2265 76.1289 73.2265 76.8248 73.6673 76.848C75.6157 76.9176 76.6363 79.0052 75.407 80.5361C75.5925 80.6521 75.8013 80.7681 75.9868 80.8841C76.3348 79.5619 77.9585 79.7707 78.5848 80.7449C79.1415 81.6495 78.9559 82.8789 78.4456 83.7835C78.3296 84.0155 77.7033 85.1057 77.3322 84.4098C77.1466 84.0387 77.8425 83.5052 78.0745 83.366C78.7935 82.9717 79.7446 83.0877 80.3013 83.6908C80.8812 84.2938 81.0667 85.2217 80.9971 86.0335C80.9507 86.4743 80.858 86.9846 80.6492 87.3557C80.5564 87.4949 80.4404 87.634 80.3477 87.7732C79.7678 88.3299 79.791 88.1675 80.4404 87.2629C80.9044 87.2165 81.2987 88.4923 81.3219 88.7938C81.3451 89.0954 81.2987 89.3969 81.2291 89.6753C80.9971 90.5335 80.3709 91.183 79.5126 91.4382C79.0719 91.5773 79.2575 92.25 79.6982 92.134Z" fill="#00F662"/>
<path d="M204.492 67.1728C204.677 67.7295 204.584 68.263 204.167 68.7038C203.703 69.1909 203.146 69.1213 202.566 69.0285C202.149 68.9589 201.824 68.9125 201.43 69.1445C201.128 69.33 200.919 69.678 200.78 69.9795C200.687 70.2115 200.618 70.4434 200.571 70.6754C200.548 70.8378 200.502 71.0001 200.479 71.1393C200.432 71.696 200.038 71.928 199.319 71.8352C199.342 71.4177 198.762 71.3945 198.646 71.7424C198.461 72.2759 198.229 72.8326 197.742 73.1574C197.023 73.6445 196.002 73.5517 195.863 72.5543C195.793 72.1135 195.144 72.2991 195.19 72.7398C195.329 73.6909 196.234 74.2939 197.185 74.1548C198.345 73.9924 198.971 72.9022 199.296 71.9048C199.064 71.8816 198.832 71.8352 198.623 71.812C198.577 72.5079 199.226 72.9486 199.899 72.8558C200.989 72.7166 201.035 71.4873 201.267 70.6754C201.43 70.0955 201.569 69.6548 202.381 69.678C202.613 69.678 202.891 69.8404 203.146 69.8404C203.587 69.8404 204.028 69.678 204.376 69.4228C205.141 68.8429 205.466 67.8687 205.164 66.9641C205.025 66.5697 204.352 66.7321 204.492 67.1728Z" fill="#5222D0"/>
<ellipse cx="74.6413" cy="58.6858" rx="3.01545" ry="3.22422" transform="rotate(-180 74.6413 58.6858)" fill="#5222D0"/>
<ellipse cx="78.1439" cy="54.7656" rx="3.50256" ry="3.317" transform="rotate(-180 78.1439 54.7656)" fill="#00F662"/>
<ellipse cx="147.476" cy="124.701" rx="1.78608" ry="1.99484" transform="rotate(-180 147.476 124.701)" fill="#00F662"/>
<ellipse cx="49.4509" cy="19.1601" rx="2.50515" ry="2.7835" transform="rotate(-180 49.4509 19.1601)" fill="#00F662"/>
</g>
</g>
<path d="M213.061 81C213.061 64.4315 226.492 51 243.061 51H357.737V261H213.061V81Z" fill="url(#paint1_linear_202_116)"/>
<rect x="0.915039" width="20.6953" height="260" rx="5" fill="url(#paint2_linear_202_116)"/>
<rect x="26.915" width="10" height="91.5295" fill="url(#paint3_linear_202_116)"/>
<path d="M394.74 250.708C420.846 225.447 422.182 186.712 375.058 143.272C368.223 136.957 364.883 128.162 358.099 123.432C337.543 109.088 308.688 112.003 290.521 133.301C280.578 144.96 276.569 160.965 266.24 172.394C254.651 185.229 240.776 197.706 235.509 215.194C232.014 226.776 232.605 239.407 236.588 250.733C293.836 260.858 347.95 263.977 394.74 250.708Z" fill="url(#paint4_linear_202_116)"/>
<path d="M371.647 224.533C371.647 224.533 368.407 244.218 380.581 248.834C392.755 253.45 389.687 243.876 389.687 243.876C389.687 243.876 394.375 242.264 380.655 235.621C374.2 232.495 371.647 224.533 371.647 224.533Z" fill="#2A94F4"/>
<path d="M387.454 250.08C387.454 250.08 404.635 250.202 408.39 227.244C412.121 204.287 420.834 199.94 420.834 199.94C420.834 199.94 383.477 204.287 387.454 250.08Z" fill="#0E538C"/>
<path d="M386.938 249.469C390.939 255.379 400.928 237.331 397.738 225.681C394.547 214.007 388.288 206.998 388.214 198.743C388.214 198.718 367.229 220.406 386.938 249.469Z" fill="#FFBE55"/>
<path d="M226.639 229.467C226.639 229.467 230.983 248.932 244.016 248.712C257.049 248.492 250.618 240.726 250.618 240.726C250.618 240.726 254.374 237.477 239.156 236.403C231.989 235.914 226.639 229.467 226.639 229.467Z" fill="#2A94F4"/>
<path d="M249.735 247.686C249.735 247.686 262.915 243.583 258.841 229.052C254.791 214.52 260.117 209.831 260.117 209.831C260.117 209.831 232.898 221.481 249.735 247.686Z" fill="#FFBE55"/>
<path d="M248.41 247.198C254.325 251.203 256.878 230.761 249.539 221.114C242.225 211.467 233.781 207.266 230.64 199.622C230.64 199.622 219.251 227.537 248.41 247.198Z" fill="#0E538C"/>
<path d="M315.293 247.833L318.386 251.789C318.386 251.789 314.238 256.381 315.612 255.966C317.011 255.526 324.644 249.42 324.644 249.42C324.644 249.42 320.963 244.487 321.012 244.462C321.085 244.438 315.293 247.833 315.293 247.833Z" fill="#0B4870"/>
<path d="M310.752 218.159L323.835 245.586L315.514 250.251L301.917 225.681L302.776 217.597L310.752 218.159Z" fill="#0B4870"/>
<path d="M344.648 226.145L354.441 259.336L355.57 259.312L348.035 225.95L344.648 226.145ZM326.952 226.683L319.49 259.531L320.816 259.507L330.805 226.585L326.952 226.683ZM335.665 225.755L336.819 259.141L338.389 259.116L339.077 225.803L335.665 225.755Z" fill="#D3D3D3"/>
<path d="M326.608 239.92L348.968 238.747L349.115 241.043L324.915 242.484L326.608 239.92Z" fill="#D3D3D3"/>
<path opacity="0.15" d="M326.927 226.683L326.583 228.368L330.29 228.295L330.756 226.609L326.927 226.683ZM335.689 226.56L335.739 228.172L339.027 228.099L339.077 226.17L335.689 226.56Z" fill="#D3D3D3"/>
<path opacity="0.5" d="M336.131 239.309L336.205 241.703L334.781 241.727L334.241 239.407L336.499 239.285M339.027 239.285V241.654L340.107 241.581L340.402 239.212L339.027 239.285Z" fill="#D3D3D3"/>
<path d="M319.245 224.289C322.411 222.751 335.248 223.581 335.248 223.581C335.248 223.581 331.615 178.814 336.303 178.448C340.991 178.081 351.594 174.735 353.509 181.5C355.521 188.607 352.797 226.658 350.121 226.292C344.01 225.461 325.111 227.635 319.416 226.292C317.968 225.95 319.245 224.289 319.245 224.289Z" fill="#FFBE55"/>
<path d="M349.483 182.282C349.508 182.282 349.582 182.404 349.753 182.648C349.827 182.77 349.925 182.917 350.023 183.112C350.122 183.308 350.22 183.527 350.343 183.772C350.784 184.773 351.251 186.336 351.447 188.29C351.668 190.244 351.668 192.588 351.643 195.177C351.594 197.766 351.447 200.599 351.202 203.579C350.956 206.558 350.686 209.391 350.416 211.956C350.146 214.52 349.876 216.84 349.533 218.77C349.189 220.699 348.723 222.238 348.354 223.263C347.986 224.289 347.692 224.826 347.667 224.826C347.618 224.802 347.814 224.24 348.109 223.19C348.404 222.14 348.772 220.626 349.066 218.696C349.361 216.767 349.582 214.471 349.803 211.907C350.048 209.342 350.318 206.509 350.539 203.554C350.76 200.599 350.956 197.766 351.03 195.177C351.103 192.613 351.152 190.293 350.981 188.363C350.833 186.434 350.465 184.895 350.097 183.894C349.729 182.844 349.434 182.306 349.483 182.282Z" fill="#EAA43F"/>
<path d="M301.941 198.377L300.763 197.766C300.763 197.766 300.002 197.497 298.775 196.765C298.456 196.569 298.161 196.325 297.94 196.056C297.646 195.714 297.278 195.25 297.13 194.933C296.958 194.542 296.443 194.518 296.345 194.86C296.271 195.202 296.689 196.276 297.67 197.229C298.652 198.181 296.59 197.888 295.829 197.815C295.069 197.717 292.737 197.546 292.541 197.766C292.271 198.059 292.565 198.45 293.326 198.523C294.087 198.596 296.345 198.987 296.32 199.378C296.296 199.769 292.442 199.256 292.442 199.256C292.442 199.256 291.632 199.012 291.583 199.476C291.485 200.282 295.584 200.55 295.977 200.55C296.247 200.55 296.222 200.99 295.928 200.965C295.633 200.941 292.099 200.355 292.001 201.185C291.927 201.82 295.363 201.429 296.075 201.942C296.787 202.455 293.4 201.967 293.35 202.577C293.326 202.797 293.35 202.968 295.289 202.992C297.278 202.992 302.628 202.138 302.628 202.138L301.867 198.377" fill="#FFBA98"/>
<path d="M328.228 182.428C328.228 182.428 318.189 195.861 315.882 196.447C313.575 197.058 300.394 197.839 300.394 197.839L299.216 203.505C299.216 203.505 316.078 204.385 319.784 201.674C325.626 197.4 331.738 187.533 331.738 187.533C331.934 184.285 330.682 182.673 328.228 182.428Z" fill="#F7F7F7"/>
<path d="M300.935 252.766L301.573 257.748C301.573 257.748 295.633 259.605 297.057 259.947C298.48 260.288 308.175 258.896 308.175 258.896C308.175 258.896 307.513 252.791 307.586 252.791C307.66 252.766 300.935 252.766 300.935 252.766ZM341.678 207.535C341.678 207.535 347.275 219.429 336.23 223.532L330.339 210.808L341.678 207.535Z" fill="#0E538C"/>
<path d="M333.996 210.71C333.996 210.71 302.137 201.991 298.554 209.318C294.97 216.62 299.241 254.696 299.241 254.696L309.206 253.645C309.206 253.645 307.537 220.211 309.206 219.038C310.875 217.866 333.824 223.63 336.229 223.532C342.095 223.288 346.243 212.395 333.996 210.71Z" fill="#0E538C"/>
<path d="M334.683 178.838C330.511 178.936 327.099 182.233 326.902 186.385C326.731 189.853 327.074 194.591 326.142 198.767C325.651 200.917 322.828 209.562 322.828 209.562L325.651 210.026C330.02 210.759 334.511 210.539 338.782 209.391L341.997 208.536C341.997 208.536 343.863 198.914 344.894 189.877C345.777 182.331 344.329 179.4 339.715 178.741L334.683 178.838Z" fill="#F7F7F7"/>
<path d="M332.474 179.376C332.622 178.643 332.376 175.566 332.376 175.566C332.376 175.566 329.554 175.199 329.455 172.415C329.333 169.631 329.652 163.208 329.652 163.208L334.855 160.814L340.427 165.186L340.942 168.263L339.641 171.927L339.052 178.912L332.474 179.376Z" fill="#B97A59"/>
<path d="M332.376 175.566C332.376 175.566 334.266 175.614 336.107 174.393C336.107 174.393 335.223 176.42 332.425 176.249L332.376 175.566Z" fill="#A0654B"/>
<path d="M326.215 207.877L324.89 207.804C324.89 207.804 324.08 207.877 322.656 207.706C322.288 207.657 321.92 207.56 321.576 207.413C321.159 207.218 320.619 206.949 320.374 206.729C320.055 206.436 319.564 206.631 319.637 206.998C319.711 207.364 320.545 208.146 321.846 208.61C323.147 209.074 321.135 209.684 320.423 209.904C319.711 210.124 317.502 210.954 317.428 211.223C317.306 211.614 317.747 211.834 318.459 211.589C319.196 211.345 321.38 210.735 321.527 211.101C321.65 211.467 317.968 212.591 317.968 212.591C317.968 212.591 317.134 212.713 317.281 213.152C317.551 213.934 321.355 212.444 321.724 212.298C321.969 212.2 322.141 212.591 321.871 212.688C321.576 212.786 318.14 213.739 318.41 214.52C318.606 215.131 321.576 213.323 322.435 213.519C323.294 213.69 320.03 214.667 320.226 215.228C320.3 215.448 320.398 215.595 322.165 214.789C323.982 213.958 328.449 210.954 328.449 210.954L326.166 207.853" fill="#B97A59"/>
<path d="M330.216 210.441C330.216 210.441 336.475 208.659 340.451 204.971C343.617 202.04 343.568 199.305 343.568 199.305L345.065 187.875L330.216 210.441Z" fill="#D3D3D3"/>
<path d="M338.929 179.717C338.929 179.717 337.727 196.423 336.107 198.157C334.487 199.891 323.81 207.608 323.81 207.608L325.896 213.03C325.896 213.03 340.574 204.726 342.243 200.452C344.231 195.275 344.599 187.215 344.648 183.772C344.673 182.306 344.084 180.89 342.93 179.986C341.727 179.034 340.377 178.985 338.929 179.717Z" fill="#F7F7F7"/>
<path d="M347.078 224.753C347.029 224.949 344.133 224.485 340.5 224.192C336.892 223.898 333.922 223.874 333.922 223.679C333.922 223.508 336.892 223.239 340.549 223.532C344.231 223.85 347.127 224.582 347.078 224.753ZM345.974 195.397C345.949 195.421 345.826 195.397 345.777 195.202C345.728 195.031 345.826 194.738 346.072 194.567C346.195 194.469 346.391 194.396 346.612 194.42C346.735 194.445 346.833 194.469 346.931 194.518C347.029 194.567 347.103 194.64 347.176 194.713C347.471 195.055 347.544 195.519 347.373 195.983C347.201 196.423 346.857 196.74 346.44 196.838C346.342 196.862 346.219 196.862 346.121 196.862C346.023 196.862 345.9 196.814 345.826 196.765C345.655 196.667 345.532 196.52 345.483 196.374C345.36 196.105 345.385 195.812 345.507 195.666C345.605 195.519 345.728 195.519 345.753 195.544C345.777 195.568 345.753 195.666 345.753 195.763C345.753 195.861 345.777 196.008 345.9 196.13C345.949 196.203 346.023 196.252 346.096 196.276C346.145 196.276 346.17 196.301 346.195 196.276C346.244 196.276 346.293 196.276 346.317 196.252C346.489 196.203 346.71 196.008 346.784 195.763C346.857 195.544 346.833 195.25 346.735 195.104C346.612 194.933 346.514 194.909 346.342 194.957C346.195 195.006 346.096 195.128 346.047 195.202C345.998 195.275 346.023 195.373 345.974 195.397Z" fill="#EAA43F"/>
<path d="M338.34 184.993C338.389 184.993 338.414 185.384 338.414 186.067C338.414 186.751 338.389 187.777 338.316 188.998C338.218 190.244 338.07 191.734 337.702 193.345C337.334 194.957 336.696 196.716 335.64 198.352C334.561 199.964 333.186 201.234 331.885 202.26C330.584 203.286 329.333 204.091 328.302 204.8C326.24 206.192 325.062 207.169 325.013 207.096C324.988 207.071 325.258 206.778 325.774 206.314C326.289 205.85 327.074 205.215 328.081 204.458C329.087 203.701 330.29 202.87 331.566 201.845C332.818 200.819 334.143 199.573 335.15 198.035C336.156 196.472 336.794 194.786 337.162 193.223C337.555 191.66 337.751 190.195 337.899 188.974C338.169 186.531 338.267 184.993 338.34 184.993ZM334.953 179.791L335.174 177.3L339.248 176.567L340.476 179.205L334.953 179.791ZM332.376 177.007L333.996 177.3V179.791L331.959 179.376L332.45 176.567M327.492 188.632C327.492 191.245 327.173 193.834 326.535 196.374L327.492 188.632Z" fill="#D3D3D3"/>
<path d="M264.707 206.192H367.327V209.538H264.707V206.192ZM272.733 209.538L264.707 260.804L268.708 260.877L282.502 209.538H272.733Z" fill="#254368"/>
<path d="M359.865 208.976L364.529 260.801H360.774L350.686 211.125L350.17 207.437L359.865 208.976Z" fill="#254368"/>
<path opacity="0.3" d="M350.465 209.538L350.834 211.834L360.087 211.492L359.915 209.538H350.465ZM272.733 209.538L272.365 211.907L281.913 211.638L282.502 209.538H272.733Z" fill="#000C38"/>
<path d="M280.072 187.606L286.478 206.192H315.416L315.195 205.239L303.487 204.873L298.112 187.606H280.072Z" fill="#D3D3D3"/>
<path d="M292.909 196.594C293.105 197.351 292.761 198.108 292.172 198.254C291.583 198.401 290.945 197.913 290.749 197.155C290.552 196.398 290.896 195.641 291.485 195.495C292.074 195.348 292.712 195.837 292.909 196.594Z" fill="#F7F7F7"/>
<path d="M350.882 200.404C350.023 197.497 349.631 193.419 349.41 190.415C349.361 189.829 349.336 189.194 349.557 188.656C349.778 188.095 350.293 187.606 350.882 187.631C351.373 187.631 351.84 187.997 352.085 188.412C352.33 188.852 352.429 189.34 352.527 189.829C353.067 192.637 353.631 195.421 354.171 198.23C354.687 197.229 355.399 196.325 356.208 195.568C356.577 195.226 357.117 194.884 357.558 195.128C357.951 195.348 358 195.885 357.976 196.349C357.927 197.717 357.755 199.085 357.46 200.428" fill="#2A94F4"/>
<path d="M349.704 200.111C349.704 200.111 348.256 205.801 354.097 206.07C359.473 206.314 358.196 200.111 358.196 200.111H349.704Z" fill="#0E538C"/>
<path d="M336.107 165.796C336.107 165.796 336.156 165.821 336.23 165.87C336.303 165.919 336.426 165.992 336.573 166.114C336.843 166.334 337.187 166.773 337.285 167.408C337.334 167.726 337.334 168.092 337.211 168.434C337.089 168.8 336.892 169.142 336.549 169.435C336.401 169.582 336.205 169.704 336.009 169.802C335.812 169.9 335.591 169.973 335.346 169.997C334.88 170.07 334.389 169.973 333.947 169.753C333.505 169.509 333.162 169.142 332.965 168.727C332.867 168.507 332.793 168.288 332.769 168.068C332.744 167.848 332.744 167.628 332.769 167.408C332.818 166.993 333.014 166.602 333.26 166.309C333.505 166.016 333.8 165.821 334.094 165.674C334.683 165.406 335.248 165.479 335.567 165.577C335.739 165.626 335.861 165.674 335.935 165.723C336.058 165.772 336.107 165.796 336.107 165.796C336.107 165.821 335.935 165.699 335.591 165.626C335.248 165.552 334.732 165.503 334.168 165.772C333.898 165.894 333.603 166.09 333.382 166.383C333.161 166.676 332.99 167.018 332.941 167.408C332.916 167.604 332.916 167.824 332.941 168.019C332.965 168.239 333.039 168.434 333.137 168.63C333.309 169.02 333.652 169.362 334.045 169.606C334.462 169.826 334.929 169.9 335.37 169.851C335.591 169.826 335.788 169.753 335.984 169.68C336.18 169.582 336.352 169.484 336.5 169.338C336.819 169.069 337.015 168.727 337.138 168.385C337.26 168.043 337.26 167.701 337.211 167.408C337.113 166.798 336.794 166.358 336.549 166.138C336.279 165.894 336.107 165.821 336.107 165.796ZM329.848 165.357H329.995C330.093 165.357 330.216 165.381 330.388 165.43C330.732 165.528 331.222 165.748 331.615 166.261C331.812 166.529 331.959 166.847 332.008 167.213C332.057 167.579 332.032 167.995 331.885 168.41C331.812 168.605 331.689 168.8 331.566 168.971C331.419 169.142 331.272 169.313 331.075 169.435C330.683 169.704 330.216 169.851 329.701 169.826C329.21 169.802 328.744 169.631 328.375 169.338C328.179 169.191 328.032 169.02 327.909 168.849C327.786 168.654 327.688 168.459 327.614 168.263C327.467 167.848 327.492 167.433 327.565 167.066C327.639 166.7 327.835 166.383 328.032 166.138C328.449 165.65 328.964 165.455 329.308 165.381C329.48 165.357 329.627 165.332 329.725 165.357C329.799 165.332 329.848 165.357 329.848 165.357C329.848 165.381 329.652 165.357 329.308 165.43C328.964 165.503 328.474 165.723 328.081 166.187C327.884 166.431 327.713 166.725 327.639 167.091C327.565 167.433 327.565 167.848 327.688 168.214C327.737 168.41 327.835 168.605 327.958 168.776C328.081 168.947 328.228 169.118 328.4 169.24C328.744 169.509 329.185 169.68 329.652 169.704C330.118 169.704 330.584 169.582 330.928 169.338C331.1 169.216 331.272 169.069 331.394 168.898C331.517 168.727 331.64 168.556 331.713 168.361C331.861 167.995 331.91 167.604 331.861 167.237C331.812 166.871 331.664 166.578 331.492 166.309C331.124 165.796 330.658 165.552 330.339 165.455C330.044 165.357 329.848 165.357 329.848 165.357Z" fill="#0B4870"/>
<path d="M331.934 167.799C331.934 167.775 332.155 167.75 332.425 167.75C332.695 167.75 332.891 167.799 332.891 167.824C332.891 167.848 332.67 167.872 332.4 167.872C332.13 167.872 331.909 167.848 331.934 167.799ZM337.162 167.995C337.162 167.97 337.677 167.946 338.316 167.97C338.954 167.995 339.469 168.043 339.469 168.068C339.469 168.092 338.954 168.117 338.316 168.092C337.677 168.068 337.162 168.019 337.162 167.995Z" fill="#0B4870"/>
<path d="M339.445 172.391C340.942 170.754 341.089 168.385 341.114 166.163C341.138 165.088 341.065 163.989 340.525 163.061C339.985 162.157 339.052 161.571 338.095 161.156C336.622 160.521 334.953 160.228 333.382 160.521C331.811 160.814 330.314 161.742 329.529 163.134C329.529 163.134 336.818 162.988 337.309 163.281C337.8 163.574 339.297 164.624 339.175 165.919C339.052 167.213 338.684 169.118 338.684 169.118L339.862 168.947C339.862 168.947 339.764 167.189 340.279 167.237C340.77 167.335 339.445 172.391 339.445 172.391Z" fill="#0E538C"/>
<path d="M339.789 169.387C339.838 169.582 340.059 169.729 340.279 169.704C340.5 169.704 340.697 169.582 340.869 169.46C341.212 169.191 341.507 168.8 341.556 168.361C341.605 167.921 341.409 167.433 341.04 167.213C340.648 166.993 340.083 167.091 339.862 167.482L339.789 169.387Z" fill="#B97A59"/>
<defs>
<linearGradient id="paint0_linear_202_116" x1="401.262" y1="-16.704" x2="401.262" y2="261" gradientUnits="userSpaceOnUse">
<stop offset="0.131579" stop-color="#724CFF"/>
<stop offset="0.732" stop-color="#613DE4"/>
</linearGradient>
<linearGradient id="paint1_linear_202_116" x1="131" y1="129.09" x2="298.592" y2="271.03" gradientUnits="userSpaceOnUse">
<stop offset="0.12627" stop-color="#724CFF"/>
<stop offset="0.82169" stop-color="#5B38DB"/>
</linearGradient>
<linearGradient id="paint2_linear_202_116" x1="11.2627" y1="0" x2="11.2627" y2="260" gradientUnits="userSpaceOnUse">
<stop stop-color="#613DE4"/>
<stop offset="1" stop-color="#9173FF" stop-opacity="0.58"/>
</linearGradient>
<linearGradient id="paint3_linear_202_116" x1="31.915" y1="0" x2="31.915" y2="91.5295" gradientUnits="userSpaceOnUse">
<stop stop-color="#9173FF" stop-opacity="0.58"/>
<stop offset="1" stop-color="#613DE4"/>
</linearGradient>
<linearGradient id="paint4_linear_202_116" x1="323.003" y1="114.57" x2="323.003" y2="259.531" gradientUnits="userSpaceOnUse">
<stop stop-color="#CCE9FF"/>
<stop offset="1" stop-color="#CCE9FF" stop-opacity="0"/>
</linearGradient>
</defs>
</svg>
